<svg width="31" height="31" viewBox="0 0 31 31" fill="none" xmlns="http://www.w3.org/2000/svg">
<g clip-path="url(#clip0)">
<path d="M20.486 17.6547L16.2741 14.5176V8.12725C16.2741 7.48471 15.7512 6.96533 15.1042 6.96533C14.4572 6.96533 13.9342 7.48471 13.9342 8.12725V15.0986C13.9342 15.4646 14.1073 15.8097 14.4022 16.0281L19.082 19.5138C19.2926 19.6707 19.5383 19.7462 19.7828 19.7462C20.1396 19.7462 20.4906 19.587 20.72 19.2803C21.1085 18.7678 21.0032 18.0393 20.486 17.6547Z" fill="#5D6678"/>
<path d="M15.1042 0.00585938C6.77522 0.00585938 0 6.73435 0 15.0059C0 23.2774 6.77522 30.0059 15.1042 30.0059C23.4331 30.0059 30.2083 23.2774 30.2083 15.0059C30.2083 6.73435 23.4331 0.00585938 15.1042 0.00585938ZM15.1042 27.6821C8.06686 27.6821 2.33991 21.9946 2.33991 15.0059C2.33991 8.01709 8.06686 2.32963 15.1042 2.32963C22.1427 2.32963 27.8684 8.01709 27.8684 15.0059C27.8684 21.9946 22.1415 27.6821 15.1042 27.6821Z" fill="#5D6678"/>
</g>
<defs>
<clipPath id="clip0">
<rect width="30.2083" height="30" fill="white" transform="translate(0 0.00585938)"/>
</clipPath>
</defs>
</svg>
