<svg width="32" height="24" viewBox="0 0 32 24" fill="none" xmlns="http://www.w3.org/2000/svg">
<path fill-rule="evenodd" clip-rule="evenodd" d="M28.4714 0.00488281H2.74378C1.23249 0.00488281 -3.05176e-05 1.22804 -3.05176e-05 2.72957V20.894C-3.05176e-05 22.3903 1.22713 23.6179 2.74378 23.6179H28.4714C29.9787 23.6179 31.2152 22.4001 31.2152 20.894V2.72957C31.2152 1.23321 29.988 0.00488281 28.4714 0.00488281ZM28.0924 1.82172L15.666 14.1629L3.13109 1.82172H28.0924ZM1.82905 20.5187V3.09731L10.6376 11.7698L1.82905 20.5187ZM3.12261 21.8018L11.9363 13.0493L15.0249 16.0896C15.3825 16.4425 15.9597 16.4411 16.3154 16.0873L19.3266 13.0967L28.0924 21.8018H3.12261ZM29.3864 20.5187L20.6195 11.8114L29.3864 3.10554V20.5187Z" fill="#5D6678"/>
</svg>
