<svg width="31" height="31" viewBox="0 0 31 31" fill="none" xmlns="http://www.w3.org/2000/svg">
<path fill-rule="evenodd" clip-rule="evenodd" d="M25.6426 4.52882C28.056 6.92208 29.627 9.93122 30.1952 13.2366C30.2782 13.6985 29.9588 14.141 29.4927 14.2116C29.4874 14.2122 29.4822 14.2128 29.4771 14.2134C29.4324 14.2188 29.3919 14.2236 29.3465 14.2236C28.9306 14.2236 28.5671 13.9325 28.4972 13.5147C27.9924 10.5635 26.5876 7.8723 24.4299 5.7318C22.2712 3.59733 19.5577 2.19837 16.5819 1.69898C16.11 1.6157 15.7969 1.17916 15.8732 0.710302C15.9564 0.247676 16.3973 -0.0688847 16.8633 0.0128729C20.1963 0.577756 23.2292 2.13535 25.6426 4.52882ZM23.8867 18.5876C23.2675 17.9485 22.5204 17.6059 21.7286 17.6059C20.9433 17.6059 20.19 17.9417 19.5451 18.5808L17.5274 20.5758C17.3946 20.5051 17.2619 20.4378 17.1326 20.3722L17.1325 20.3722L17.0356 20.323L17.0026 20.3065C16.7851 20.1981 16.5798 20.0957 16.4036 19.9871C14.5136 18.7961 12.7959 17.2451 11.1484 15.2371C10.3506 14.2367 9.8143 13.3945 9.42472 12.5401C9.89406 12.1138 10.3324 11.6726 10.7583 11.2438L10.9057 11.0955C10.9955 11.0067 11.0852 10.9163 11.1749 10.8258C11.264 10.7359 11.3531 10.646 11.4422 10.5579C12.7831 9.22793 12.7831 7.50526 11.4422 6.17549L9.69958 4.4474L9.68443 4.43233C9.4908 4.2398 9.29229 4.04241 9.10528 3.84505C8.72243 3.45293 8.31981 3.04631 7.905 2.66754C7.28573 2.05936 6.54479 1.73605 5.76601 1.73605C4.9868 1.73605 4.23371 2.05936 3.59509 2.66754C3.58879 2.67432 3.58879 2.67432 3.58273 2.67875L3.58273 2.67876L1.41114 4.85168C0.593921 5.66238 0.128269 6.65089 0.0263738 7.79689C-0.127036 9.64573 0.421627 11.3678 0.843168 12.4958C1.87768 15.2634 3.42259 17.8285 5.72799 20.5758C8.52449 23.8879 11.889 26.5032 15.7328 28.3453C17.2019 29.0368 19.162 29.8529 21.3519 29.9925C21.4857 29.9992 21.6263 30.006 21.754 30.006C23.2292 30.006 24.468 29.4794 25.4386 28.4346C25.4417 28.4281 25.4465 28.4234 25.4514 28.4187C25.4561 28.414 25.4608 28.4094 25.464 28.4031C25.7712 28.0336 26.1224 27.697 26.492 27.3426L26.492 27.3426L26.5811 27.2571C26.8557 26.9976 27.1372 26.7253 27.4116 26.4387C28.043 25.7878 28.3755 25.0272 28.3755 24.2488C28.3755 23.4641 28.0369 22.7097 27.3918 22.0766L23.8867 18.5876ZM26.1726 25.256C25.9639 25.4791 25.7507 25.6843 25.5255 25.9011L25.3934 26.0284C24.9784 26.4215 24.5571 26.8333 24.1611 27.2946C23.5167 27.9793 22.7568 28.3011 21.7608 28.3011C21.6647 28.3011 21.5624 28.3011 21.4666 28.2959C19.5701 28.1751 17.8079 27.4407 16.4868 26.813C12.8729 25.0782 9.69958 22.6144 7.06192 19.4928C4.88491 16.8895 3.42886 14.4842 2.46499 11.9004C1.87112 10.3231 1.65408 9.09515 1.75013 7.93641C1.81376 7.19548 2.10081 6.58113 2.63098 6.0547L4.80866 3.89529C5.12087 3.60425 5.45313 3.44673 5.77883 3.44673C6.18103 3.44673 6.50698 3.68675 6.71077 3.8893C6.71537 3.89337 6.71964 3.89779 6.72402 3.90232L6.73037 3.90881C7.11949 4.26884 7.48976 4.64317 7.87935 5.04203C7.96167 5.12575 8.04497 5.20974 8.12885 5.29431L8.12901 5.29447L8.12908 5.29455C8.24727 5.41371 8.36661 5.53403 8.48601 5.65642L10.2291 7.38525C10.9057 8.05642 10.9057 8.67755 10.2291 9.34872C10.1585 9.41835 10.0889 9.48821 10.0196 9.55779L10.0195 9.55792L10.0194 9.55804C9.90664 9.67124 9.79462 9.78372 9.68002 9.89331C9.14376 10.4371 8.6329 10.944 8.07775 11.4384C8.07431 11.4414 8.07087 11.4441 8.06755 11.4468L8.06754 11.4468C8.05848 11.454 8.05029 11.4605 8.04537 11.4698C7.49607 12.0143 7.59885 12.5461 7.71379 12.9061C7.71597 12.9134 7.71818 12.9204 7.72041 12.9272C7.7216 12.9309 7.7228 12.9346 7.724 12.9383L7.73246 12.9647C8.18596 14.0529 8.82479 15.0796 9.79496 16.3014L9.80148 16.3074C11.5637 18.4608 13.4215 20.1394 15.4714 21.4249C15.7264 21.5852 15.988 21.7155 16.2381 21.84L16.2569 21.8493C16.4868 21.9626 16.7034 22.0706 16.8887 22.1854C16.902 22.1912 16.9153 22.1995 16.9287 22.2078C16.941 22.2154 16.9534 22.2231 16.9657 22.2289C17.1825 22.3361 17.387 22.3871 17.5978 22.3871C18.1259 22.3871 18.4574 22.0599 18.5672 21.9516L18.5682 21.9506L20.7515 19.7846C20.9688 19.5693 21.3136 19.3098 21.7158 19.3098C22.1117 19.3098 22.4374 19.5573 22.6354 19.7718L22.6412 19.7779L22.648 19.7846L26.1661 23.273C26.824 23.9202 26.824 24.5841 26.1726 25.256ZM16.3273 7.13733C17.9997 7.41642 19.5195 8.2016 20.7328 9.40459C21.9459 10.6084 22.7314 12.1146 23.0185 13.775C23.0886 14.1921 23.4526 14.4839 23.8678 14.4839C23.91 14.4839 23.9478 14.4792 23.9885 14.4742L24.014 14.4711C24.4866 14.3946 24.7995 13.9528 24.723 13.4826C24.3787 11.4755 23.4207 9.64539 21.9587 8.19561C20.4962 6.74505 18.6509 5.79482 16.6271 5.45353C16.1545 5.37624 15.7139 5.68755 15.6309 6.15041C15.5479 6.61304 15.8545 7.06235 16.3273 7.13733Z" fill="#5D6678"/>
</svg>
