<svg width="25" height="25" viewBox="0 0 25 25" fill="none" xmlns="http://www.w3.org/2000/svg">
<path d="M12.5031 0H12.4969C5.60469 0 0 5.60625 0 12.5C0 15.2344 0.88125 17.7687 2.37969 19.8266L0.821875 24.4703L5.62656 22.9344C7.60313 24.2438 9.96094 25 12.5031 25C19.3953 25 25 19.3922 25 12.5C25 5.60781 19.3953 0 12.5031 0Z" fill="#4CAF50"/>
<path d="M19.7769 17.6517C19.4754 18.5032 18.2785 19.2095 17.3238 19.4157C16.6707 19.5548 15.8175 19.6657 12.9457 18.4751C9.27223 16.9532 6.9066 13.2204 6.72223 12.9782C6.54567 12.736 5.23785 11.0017 5.23785 9.20791C5.23785 7.41416 6.14879 6.54072 6.51598 6.16572C6.81754 5.85791 7.31598 5.71729 7.7941 5.71729C7.94879 5.71729 8.08785 5.7251 8.21285 5.73135C8.58004 5.74697 8.76442 5.76885 9.0066 6.34854C9.30817 7.0751 10.0425 8.86885 10.13 9.05322C10.2191 9.2376 10.3082 9.4876 10.1832 9.72979C10.066 9.97979 9.96285 10.0907 9.77848 10.3032C9.5941 10.5157 9.4191 10.6782 9.23473 10.9063C9.06598 11.1048 8.87535 11.3173 9.08785 11.6845C9.30035 12.0438 10.0347 13.2423 11.116 14.2048C12.5113 15.447 13.6425 15.8438 14.0472 16.0126C14.3488 16.1376 14.7082 16.1079 14.9285 15.8735C15.2082 15.572 15.5535 15.072 15.905 14.5798C16.155 14.2267 16.4707 14.1829 16.8019 14.3079C17.1394 14.4251 18.9254 15.3079 19.2925 15.4907C19.6597 15.6751 19.9019 15.7626 19.991 15.9173C20.0785 16.072 20.0785 16.7985 19.7769 17.6517Z" fill="#FAFAFA"/>
</svg>
