<svg width="317" height="361" viewBox="0 0 317 361" fill="none" xmlns="http://www.w3.org/2000/svg">
<path d="M71.296 297.96C55.1359 297.88 40.6559 288.28 34.256 273.4C9.61595 216.04 -36.7041 73.8797 84.576 29.3197C180.336 -5.88029 231.696 -5.08029 265.296 12.5997C294.016 27.7197 312.816 57.7197 314.656 89.7197C318.496 156.2 325.056 295.96 247.696 297.16C178.496 298.28 107.856 298.12 71.296 297.96Z" fill="#1FDE82"/>
<path opacity="0.14" d="M274.497 289.72C258.337 268.44 223.937 235 156.417 211.4C80.8974 185.08 39.0574 117 21.1374 79.7197C-14.3826 141.16 15.9374 230.68 34.2574 273.4C40.5774 288.2 55.1374 297.88 71.2974 297.96C107.857 298.12 178.497 298.28 247.697 297.16C258.017 297 266.897 294.36 274.497 289.72Z" fill="#2B41E3"/>
<g opacity="0.28">
<path opacity="0.28" d="M19.8802 118.12C19.8802 119.48 18.7602 120.6 17.4002 120.6C16.0402 120.6 14.9202 119.48 14.9202 118.12C14.9202 116.76 16.0402 115.64 17.4002 115.64C18.7602 115.72 19.8802 116.76 19.8802 118.12Z" fill="white"/>
<path opacity="0.28" d="M45.5603 118.12C45.5603 119.48 44.4403 120.6 43.0803 120.6C41.7203 120.6 40.6003 119.48 40.6003 118.12C40.6003 116.76 41.7203 115.64 43.0803 115.64C44.5203 115.72 45.5603 116.76 45.5603 118.12Z" fill="white"/>
<path opacity="0.28" d="M71.3202 118.12C71.3202 119.48 70.2002 120.6 68.8402 120.6C67.4802 120.6 66.3602 119.48 66.3602 118.12C66.3602 116.76 67.4802 115.64 68.8402 115.64C70.2002 115.72 71.3202 116.76 71.3202 118.12Z" fill="white"/>
<path opacity="0.28" d="M19.8802 137.08C19.8802 138.44 18.7602 139.56 17.4002 139.56C16.0402 139.56 14.9202 138.44 14.9202 137.08C14.9202 135.72 16.0402 134.6 17.4002 134.6C18.7602 134.6 19.8802 135.72 19.8802 137.08Z" fill="white"/>
<path opacity="0.28" d="M45.5603 137.08C45.5603 138.44 44.4403 139.56 43.0803 139.56C41.7203 139.56 40.6003 138.44 40.6003 137.08C40.6003 135.72 41.7203 134.6 43.0803 134.6C44.5203 134.6 45.5603 135.72 45.5603 137.08Z" fill="white"/>
<path opacity="0.28" d="M71.3202 137.08C71.3202 138.44 70.2002 139.56 68.8402 139.56C67.4802 139.56 66.3602 138.44 66.3602 137.08C66.3602 135.72 67.4802 134.6 68.8402 134.6C70.2002 134.6 71.3202 135.72 71.3202 137.08Z" fill="white"/>
<path opacity="0.28" d="M19.8802 155.96C19.8802 157.32 18.7602 158.44 17.4002 158.44C16.0402 158.44 14.9202 157.32 14.9202 155.96C14.9202 154.6 16.0402 153.48 17.4002 153.48C18.7602 153.56 19.8802 154.68 19.8802 155.96Z" fill="white"/>
<path opacity="0.28" d="M45.5603 155.96C45.5603 157.32 44.4403 158.44 43.0803 158.44C41.7203 158.44 40.6003 157.32 40.6003 155.96C40.6003 154.6 41.7203 153.48 43.0803 153.48C44.5203 153.56 45.5603 154.68 45.5603 155.96Z" fill="white"/>
<path opacity="0.28" d="M71.3202 155.96C71.3202 157.32 70.2002 158.44 68.8402 158.44C67.4802 158.44 66.3602 157.32 66.3602 155.96C66.3602 154.6 67.4802 153.48 68.8402 153.48C70.2002 153.56 71.3202 154.68 71.3202 155.96Z" fill="white"/>
</g>
<path d="M154.601 208.6C154.601 210.2 153.241 211.4 151.561 211.4C149.881 211.4 148.521 210.12 148.521 208.6C148.521 207 149.881 205.8 151.561 205.8C153.241 205.8 154.601 207.08 154.601 208.6Z" fill="#292685"/>
<path fill-rule="evenodd" clip-rule="evenodd" d="M108.679 164.6C124.999 162.2 134.279 160.84 149.399 163.56C157.959 168.6 167.479 182.04 170.839 193.88L144.999 210.36L85.9592 179.4L108.679 164.6Z" fill="#E6EEFF"/>
<path fill-rule="evenodd" clip-rule="evenodd" d="M177 180.601C160.04 179.801 154.76 172.201 132.2 171.081C111.64 170.121 92.3596 178.921 76.5996 178.201C69.2396 177.881 60.9996 205.481 61.9596 212.761C68.1196 259.881 68.9996 341.081 68.9996 341.081C74.5996 348.681 80.1996 355.321 85.7196 360.921H182.68C186.76 356.521 190.84 351.481 194.92 345.961C195 346.041 183.88 180.921 177 180.601Z" fill="#3071FF"/>
<path fill-rule="evenodd" clip-rule="evenodd" d="M189.16 181.88L255.56 273.32C255.56 273.32 248.12 299.88 238.76 297.64C209.8 290.68 170.92 245.24 170.92 245.24L189.16 181.88Z" fill="#E6EEFF"/>
<path fill-rule="evenodd" clip-rule="evenodd" d="M117.64 361L120.44 269.32L99.0796 174.52L83.6396 173.8L72.4396 178.6C59.8796 184.2 54.0396 192.44 54.5996 205.88L63.9596 295.64L57.2396 361H117.64Z" fill="#E6EEFF"/>
<path fill-rule="evenodd" clip-rule="evenodd" d="M79.5606 361L61.8806 200.6C61.4006 190.68 75.8006 195.24 83.1606 188.6L99.0006 174.44L83.5606 173.72L72.3606 178.52C59.8006 184.12 53.9606 192.36 54.5206 205.8L63.8806 295.56L57.1606 360.92L79.5606 361Z" fill="#CFDEFF"/>
<path fill-rule="evenodd" clip-rule="evenodd" d="M108.68 164.6C108.68 164.6 96.5198 176.6 110.76 205.8C116.2 217 123.48 248.36 120.36 271L88.5998 224.04L99.3198 211.96L80.4398 201.16L83.3198 173.32C92.4398 170.12 92.6798 169.56 108.68 164.6Z" fill="white"/>
<path fill-rule="evenodd" clip-rule="evenodd" d="M191.161 361L187.401 225.56C186.841 212.28 190.121 179.64 175.161 175.48L171.801 174.92L171.241 179.08C171.241 179.08 170.841 177 151.081 173.72C151.081 173.72 147.481 171.56 151.401 182.44C153.641 188.6 154.201 197.4 154.121 209C153.721 245.4 156.361 269 156.521 270.36L163.081 360.92H191.161V361Z" fill="#2A63E0"/>
<path fill-rule="evenodd" clip-rule="evenodd" d="M57.2405 191.4C57.2405 191.4 16.3605 264.04 12.4405 298.2C10.2805 317.32 10.5205 341.88 11.1605 359.72L46.7605 360.12C45.8805 341.64 45.5605 317.08 48.8405 305.4C54.4405 285.24 83.5605 242.92 83.5605 242.92L57.2405 191.4Z" fill="#E6EEFF"/>
<path fill-rule="evenodd" clip-rule="evenodd" d="M57.2405 191.4C57.2405 191.4 16.3605 264.04 12.4405 298.2C10.2805 317.32 10.5205 341.88 11.1605 359.72L20.7605 360.12C27.3205 333.08 16.2005 318.52 19.3205 300.52C22.9205 279.64 38.7605 258.92 45.1605 242.68C56.3605 214.44 61.8805 200.6 61.8805 200.6L57.2405 191.4Z" fill="#CFDEFF"/>
<path fill-rule="evenodd" clip-rule="evenodd" d="M279.16 122.92C279.16 122.92 288.04 106.52 282.52 101.8C277 97.0805 266.04 127.32 266.04 127.32L277.32 133.72L279.16 122.92Z" fill="#F5B8B0"/>
<path fill-rule="evenodd" clip-rule="evenodd" d="M255.24 181.64C255.24 181.64 266.2 174.76 276.44 167.88C287.64 160.36 287.56 154.6 278.44 147.32C275.88 145.32 266.6 146.44 266.6 146.44L252.04 158.04C252.04 158.04 233.64 169 238.84 177.8C244.12 186.68 255.24 181.64 255.24 181.64Z" fill="#F5B8B0"/>
<path fill-rule="evenodd" clip-rule="evenodd" d="M223.4 262.28L239.08 174.6L259.4 179.4C259.4 179.4 260.76 269.56 254.36 275.48C248.04 281.32 224.44 293.88 223.4 262.28Z" fill="#F5B8B0"/>
<path fill-rule="evenodd" clip-rule="evenodd" d="M236.281 186.28L265.481 199.16C265.481 199.16 261.321 260.2 252.201 283L236.441 290.36L220.121 275.88L236.281 186.28Z" fill="#E6EEFF"/>
<path fill-rule="evenodd" clip-rule="evenodd" d="M265.32 199.08L256.92 195.4C255.32 211.48 252.52 234.2 248.44 250.04L248.68 250.36C248.68 250.36 247.4 254.84 245.24 259.96C242.2 267.32 237.32 275.96 231.88 274.68C212.12 269.96 187.72 247.24 174.2 233.24L170.76 245.08C170.76 245.08 209.64 290.52 238.6 297.48C244.04 298.76 248.92 290.12 251.96 282.76C254.12 277.64 255.4 273.16 255.4 273.16L255.16 272.84C262.12 246.04 265.32 199.08 265.32 199.08Z" fill="#CFDEFF"/>
<path d="M250.68 170.92H251.08C224.68 165.96 204.36 144.44 204.12 119.16L196.52 70.6802C195.88 66.3602 198.12 62.2002 202.12 60.4402L246.44 40.8402C248.36 40.0402 250.52 39.9602 252.44 40.7602L295.64 58.9202C299.56 60.6002 301.96 64.6002 301.48 68.7602L296.2 118.28C296.44 143.64 276.84 167 250.68 170.92Z" fill="#F5F6F7"/>
<path d="M250.52 158.44H250.84C229.72 154.44 213.48 137.24 213.32 117L207.48 71.8798L249.56 53.3198L286.52 68.8398L286.92 116.36C287.16 136.6 271.48 155.32 250.52 158.44Z" fill="#A272FF"/>
<path d="M250.52 158.44H250.84L249.56 53.3198L292.12 71.1598L287 116.36C287.16 136.6 271.48 155.32 250.52 158.44Z" fill="#8C50FF"/>
<path d="M249.96 122.601C247.48 122.601 245.4 120.521 245.4 118.041L245.48 91.7206C245.48 89.2406 247.56 87.1606 250.04 87.1606C252.52 87.1606 254.6 89.2406 254.6 91.7206L254.52 118.041C254.52 120.601 252.44 122.601 249.96 122.601Z" fill="#F6F3EE"/>
<path d="M232.76 104.841C232.76 102.361 234.76 100.361 237.24 100.361L263.72 100.441C266.2 100.441 268.2 102.441 268.2 104.921C268.2 107.401 266.2 109.401 263.72 109.401L237.24 109.321C234.76 109.321 232.76 107.321 232.76 104.841Z" fill="#F6F3EE"/>
<path d="M114.84 157.88C104.44 161.64 96.2003 170.28 92.0403 180.52C89.3203 187.16 91.5603 194.52 89.8003 201.4C87.6403 209.8 82.7602 217.16 79.7202 225.24C78.7602 227.88 82.7602 229.72 83.7202 227.08C88.5202 214.44 95.4003 204.36 95.0803 190.36C94.7603 177.72 104.92 166.2 116.44 162.04C119.16 161 117.56 156.92 114.84 157.88Z" fill="#013AD6"/>
<path d="M91.2401 191.24C92.9201 202.2 103.96 213.4 99.2401 225.16C98.2001 227.8 102.2 229.56 103.24 227C108.6 213.8 97.4801 203.08 95.6401 190.84C95.1601 187.96 90.7601 188.44 91.2401 191.24Z" fill="#013AD6"/>
<path d="M85.4005 232.28L88.8405 266.04C89.8805 273.32 91.0005 277.4 100.04 276.68C100.04 277.96 100.12 279.24 100.04 280.44L98.6005 280.6C91.9605 281.24 85.9605 276.44 85.2405 269.8L81.1605 229.32C80.5205 222.76 84.6805 225.8 85.4005 232.28Z" fill="white"/>
<path d="M104.36 276.28L99.5602 276.2C98.2002 276.2 97.0802 277.24 97.0802 278.6V279.32C97.0802 280.68 98.1202 281.8 99.4802 281.8L104.28 281.88C105.64 281.88 106.76 280.84 106.76 279.48V278.76C106.76 277.4 105.64 276.28 104.36 276.28Z" fill="#013AD6"/>
<path d="M96.92 231.72L85.8 263.8C83.16 270.68 81.08 274.36 72.44 271.56C72.12 272.76 71.8 274.04 71.56 275.24L72.92 275.72C79.24 277.88 86.2 274.6 88.36 268.28L101.72 229.88C103.8 223.56 99.08 225.56 96.92 231.72Z" fill="white"/>
<path d="M68.2801 270.2L72.92 271.24C74.2 271.56 75.08 272.84 74.76 274.2L74.6 274.84C74.28 276.12 73 277 71.64 276.68L67.0001 275.64C65.7201 275.32 64.8401 274.04 65.1601 272.68L65.3201 272.04C65.6401 270.68 67.0001 269.88 68.2801 270.2Z" fill="#013AD6"/>
<path d="M83.5606 229.48L81.0807 229.32C79.8007 229.24 78.8406 228.2 78.9206 226.92L79.0006 225.64C79.0806 224.36 80.1206 223.4 81.4006 223.48L83.8806 223.64C85.1606 223.72 86.1206 224.76 86.0406 226.04L85.9606 227.32C85.8806 228.6 84.8406 229.56 83.5606 229.48Z" fill="#013AD6"/>
<path d="M100.6 230.6L98.1998 229.96C96.9998 229.64 96.1998 228.36 96.5198 227.16L96.8398 225.88C97.1598 224.68 98.4398 223.88 99.6398 224.2L102.04 224.84C103.24 225.16 104.04 226.44 103.72 227.64L103.4 228.92C103.08 230.2 101.88 230.92 100.6 230.6Z" fill="#013AD6"/>
<path fill-rule="evenodd" clip-rule="evenodd" d="M156.041 83.8003C156.041 83.8003 182.921 93.6403 164.281 119.4C145.641 145.16 156.041 83.8003 156.041 83.8003Z" fill="#3A2C6D"/>
<path fill-rule="evenodd" clip-rule="evenodd" d="M164.04 104.2C163.08 95.5602 158.52 87.6402 151.56 82.4402C144.6 77.2402 135.8 75.0802 127.16 76.6002C110.52 79.4802 99.0803 94.7602 100.92 111.56C102.04 121.24 104.44 124.76 105.4 133.88C107.48 155.16 142.28 158.6 147.88 157.64C160.12 155.56 168.52 144.28 167.16 131.96C166.2 123.48 165.08 113.56 164.04 104.2Z" fill="#F5B8B0"/>
<path fill-rule="evenodd" clip-rule="evenodd" d="M110.84 179.4L116.76 137.08L146.76 142.92L147.88 182.12C146.2 206.52 109.08 203.88 110.84 179.4Z" fill="#F5B8B0"/>
<path fill-rule="evenodd" clip-rule="evenodd" d="M118.76 103.72C118.76 103.72 124.92 132.28 102.28 134.6C102.28 134.6 85.9601 116.92 92.1201 99.4003C96.5201 86.6803 131.64 63.0003 152.6 72.1203C173.48 81.1603 162.52 101.16 118.76 103.72Z" fill="#3A2C6D"/>
<path fill-rule="evenodd" clip-rule="evenodd" d="M147.241 157.72C147.241 157.72 132.041 159.4 117.881 149.4C117.881 149.4 133.321 168.76 147.481 166.12L147.241 157.72Z" fill="#E09F98"/>
<path d="M160.04 127.8C156.68 127.8 153.64 125.48 153 122.12L152.84 121.32C152.44 119.56 152.84 117.72 153.8 116.2C154.84 114.68 156.44 113.64 158.28 113.32L165.8 112.04C169.56 111.4 173.24 113.88 174.04 117.56L174.2 118.36C174.6 120.12 174.2 121.96 173.24 123.48C172.2 125 170.6 126.04 168.76 126.36L161.24 127.64C160.84 127.72 160.44 127.8 160.04 127.8ZM166.92 113.32C166.6 113.32 166.28 113.32 165.96 113.4L158.44 114.68C157 114.92 155.72 115.72 154.84 116.92C154.04 118.12 153.72 119.56 154.04 121L154.2 121.8C154.84 124.84 157.88 126.84 160.92 126.36L168.44 125.08C169.88 124.84 171.16 124.04 172.04 122.84C172.84 121.64 173.16 120.2 172.84 118.76L172.68 117.96C172.12 115.16 169.64 113.32 166.92 113.32Z" fill="#142585"/>
<path d="M134.92 131.32C131.56 131.32 128.52 129 127.88 125.64L127.72 124.84C127.32 123.08 127.72 121.24 128.68 119.72C129.72 118.2 131.32 117.16 133.16 116.84L140.68 115.56C144.44 114.92 148.12 117.4 148.92 121.08L149.08 121.88C149.48 123.64 149.08 125.48 148.12 127C147.08 128.52 145.48 129.56 143.64 129.88L136.12 131.16C135.72 131.24 135.32 131.32 134.92 131.32ZM141.8 116.84C141.48 116.84 141.16 116.84 140.84 116.92L133.32 118.2C131.88 118.44 130.6 119.24 129.72 120.44C128.92 121.64 128.6 123.08 128.92 124.52L129.08 125.32C129.72 128.36 132.76 130.36 135.8 129.88L143.32 128.6C144.76 128.36 146.04 127.56 146.92 126.36C147.72 125.16 148.04 123.72 147.72 122.28L147.56 121.48C147 118.76 144.52 116.84 141.8 116.84Z" fill="#142585"/>
<path d="M128.52 126.2L100.68 124.2C100.28 124.2 100.04 123.88 100.04 123.48C100.04 123.08 100.36 122.84 100.76 122.84L128.52 124.84C128.92 124.84 129.16 125.16 129.16 125.56C129.16 125.88 128.92 126.2 128.52 126.2Z" fill="#142585"/>
<path fill-rule="evenodd" clip-rule="evenodd" d="M105.96 123.08C110.2 122.44 114.28 126.2 115.08 131.56C115.96 136.92 113.24 141.8 109 142.52C104.76 143.16 100.68 139.4 99.8797 134.04C99.0797 128.68 101.8 123.72 105.96 123.08Z" fill="#F5B8B0"/>
<path fill-rule="evenodd" clip-rule="evenodd" d="M169.32 361L161.56 254.28L164.92 189.08L174.76 173.64L181.32 174.76C196.28 178.92 193 211.56 193.56 224.84L197.32 361H169.32Z" fill="#E6EEFF"/>
<path fill-rule="evenodd" clip-rule="evenodd" d="M157.56 181.72C159.8 187.88 160.36 196.68 160.28 208.28C159.88 245.8 162.68 269.72 162.68 269.72L183.48 225.24L169.24 213.56L184.76 201.64L177.32 171.64C177.32 171.64 169.16 166.92 149.4 163.64C149.4 163.64 153.64 170.84 157.56 181.72Z" fill="white"/>
<path d="M173.08 225.72C167.72 214.12 169.24 199.48 166.92 187.08C164.84 175.56 160.36 163.48 148.04 160.04C145.96 159.48 145.32 162.76 147.4 163.4C160.44 167 163.08 182.6 164.6 194.12C165.96 204.76 165.4 217 169.88 226.92C170.76 228.84 173.96 227.72 173.08 225.72Z" fill="#013AD6"/>
<path d="M180.841 250.147C185.723 247.291 187.364 241.018 184.507 236.137C181.651 231.256 175.378 229.614 170.497 232.471C165.616 235.327 163.974 241.6 166.831 246.481C169.688 251.362 175.96 253.004 180.841 250.147Z" fill="#013AD6"/>
<path d="M176.6 233.4L169.96 235.32L167.48 226.6C167.16 225.56 167.8 224.52 168.76 224.28L171.72 223.4C172.76 223.08 173.8 223.72 174.04 224.68L176.6 233.4Z" fill="#013AD6"/>
<path d="M178.421 246.419C182.444 244.703 184.314 240.05 182.598 236.027C180.882 232.004 176.23 230.133 172.207 231.849C168.183 233.565 166.313 238.218 168.029 242.241C169.745 246.264 174.397 248.135 178.421 246.419Z" fill="#FBFBFF"/>
<path d="M182.225 238.602C183.616 234.455 181.381 229.966 177.234 228.575C173.087 227.184 168.598 229.418 167.207 233.565C165.816 237.712 168.05 242.202 172.197 243.593C176.344 244.984 180.834 242.749 182.225 238.602Z" fill="#013AD6"/>
<path d="M178.6 233C179.56 235.24 178.6 237.8 176.36 238.84C174.12 239.8 171.56 238.84 170.52 236.6C169.56 234.36 170.52 231.8 172.76 230.76C175 229.8 177.56 230.76 178.6 233Z" fill="#0145FF"/>
<path d="M152.601 121.08L148.921 121.56C148.601 121.64 148.281 121.4 148.281 121.08C148.201 120.76 148.441 120.44 148.761 120.44L152.441 119.96C152.761 119.88 153.081 120.12 153.081 120.44C153.161 120.68 152.921 121 152.601 121.08Z" fill="#142585"/>
<g opacity="0.32">
<path opacity="0.32" d="M69.9605 103L51.2405 97.1603C50.0405 96.7603 49.3205 95.4803 49.7205 94.2803L55.5605 75.5603C55.9605 74.3603 57.2405 73.6403 58.4405 74.0403L77.1605 79.8803C78.3605 80.2803 79.0805 81.5603 78.6805 82.7603L72.8405 101.48C72.5205 102.68 71.2405 103.4 69.9605 103ZM54.9205 93.4003L69.1605 97.8803L73.6405 83.6403L59.4005 79.1603L54.9205 93.4003Z" fill="white"/>
</g>
<g opacity="0.24">
<path opacity="0.24" d="M290.041 268.12C280.201 268.12 272.121 260.12 272.121 250.2C272.121 240.36 280.121 232.28 290.041 232.28C299.881 232.28 307.961 240.28 307.961 250.2C307.961 260.04 299.881 268.12 290.041 268.12ZM290.041 239.72C284.281 239.72 279.561 244.44 279.561 250.2C279.561 255.96 284.281 260.68 290.041 260.68C295.801 260.68 300.521 255.96 300.521 250.2C300.521 244.44 295.801 239.72 290.041 239.72Z" fill="white"/>
</g>
<path d="M273.24 188.84C276.2 188.84 313.8 188.84 313.8 188.84" stroke="white" stroke-width="0.9459" stroke-miterlimit="10" stroke-linecap="round" stroke-linejoin="round"/>
<path d="M211 310.041C213.96 310.041 251.56 310.041 251.56 310.041" stroke="white" stroke-width="0.9459" stroke-miterlimit="10" stroke-linecap="round" stroke-linejoin="round"/>
<path d="M1.24011 188.84C4.20011 188.84 41.8001 188.84 41.8001 188.84" stroke="white" stroke-width="0.9459" stroke-miterlimit="10" stroke-linecap="round" stroke-linejoin="round"/>
<path opacity="0.28" d="M284.04 295.56C284.04 297.64 282.36 299.4 280.2 299.4C278.12 299.4 276.36 297.72 276.36 295.56C276.36 293.48 278.04 291.72 280.2 291.72C282.28 291.72 284.04 293.48 284.04 295.56Z" fill="white"/>
<path opacity="0.28" d="M315.88 149.401C315.88 151.481 314.2 153.241 312.04 153.241C309.96 153.241 308.2 151.561 308.2 149.401C308.2 147.321 309.88 145.561 312.04 145.561C314.2 145.561 315.88 147.241 315.88 149.401Z" fill="white"/>
<path opacity="0.28" d="M195.72 146.201C195.72 148.281 194.04 150.041 191.88 150.041C189.72 150.041 188.04 148.361 188.04 146.201C188.04 144.041 189.72 142.361 191.88 142.361C194.04 142.361 195.72 144.041 195.72 146.201Z" fill="white"/>
</svg>
