<svg width="398" height="400" viewBox="0 0 398 400" fill="none" xmlns="http://www.w3.org/2000/svg">
<g clip-path="url(#clip0)">
<path d="M334.808 327.464L248.504 277.6C241.192 273.384 235.264 262.056 235.264 252.312V11.5919C235.264 1.84794 241.192 -2.63206 248.504 1.59194L334.808 51.4159C342.12 55.6399 348.048 66.9679 348.048 76.7119V317.456C348.048 327.2 342.12 331.688 334.808 327.464Z" fill="#B1B4C4"/>
<path d="M336.288 331.808L343.128 328.352L336.568 317.104L336.288 331.808Z" fill="#B1B4C4"/>
<path d="M233.92 3.99199L240.216 0.687988L238.944 9.96799L233.92 3.99199Z" fill="#B1B4C4"/>
<path d="M329.304 330.216L243 280.384C235.688 276.168 229.76 264.84 229.76 255.096V14.3438C229.76 4.59978 235.688 0.119777 243 4.33578L329.304 54.1678C336.616 58.3918 342.544 69.7118 342.544 79.4638V320.208C342.544 329.96 336.616 334.44 329.304 330.216Z" fill="#616E84"/>
<path d="M341.6 80.0802V320.8C341.6 330.56 335.68 335.032 328.368 330.816L294.52 311.272L284 305.216L242.08 281C234.768 276.776 228.848 265.456 228.848 255.704V14.9602C228.848 5.20818 234.768 0.736176 242.08 4.95218L328.392 54.7762C335.704 59.0082 341.6 70.3202 341.6 80.0802Z" fill="#20232D"/>
<path d="M335.4 77.5998V312.08C335.4 317.976 331.264 320.384 326.144 317.424L299.2 301.88L296.8 300.504L296 300.032L290.168 296.672L273.288 286.936L266.288 282.896L263.472 281.296L244.344 270.256C239.232 267.304 235.088 260.12 235.088 254.2V19.7038C235.088 13.7918 239.232 11.3998 244.344 14.3518L278.04 33.8078V33.9038C278.04 38.5038 281.24 44.0958 285.24 46.3918C289.24 48.6878 292.44 46.8238 292.44 42.2318C292.44 42.2318 292.44 42.1598 292.44 42.1278L326.144 61.5998C331.264 64.5358 335.4 71.7198 335.4 77.5998Z" fill="white"/>
<path d="M287.181 43.9719C288.249 43.3555 288.247 41.3546 287.178 39.5026C286.109 37.6507 284.377 36.649 283.309 37.2654C282.242 37.8817 282.243 39.8826 283.312 41.7346C284.381 43.5865 286.114 44.5882 287.181 43.9719Z" fill="#2B303F"/>
<path opacity="0.1" d="M285.24 41.944C284.904 41.7268 284.624 41.433 284.424 41.0867C284.224 40.7404 284.109 40.3515 284.088 39.952C284.088 39.224 284.6 38.928 285.24 39.296C285.576 39.5115 285.857 39.8037 286.058 40.1486C286.26 40.4934 286.377 40.8812 286.4 41.28C286.4 42.008 285.872 42.304 285.24 41.944Z" fill="white"/>
<path d="M345.128 111.752C344.424 112.16 343.856 111.752 343.856 110.792V100.528C343.869 100.057 343.99 99.5952 344.211 99.1789C344.431 98.7625 344.745 98.4029 345.128 98.128C345.832 97.72 346.4 98.128 346.4 99.096V109.36C346.387 109.83 346.265 110.29 346.044 110.705C345.824 111.12 345.51 111.478 345.128 111.752Z" fill="#757B89"/>
<path d="M345.128 128.576C344.424 128.976 343.856 128.576 343.856 127.608V117.344C343.863 116.866 343.982 116.397 344.203 115.973C344.423 115.549 344.74 115.183 345.128 114.904C345.832 114.504 346.4 114.904 346.4 115.872V126.136C346.393 126.614 346.274 127.083 346.053 127.507C345.832 127.93 345.516 128.296 345.128 128.576Z" fill="#757B89"/>
<path d="M319.2 297.44L251.32 258.24C247.8 256.208 244.92 250.744 244.92 246.048V120C244.92 115.296 247.784 113.136 251.32 115.2L319.2 154.4C322.728 156.44 325.6 161.896 325.6 166.6V292.68C325.6 297.312 322.704 299.472 319.2 297.44Z" fill="#E9EAF2"/>
<path d="M277.479 169.871C282.465 166.992 282.464 157.658 277.478 149.022C272.492 140.386 264.409 135.719 259.423 138.597C254.437 141.476 254.437 150.81 259.423 159.446C264.409 168.082 272.493 172.749 277.479 169.871Z" fill="#CED0DB"/>
<path d="M315.2 179.528L288.944 164.368V158.224L315.2 173.384V179.528Z" fill="#CED0DB"/>
<path d="M309.144 187.08L288.944 175.424V169.28L309.144 180.944V187.08Z" fill="#CED0DB"/>
<path d="M315.2 214.992L255.688 180.632V174.496L315.2 208.848V214.992Z" fill="#CED0DB"/>
<path d="M301.464 218.12L255.688 191.688V185.544L301.464 211.976V218.12Z" fill="#CED0DB"/>
<path d="M314.992 236.984L255.48 202.624V196.48L314.992 230.84V236.984Z" fill="#CED0DB"/>
<path d="M301.264 240.112L255.48 213.68V207.536L301.264 233.968V240.112Z" fill="#CED0DB"/>
<path d="M314.992 259.096L255.48 224.736V218.592L314.992 252.952V259.096Z" fill="#CED0DB"/>
<path d="M314.464 280.896L254.952 246.536V240.4L314.464 274.752V280.896Z" fill="#CED0DB"/>
<path d="M301.264 262.224L255.48 235.792V229.648L301.264 256.08V262.224Z" fill="#CED0DB"/>
<path d="M263.688 108.28C263.408 108.091 263.173 107.843 262.997 107.555C262.822 107.266 262.711 106.943 262.672 106.608L258.4 56.6237L255.04 78.0717C254.96 78.6077 254.52 78.7837 254.008 78.4877L245.84 73.7677C245.536 73.5677 245.284 73.2991 245.104 72.9837C244.923 72.6682 244.819 72.3148 244.8 71.9517C244.8 71.2877 245.272 71.0157 245.848 71.3437L253.128 75.5517L257.6 46.8797C257.68 46.3357 258.152 46.1677 258.664 46.4877C258.939 46.6794 259.171 46.9264 259.344 47.213C259.518 47.4996 259.629 47.8194 259.672 48.1517L263.864 97.3997L267.864 67.9117C267.936 67.3677 268.36 67.1837 268.864 67.4557C269.143 67.6326 269.382 67.8666 269.564 68.1424C269.746 68.4182 269.867 68.7295 269.92 69.0557L274.72 97.7997L279.392 60.1997C279.456 59.6397 279.904 59.4477 280.424 59.7437C280.701 59.9211 280.937 60.1555 281.117 60.4314C281.296 60.7074 281.414 61.0184 281.464 61.3437L287.016 110.08L291.624 86.0797C291.72 85.5837 292.136 85.4237 292.632 85.6877C293.154 86.0367 293.519 86.5767 293.648 87.1917L298.336 111.352L302.536 74.9837C302.6 74.4317 303.032 74.2237 303.552 74.5117C303.834 74.6849 304.075 74.918 304.258 75.1945C304.44 75.4709 304.56 75.784 304.608 76.1117L309.768 114.512L313.384 97.7117C313.48 97.2317 313.88 97.0717 314.352 97.3197C314.614 97.4782 314.841 97.6872 315.021 97.9344C315.201 98.1816 315.33 98.4622 315.4 98.7597L318.888 113.104L326.384 117.312C326.688 117.508 326.941 117.774 327.123 118.087C327.305 118.399 327.411 118.75 327.432 119.112C327.432 119.784 326.984 120.064 326.4 119.744L318.136 115.104C317.638 114.773 317.281 114.268 317.136 113.688L314.6 103.288L310.656 121.688C310.552 122.192 310.112 122.36 309.608 122.032C309.338 121.85 309.108 121.614 308.935 121.338C308.761 121.063 308.647 120.754 308.6 120.432L303.728 84.2157L299.728 118.896C299.664 119.432 299.256 119.64 298.752 119.384C298.473 119.219 298.233 118.997 298.047 118.732C297.86 118.467 297.733 118.166 297.672 117.848L292.8 92.5277L287.888 118.056C287.784 118.576 287.328 118.72 286.824 118.416C286.556 118.231 286.329 117.994 286.156 117.719C285.982 117.444 285.867 117.137 285.816 116.816L280.48 69.8877L276 105.752C275.936 106.296 275.512 106.496 275 106.224C274.722 106.045 274.484 105.81 274.301 105.535C274.118 105.26 273.994 104.949 273.936 104.624L269.136 75.6157L264.736 107.816C264.648 108.392 264.208 108.576 263.688 108.28Z" fill="#CED0DB"/>
<path d="M275.312 81.1359C276.984 78.4479 289.768 76.6799 293.968 87.5359C295.568 91.6399 295.32 102.136 296.656 108.736C297.992 115.336 301.128 119.064 302.256 124.416C303.384 129.768 301.544 138.728 288.656 140.312C275.768 141.896 265.848 137.376 262.808 133.264C259.768 129.152 259.696 120.416 262.864 115.728C266.032 111.04 268.424 107.216 268.352 101.112L275.312 81.1359Z" fill="#2B2A30"/>
<path d="M283.752 79.2718C283.752 79.2718 274.152 76.4958 268.296 81.6718C262.96 86.4238 263.408 92.8718 264.184 95.9358C264.96 98.9998 266.512 103.136 268.928 103.352C271.344 103.568 283.752 79.2718 283.752 79.2718Z" fill="#2B2A30"/>
<path d="M287.432 105.512C287.432 105.512 286.8 116.24 286.992 117.024C287.184 117.808 291.208 118.576 292.328 119.512C293.448 120.448 286.496 131.328 282.96 132.944C279.424 134.56 268.464 130.44 267.704 124.944C267.008 119.928 270.84 116.032 272.32 114.672C273.325 114.575 274.335 114.548 275.344 114.592L275.664 109.392C280.464 107.904 287.432 105.512 287.432 105.512Z" fill="#FFCEA9"/>
<path d="M261.496 125.776C261.432 125.48 259.896 126.344 259.856 126.368C259.816 126.392 259.096 153.888 257.736 156.376C254.312 162.224 245.208 172.104 244.984 173.216C244.312 176.552 246.248 173.56 249.376 173.216C251.136 173 261.464 162.544 263.776 160.16L263.92 160.248C263.92 160.152 263.92 160.064 263.96 159.976L264.264 159.664C264.348 158.926 264.372 158.182 264.336 157.44C268.632 127.544 263.352 125.552 261.496 125.776Z" fill="#FFCEA9"/>
<path d="M259.152 130L258.608 143.248L257.736 153.688C257.736 153.688 257.904 155.088 256.368 157.536C254.832 159.984 246.624 170.152 246.624 170.152L250.336 173.232L258.792 166.288L264.392 128.88L261.448 125.24L259.152 130Z" fill="white"/>
<path d="M288.904 118.072C291.912 118.536 295.36 120.144 295.832 121.792C296.384 123.72 297.576 132.792 294.968 139.696C292.36 146.6 290.6 150.992 289.104 153.96C289.104 153.96 276.064 159.56 265.552 153.032C265.552 153.032 264.832 145.64 264.752 141.68C255.048 133.216 263.344 122.776 271.56 114.672C272.543 114.571 273.534 114.557 274.52 114.632C274.52 114.632 267.192 123.304 272.288 128.232C283.24 124.928 285.408 120 288.904 118.072Z" fill="#F4F4F4"/>
<path d="M267.392 92.2238C268.48 85.3358 273.456 80.1278 280.56 80.5438C283.418 80.7005 286.155 81.7514 288.383 83.5479C290.611 85.3444 292.219 87.7957 292.979 90.5555C293.738 93.3152 293.611 96.2439 292.616 98.9277C291.621 101.611 289.807 103.915 287.432 105.512C287.184 106.556 286.816 107.568 286.336 108.528C283.816 111.456 277.128 113.328 274.92 113.328C273.016 113.328 271.368 111.568 269.584 108.608C265.856 102.464 266.8 95.6318 267.392 92.2238Z" fill="#FFCEA9"/>
<path d="M282.76 80.6719C287.744 81.6479 291.848 83.0719 293.2 87.9439C294.128 91.3119 295.336 97.7439 294.184 100.448L293.464 102.4L287.432 105.512C287.432 105.512 284.616 103.168 285.488 96.2879C285.46 95.3554 285.166 94.4503 284.64 93.6799C284.278 93.0273 284.008 92.3272 283.84 91.5999C283.232 89.6799 281.688 88.3999 279.928 87.3679C275.432 84.8479 268.856 87.0239 267.928 87.9359C270.936 81.7119 276.968 79.5359 282.76 80.6719Z" fill="#2B2A30"/>
<path d="M300.448 189.744C299.648 198.448 294.8 235.44 294.8 235.44C296.701 241.666 297.708 248.13 297.792 254.64C297.744 260.024 296.336 269.16 294.744 277.624L291.952 297.744L285.288 293.888L285.552 278.888C285.208 273.864 284.712 266.448 284.392 261.704C283.872 253.992 282.488 241.704 282.088 238.68C281.688 235.656 280.712 230.28 280.24 224.28C279.768 218.28 277.512 187.84 277.512 187.84L277.2 193.544C277.2 193.544 276.904 202.808 275.6 214.216C274.296 225.624 273.792 230.712 273.792 230.712C273.792 230.712 276.104 234.952 276.4 238.08C276.64 240.552 279.456 260.072 277.768 270.008L275.296 288.104L267.296 283.512L266.264 270.592C264.896 260.912 262.008 240.384 261.56 237.712C260.984 234.2 260.504 232.472 259.832 221.432C259.16 210.392 259.408 186.416 260.52 177.72C261.632 169.024 264.84 156.392 264.84 156.392C267.868 157.814 271.146 158.63 274.488 158.792C280.088 159.08 289.088 157.376 289.088 157.376C290.658 160.119 292.376 162.777 294.232 165.336C296.752 168.8 301.6 176.424 300.448 189.744Z" fill="#FFCEA9"/>
<path d="M289.104 153.96L296.592 169.008C296.592 169.008 308.024 185.736 296.176 228.744L298.4 242.008C298.4 242.008 276 256.408 260.984 242.008C260.984 242.008 255.776 202.264 258.544 183.936C260.081 173.395 262.416 162.987 265.528 152.8C265.528 152.8 269.2 156.856 288.104 154.176" fill="#E26161"/>
<path d="M271.592 114.672C271.592 114.672 260.504 116.48 259.152 130L261.688 127.464C261.688 127.464 267.904 118.056 271.592 114.672Z" fill="white"/>
<path d="M274.552 114.632C271.688 120.16 264.152 129.192 266.288 138.968C269.12 152 263.696 230.088 263.696 230.088C263.696 230.088 257.296 226.032 257.296 222.784C257.296 219.536 259.696 135.248 259.696 131.256C259.696 127.264 266.704 120.176 271.464 114.64C272.723 114.188 274.054 113.968 275.392 113.992C275.392 114.288 275.392 114.328 275.352 114.632C275.112 114.648 274.976 114.632 274.552 114.632Z" fill="white"/>
<path d="M225.136 186.176L250.736 171.296L269.12 181.912L243.512 196.792L225.136 186.176Z" fill="#F4F4F4"/>
<path d="M247.432 172.384C245.832 172.752 244.232 172.872 242.888 173.872C242.392 174.314 241.856 174.71 241.288 175.056C241.032 175.192 240.784 175.352 240.488 175.464C240.095 175.601 239.743 175.835 239.464 176.144C239.173 176.559 239.015 177.053 239.008 177.56C238.883 178.17 238.853 178.796 238.92 179.416C239.144 180.336 240.096 180.264 240.6 179.624C240.854 179.303 241.002 178.912 241.024 178.504C241.037 178.115 241.141 177.735 241.329 177.394C241.516 177.053 241.782 176.762 242.104 176.544L248.224 172.744C248.146 172.608 248.028 172.5 247.886 172.436C247.744 172.371 247.585 172.353 247.432 172.384Z" fill="#FFCEA9"/>
<path d="M297.176 138.448C297.176 138.448 296.968 161.416 297.808 168.848C298.648 176.28 309.248 198.056 299.912 227.6C298.536 229.2 297.272 232.44 285.512 233.8C278.496 233.8 275.952 232.728 275.952 232.728C275.952 232.728 278.664 183.184 274.728 139.68C274.728 127.68 285.048 129.072 286.96 115.776C296.072 120.032 296.08 121.376 296.08 121.376L297.176 138.448Z" fill="white"/>
<path opacity="0.1" d="M292.552 121.12C287.536 121.68 286.88 128.04 286.88 128.04L286.648 137.776C286.648 137.776 287.192 150.192 288.632 153.976L266.872 168.928L271.616 174.456C271.616 174.456 294.608 163.84 296.416 162.16C298.224 160.48 296.416 141 296.696 135.392C297.904 124.8 297.6 120.56 292.552 121.12Z" fill="black"/>
<path d="M296.152 126.504C295.304 123.024 292.576 124.144 290.232 122.104C284.784 129.808 288.4 150.648 289.136 152.872L268.24 166.192C267.904 166.416 267.184 166.856 266.84 167.072C264.944 168.216 261.296 170.2 259.072 170.456C256.976 170.696 255.872 173.656 253.648 173.904C253.478 173.91 253.313 173.965 253.175 174.064C253.037 174.163 252.93 174.301 252.87 174.459C252.809 174.618 252.797 174.792 252.834 174.957C252.872 175.123 252.957 175.274 253.08 175.392C253.976 176.256 256.368 175.544 258 173.632C257.996 173.68 257.996 173.728 258 173.776C257.994 174.155 258.122 174.524 258.362 174.817C258.603 175.11 258.939 175.308 259.312 175.376C259.312 175.514 259.351 175.65 259.424 175.768C259.539 176.012 259.714 176.222 259.932 176.38C260.15 176.538 260.405 176.639 260.672 176.672C260.783 177.029 261.016 177.336 261.331 177.539C261.645 177.742 262.02 177.829 262.392 177.784C262.868 177.757 263.317 177.551 263.648 177.208C265.43 176.522 267.004 175.387 268.216 173.912C269.292 172.805 270.425 171.753 271.608 170.76C277.28 168.32 294.288 161.056 295.048 160.024C296.152 158.496 297.36 131.472 296.152 126.504Z" fill="#FFCEA9"/>
<path d="M291.712 119.44C286.696 120 286.04 126.36 286.04 126.36L285.808 136.088C285.808 136.088 286.352 148.512 287.784 152.296L266.032 167.248L270.776 172.776C270.776 172.776 293.768 162.16 295.536 160.48C297.304 158.8 297.752 141.488 298.056 135.888C299.304 125.312 296.736 118.88 291.712 119.44Z" fill="white"/>
<path opacity="0.4" d="M135.84 383.536C157.693 383.536 175.408 373.306 175.408 360.688C175.408 348.069 157.693 337.84 135.84 337.84C113.987 337.84 96.272 348.069 96.272 360.688C96.272 373.306 113.987 383.536 135.84 383.536Z" fill="#D6D8E5"/>
<path d="M107.648 191.28C107.208 195.128 102.616 211.728 103.6 217.416C104.584 223.104 120.272 232.616 120.272 232.616L122.448 222.88L113.76 214.4L116.104 198.28L107.648 191.28Z" fill="#FFCEA9"/>
<path d="M119.784 174.919C117.544 173.951 113.384 173.735 111.048 177.559C108.712 181.383 106.344 194.487 106.128 196.759C106.128 196.759 109.368 201.231 114.224 200.487L119.784 174.919Z" fill="#EDEDED"/>
<path d="M137.696 360C141.11 360.939 144.757 360.497 147.848 358.768C150.288 358.84 163.56 353.168 165.368 357.928C166.968 362.112 161.2 365.976 158.128 366.728C151.424 368.328 146.464 371.696 143.768 372.264C141.768 372.688 139.168 372.968 137.568 371.392C135.656 369.504 135.816 362.504 137.696 360Z" fill="#38226D"/>
<path d="M143.768 371.112C146.464 370.552 151.424 367.208 158.128 365.584C160.704 364.96 165.136 362.144 165.584 358.784C166.176 362.632 160.992 366.048 158.128 366.736C151.424 368.336 146.464 371.704 143.768 372.272C141.768 372.696 139.168 372.976 137.568 371.4C137.155 370.941 136.854 370.394 136.688 369.8C139.024 371.736 141.768 371.536 143.768 371.112Z" fill="#9C73FF"/>
<path d="M116.168 350.344C119.581 351.291 123.23 350.851 126.32 349.12C128.768 349.192 142.032 343.52 143.84 348.32C145.44 352.504 139.672 356.368 136.6 357.12C129.896 358.72 124.936 362.088 122.248 362.656C120.24 363.08 117.64 363.36 116.048 361.776C114.128 359.84 114.296 352.84 116.168 350.344Z" fill="#38226D"/>
<path d="M122.248 361.448C124.936 360.88 129.896 357.544 136.6 355.92C139.176 355.296 143.608 352.472 144.056 349.12C144.656 352.968 139.464 356.384 136.6 357.072C129.896 358.672 124.936 362.04 122.248 362.608C120.24 363.032 117.64 363.312 116.048 361.728C115.629 361.274 115.327 360.724 115.168 360.128C117.496 362.064 120.24 361.872 122.248 361.448Z" fill="#9C73FF"/>
<path d="M115.904 314.287C116.478 309.359 117.504 304.493 118.968 299.751C118.968 299.751 118.056 287.2 117.6 275.312C117.08 261.815 112.4 249.935 116.088 239.167L157.736 248.431C157.736 248.431 155.216 302.239 154.656 308.751C154.355 313.82 153.735 318.865 152.8 323.855C150.896 334.303 147.808 359.151 147.808 359.151C143.4 361.711 137.624 360.295 137.624 360.295C137.624 360.295 137.944 328.871 138.224 321.343C138.568 312.151 138.848 312.855 138.848 312.855L137.472 289.967L136.576 278.575C136.576 278.575 135.424 286.935 134.672 294.399C134.016 300.911 132.448 306.799 130.672 318.911C129.152 329.424 126.672 350.543 126.672 350.543C122.272 353.103 116.272 350.983 116.272 350.983C116.272 350.983 114.712 323.407 115.904 314.287Z" fill="#8C50FF"/>
<path d="M121.984 175.144C125.184 175.304 127.52 176.12 127.92 175.144C128.259 173.506 128.499 171.85 128.64 170.184C128.272 169.264 127.96 168.28 127.96 168.28C123.96 165.824 122.72 161.52 122.192 156.512C121.304 147.944 125.928 140.44 134.496 139.544C142.552 138.744 148.48 144.344 150.056 152.144C150.912 155.976 152.608 163.232 150.312 169.544C149.032 173.072 147.384 175.872 145.728 176.416C144.135 176.37 142.545 176.231 140.968 176C140.968 176 140.544 178.4 140.248 179.904C139.952 181.408 140.072 182.24 143.112 184.12C146.152 186 138.512 189.84 133.512 189.464C128.512 189.088 122.912 186.072 121.368 182.84C119.664 179.28 119.808 175.04 121.984 175.144Z" fill="#FFCEA9"/>
<path d="M126.576 175.616C125.696 177.808 127.928 180.488 133.888 182.36C139.848 184.232 140.376 181.824 140.376 181.824C140.376 181.824 149.112 185.824 151.952 187.784C155.528 190.288 157.112 197.52 157.6 209.728C158.152 223.856 158.2 244.816 157.736 248.432C157.736 248.432 151.056 255.088 142.536 254.384C134.016 253.68 119.6 246.12 116.136 240.272C116.232 227.888 117.68 225.872 115.672 218.736C111.08 202.4 108.664 195.712 110.872 184.856C112.712 175.904 115.288 174.792 118.824 174.88C121.419 174.988 124.007 175.234 126.576 175.616Z" fill="#F4F4F4"/>
<path d="M171.04 221.408C164.024 223.176 162.376 218.752 161.44 215.088C159.208 206.216 158.008 198.208 156.344 193.176C154.384 187.24 152.344 186.288 149.448 185.136C146.056 183.776 143.144 186.64 144.272 194.192C145.608 203.136 147.36 209.392 150.672 219.992C151.544 222.752 153.496 227.664 156.432 230.032C160.048 232.96 165.504 232.832 173.752 230.784C177.272 229.904 181.128 227.8 187.784 224.696C189.568 223.896 190.984 223.312 194.384 221.712C197.784 220.112 201.384 217.448 203.184 214.848C204.984 212.248 205.216 211.024 204.848 210.432C204.392 209.688 203.576 209.848 202.616 210.944C201.231 212.794 199.52 214.378 197.568 215.616C197.568 215.616 199.784 213.328 200.984 211.84C202.061 210.521 202.954 209.062 203.64 207.504C204.272 205.984 202.968 203.928 201.976 205.008C200.984 206.088 200.512 207.192 198.696 209.368C197.737 210.525 196.644 211.564 195.44 212.464C196.566 210.946 197.569 209.341 198.44 207.664C199.592 205.312 199.576 204.104 199.528 203.312C199.48 202.52 198.36 201.576 197.312 203.072C196.36 204.424 195.712 206.536 193.544 208.832C191.944 210.496 190.576 211.456 190.536 210.992C190.496 210.528 191.504 209.616 192.08 207.68C192.656 205.744 192.08 203.68 191.008 203.472C189.936 203.264 190.144 203.312 189.28 205.12C188.416 206.928 187.104 208.272 186.08 210.92C185.192 213.248 184.792 214.192 183.192 215.888C181.52 217.696 177.712 219.728 171.04 221.408Z" fill="#FFCEA9"/>
<path d="M146.856 183.92C151.544 183.232 154.856 185.344 156.92 192.44C158.984 199.536 160.44 205.368 160.44 205.368C158.584 208.042 155.777 209.905 152.592 210.576C146.992 211.936 144.968 209.256 144.968 209.256C144.968 209.256 143.368 201.816 142.44 196.752C141.512 191.688 141.056 184.8 146.856 183.92Z" fill="#EDEDED"/>
<path d="M149.784 151.048C149.784 151.048 157.192 139.792 141.152 137.496C129.584 135.848 122.144 143.28 121.288 151.344C120.488 159.048 125.216 167.048 128.64 170.224C130.312 170.824 133.912 171.168 138.64 169.016C138.829 166.917 138.901 164.81 138.856 162.704C138.856 162.704 133.216 150.84 149.784 151.048Z" fill="#3A2C6D"/>
<path opacity="0.4" d="M43.664 289.776C54.259 289.776 62.848 284.815 62.848 278.696C62.848 272.576 54.259 267.616 43.664 267.616C33.0689 267.616 24.48 272.576 24.48 278.696C24.48 284.815 33.0689 289.776 43.664 289.776Z" fill="#D6D8E5"/>
<path d="M46.4 287.72C56.995 287.72 65.584 282.759 65.584 276.64C65.584 270.521 56.995 265.56 46.4 265.56C35.805 265.56 27.216 270.521 27.216 276.64C27.216 282.759 35.805 287.72 46.4 287.72Z" fill="#D6D8E5"/>
<path d="M20.72 238.768L27.432 277.408H65.536L72.088 239.048L20.72 238.768Z" fill="#D6D8E5"/>
<path d="M46.4 253.128C60.5959 253.128 72.104 246.484 72.104 238.288C72.104 230.092 60.5959 223.448 46.4 223.448C32.2041 223.448 20.696 230.092 20.696 238.288C20.696 246.484 32.2041 253.128 46.4 253.128Z" fill="#E4E6EF"/>
<path d="M46.4 249.856C40.104 249.856 34.232 248.472 29.864 245.952C26.12 243.784 23.968 240.992 23.968 238.288C23.968 235.584 26.12 232.792 29.864 230.632C34.224 228.112 40.104 226.72 46.4 226.72C52.696 226.72 58.576 228.112 62.944 230.632C66.688 232.792 68.832 235.584 68.832 238.288C68.832 240.992 66.688 243.784 62.944 245.952C58.576 248.472 52.704 249.856 46.4 249.856Z" fill="#28221C"/>
<path d="M57.464 226.6C57.464 226.6 56.96 195.272 46.4 184.2C33.512 195.544 35.552 226.648 35.552 226.648L46.56 246.648C48 246.696 57.464 226.6 57.464 226.6Z" fill="#99B524"/>
<path d="M46.56 246.624C46.56 246.624 40.696 209.088 18.904 194.984C18.904 194.984 15.016 246.4 46.56 246.624Z" fill="#A6CE28"/>
<path d="M46.4 246.624C46.4 246.624 51.688 209.824 72.928 196.544C72.928 196.544 77.944 246.4 46.4 246.624Z" fill="#A6CE28"/>
<path opacity="0.4" d="M273.96 400C284.542 400 293.12 395.047 293.12 388.936C293.12 382.826 284.542 377.872 273.96 377.872C263.378 377.872 254.8 382.826 254.8 388.936C254.8 395.047 263.378 400 273.96 400Z" fill="#D6D8E5"/>
<path d="M276.808 399.288C287.39 399.288 295.968 394.335 295.968 388.224C295.968 382.114 287.39 377.16 276.808 377.16C266.226 377.16 257.648 382.114 257.648 388.224C257.648 394.335 266.226 399.288 276.808 399.288Z" fill="#D9DCE8"/>
<path d="M257.648 388.048V382.496L263.736 384.536L257.648 388.048Z" fill="#D9DCE8"/>
<path d="M295.952 382.888V387.872L288.936 386.496L295.952 382.888Z" fill="#D9DCE8"/>
<path d="M276.808 393.6C287.39 393.6 295.968 388.647 295.968 382.536C295.968 376.426 287.39 371.472 276.808 371.472C266.226 371.472 257.648 376.426 257.648 382.536C257.648 388.647 266.226 393.6 276.808 393.6Z" fill="#EFF1F9"/>
<path d="M264.248 390.888L262.168 389.688L289.184 374.096L291.256 375.296L264.248 390.888Z" fill="#D3D6E2"/>
<path d="M262.168 389.688V395.368L264.056 396.488L264.32 396.616V390.888L262.168 389.688Z" fill="#C5C8D3"/>
<path opacity="0.4" d="M19.16 379.96C29.7418 379.96 38.32 375.006 38.32 368.896C38.32 362.786 29.7418 357.832 19.16 357.832C8.57822 357.832 0 362.786 0 368.896C0 375.006 8.57822 379.96 19.16 379.96Z" fill="#D6D8E5"/>
<path d="M22.008 379.248C32.5898 379.248 41.168 374.295 41.168 368.184C41.168 362.074 32.5898 357.12 22.008 357.12C11.4262 357.12 2.84799 362.074 2.84799 368.184C2.84799 374.295 11.4262 379.248 22.008 379.248Z" fill="#D9DCE8"/>
<path d="M2.84799 368V362.44L8.93599 364.488L2.84799 368Z" fill="#D9DCE8"/>
<path d="M41.152 362.848V367.832L34.136 366.448L41.152 362.848Z" fill="#D9DCE8"/>
<path d="M22.008 373.56C32.5898 373.56 41.168 368.607 41.168 362.496C41.168 356.386 32.5898 351.432 22.008 351.432C11.4262 351.432 2.84799 356.386 2.84799 362.496C2.84799 368.607 11.4262 373.56 22.008 373.56Z" fill="#EFF1F9"/>
<path d="M9.44795 370.848L7.37595 369.648L34.3839 354.056L36.4639 355.256L9.44795 370.848Z" fill="#D3D6E2"/>
<path d="M7.37595 369.648V375.328L9.25595 376.44L9.51995 376.576V370.848L7.37595 369.648Z" fill="#C5C8D3"/>
<path opacity="0.4" d="M375.088 368.92C385.67 368.92 394.248 363.966 394.248 357.856C394.248 351.746 385.67 346.792 375.088 346.792C364.506 346.792 355.928 351.746 355.928 357.856C355.928 363.966 364.506 368.92 375.088 368.92Z" fill="#D6D8E5"/>
<path d="M377.928 368.208C388.51 368.208 397.088 363.255 397.088 357.144C397.088 351.034 388.51 346.08 377.928 346.08C367.346 346.08 358.768 351.034 358.768 357.144C358.768 363.255 367.346 368.208 377.928 368.208Z" fill="#D9DCE8"/>
<path d="M358.776 356.968C358.776 356.92 358.776 351.408 358.776 351.408L364.872 353.456L358.776 356.968Z" fill="#D9DCE8"/>
<path d="M397.08 351.808V356.792L390.064 355.408L397.08 351.808Z" fill="#D9DCE8"/>
<path d="M377.928 362.52C388.51 362.52 397.088 357.567 397.088 351.456C397.088 345.346 388.51 340.392 377.928 340.392C367.346 340.392 358.768 345.346 358.768 351.456C358.768 357.567 367.346 362.52 377.928 362.52Z" fill="#EFF1F9"/>
<path d="M365.376 359.808L363.296 358.608L390.304 343.016L392.384 344.216L365.376 359.808Z" fill="#D3D6E2"/>
<path d="M363.296 358.608V364.288L365.184 365.4L365.448 365.536V359.808L363.296 358.608Z" fill="#C5C8D3"/>
</g>
<defs>
<clipPath id="clip0">
<rect width="397.088" height="400" fill="white"/>
</clipPath>
</defs>
</svg>
