<svg width="40" height="40" viewBox="0 0 40 40" fill="none" xmlns="http://www.w3.org/2000/svg">
<path d="M26.9138 16.7362C27.1494 16.295 27.3219 15.8169 27.4144 15.3119C27.6956 13.7713 27.2712 12.225 26.2506 11.0694C25.945 10.7231 25.6706 10.3531 25.4325 9.965C25.9475 9.49875 26.25 8.83625 26.25 8.125C26.25 6.9625 25.4525 5.9825 24.375 5.70375V1.25C24.375 0.905 24.0956 0.625 23.75 0.625H16.25C15.9044 0.625 15.625 0.905 15.625 1.25V6.35437C15.625 8.01375 14.9687 9.67625 13.7762 11.04C13.7662 11.0494 13.7575 11.0587 13.7487 11.0687C12.9437 11.9819 12.5 13.1562 12.5 14.375C12.5 15.2262 12.715 16.0281 13.0919 16.7306C12.3044 17.6375 11.875 18.7806 11.875 20C11.875 21.2131 12.3081 22.3575 13.0938 23.265C12.7156 23.9687 12.5 24.7719 12.5 25.625C12.5 26.7269 12.86 27.7825 13.5231 28.65C13.2637 29.0494 13.125 29.5131 13.125 30C13.125 31.3419 14.1875 32.4406 15.5156 32.4975C15.5881 32.8887 15.625 33.2731 15.625 33.6456V38.75C15.625 39.095 15.9044 39.375 16.25 39.375H23.75C24.0956 39.375 24.375 39.095 24.375 38.75V33.6456C24.375 31.9744 25.0406 30.2994 26.2494 28.9313C27.2713 27.775 27.695 26.2287 27.4137 24.6881C27.3219 24.1831 27.1494 23.705 26.9131 23.2638C27.6975 22.3575 28.125 21.2162 28.125 20C28.125 18.7831 27.6981 17.6419 26.9138 16.7362V16.7362ZM14.6619 11.9244C14.6706 11.9156 14.6787 11.9062 14.6875 11.8975C16.0981 10.3 16.875 8.33125 16.875 6.355V1.875H23.125V6.25C23.125 6.595 23.4044 6.875 23.75 6.875C24.4394 6.875 25 7.43562 25 8.125C25 8.58688 24.74 9.00937 24.3219 9.2275C24.0163 9.38687 23.8969 9.76375 24.0563 10.07C24.395 10.7212 24.8181 11.3362 25.3131 11.8969C26.0794 12.7637 26.3962 13.9269 26.185 15.0875C25.915 16.565 24.7438 17.755 23.2713 18.0475C22.5225 18.1981 21.7719 18.1256 21.0925 17.8494C21.9638 16.9494 22.5 15.7237 22.5 14.375H21.25C21.25 16.4431 19.5681 18.125 17.5 18.125C15.4319 18.125 13.75 16.4431 13.75 14.375C13.75 13.4737 14.0737 12.6044 14.6619 11.9244V11.9244ZM13.125 20C13.125 19.1875 13.3812 18.4219 13.8525 17.7838C14.7656 18.76 16.0612 19.375 17.5 19.375C18.4106 19.375 19.2644 19.13 20.0006 18.7038C21.0556 19.315 22.2856 19.5181 23.515 19.2744C24.5444 19.0694 25.4575 18.5331 26.1519 17.79C26.62 18.4263 26.875 19.19 26.875 20C26.875 20.81 26.62 21.5731 26.1519 22.2106C25.4575 21.4675 24.5444 20.9306 23.515 20.7262C22.2888 20.4825 21.0562 20.685 20.0006 21.2969C19.2644 20.8694 18.4106 20.625 17.5 20.625C16.0612 20.625 14.7663 21.2394 13.8538 22.215C13.3831 21.5762 13.125 20.8088 13.125 20V20ZM25.3125 28.1031C23.9019 29.7006 23.125 31.6694 23.125 33.6456V38.125H16.875V33.6456C16.875 33.0075 16.7869 32.3456 16.6131 31.6781C16.57 31.5106 16.4556 31.37 16.3038 31.2875C16.1725 31.2163 16.0188 31.1956 15.8738 31.2263C15.7925 31.2419 15.7088 31.25 15.625 31.25C14.9356 31.25 14.375 30.6894 14.375 30C14.375 29.6575 14.5144 29.3363 14.7675 29.0956C14.8875 28.9813 14.9581 28.8238 14.9625 28.6581C14.9663 28.4919 14.9044 28.3313 14.79 28.2113C14.1194 27.5088 13.75 26.5906 13.75 25.625C13.75 23.5569 15.4319 21.875 17.5 21.875C19.5681 21.875 21.25 23.5569 21.25 25.625H22.5C22.5 24.2763 21.9631 23.0506 21.0919 22.15C21.7713 21.8737 22.5219 21.8025 23.2706 21.9519C24.7431 22.245 25.9144 23.435 26.1844 24.9125C26.3963 26.0731 26.0787 27.2363 25.3125 28.1031V28.1031Z" fill="white"/>
<path d="M17.5 17.5V16.25C16.4662 16.25 15.625 15.4088 15.625 14.375H14.375C14.375 16.0981 15.7769 17.5 17.5 17.5Z" fill="white"/>
<path d="M14.375 25.625H15.625C15.625 24.5912 16.4662 23.75 17.5 23.75V22.5C15.7769 22.5 14.375 23.9019 14.375 25.625Z" fill="white"/>
<path d="M8.93091 12.9419L9.81479 12.058L11.69 13.9332L10.8061 14.8171L8.93091 12.9419Z" fill="white"/>
<path d="M8.92969 27.0562L10.8048 25.181L11.6887 26.0649L9.81357 27.94L8.92969 27.0562Z" fill="white"/>
<path d="M7.83691 17.4341L8.39566 16.3166L10.8944 17.5659L10.3356 18.6834L7.83691 17.4341Z" fill="white"/>
<path d="M7.83752 22.5586L10.3363 21.3092L10.895 22.4267L8.39627 23.6761L7.83752 22.5586Z" fill="white"/>
<path d="M28.3041 13.9346L30.1792 12.0594L31.0631 12.9433L29.188 14.8185L28.3041 13.9346Z" fill="white"/>
<path d="M28.3022 26.0679L29.1861 25.184L31.0613 27.0591L30.1774 27.943L28.3022 26.0679Z" fill="white"/>
<path d="M29.0793 17.5654L31.5781 16.3161L32.1368 17.4336L29.6381 18.6829L29.0793 17.5654Z" fill="white"/>
<path d="M29.0801 22.4419L29.6388 21.3244L32.1376 22.5738L31.5788 23.6913L29.0801 22.4419Z" fill="white"/>
</svg>
