<svg width="40" height="40" viewBox="0 0 40 40" fill="none" xmlns="http://www.w3.org/2000/svg">
<g clip-path="url(#clip0)">
<path d="M37.7231 31.4017H36.8787C36.5818 26.8436 36.9101 24.0335 37.3423 18.4286C37.367 18.1061 37.1256 17.8244 36.803 17.7994C36.4795 17.7737 36.1988 18.0157 36.1737 18.3386C35.745 23.8992 35.4105 26.7856 35.7047 31.4017H34.8694V28.548C34.8694 28.0853 34.4928 27.709 34.0302 27.709H30.8686C30.9079 25.6757 30.9369 25.5783 31.7188 14.6088C31.7417 14.2859 31.4987 14.0057 31.1759 13.9828C30.8527 13.9594 30.5728 14.2026 30.5497 14.5255L29.8398 24.4861C29.6765 26.7783 29.643 29.1013 29.7367 31.4017H27.1103C26.6477 31.4017 26.2714 31.7783 26.2714 32.2409V35.4678C26.2714 35.9305 26.6477 36.3071 27.1103 36.3071H27.3609C27.6844 36.3071 27.9468 36.0446 27.9468 35.7211C27.9468 35.4254 27.7277 35.181 27.4433 35.141V32.5735C30.5365 32.5735 30.3324 32.58 30.4514 32.5589C30.8344 32.4872 31.1359 32.149 31.1359 31.7343V28.8809H33.6975V31.7343C33.6975 32.197 34.0741 32.5735 34.5368 32.5735H37.3905V35.1352H34.5368C34.0741 35.1352 33.6975 35.5118 33.6975 35.9744V38.8281H31.1359V35.9744C31.1359 35.5118 30.7596 35.1352 30.2967 35.1352H30.0952C29.7715 35.1352 29.5093 35.3976 29.5093 35.7211C29.5093 35.9998 29.7037 36.2329 29.964 36.2924V38.8281H22.9431C22.9773 38.6734 23.0094 38.5175 23.042 38.3618H24.1559C24.4797 38.3618 24.7419 38.0994 24.7419 37.7759C24.7419 37.4521 24.4797 37.1899 24.1559 37.1899H23.27C23.4043 36.4337 23.4857 35.8865 23.5807 35.1266H24.6326C24.9561 35.1266 25.2185 34.8642 25.2185 34.5407C25.2185 34.2169 24.9561 33.9548 24.6326 33.9548H23.7097C23.7784 33.2291 23.8163 32.7002 23.8504 31.8906H24.8481C25.1718 31.8906 25.434 31.6284 25.434 31.3046C25.434 30.9811 25.1718 30.7187 24.8481 30.7187H23.8837C23.8941 29.9384 23.8867 29.4189 23.8568 28.6548H24.8069C25.1303 28.6548 25.3928 28.3923 25.3928 28.0688C25.3928 27.7451 25.1303 27.4829 24.8069 27.4829H23.7934C23.7439 26.7648 23.6927 26.1923 23.5993 25.4196H24.5099C24.8334 25.4196 25.0959 25.1572 25.0959 24.8337C25.0959 24.5099 24.8334 24.2477 24.5099 24.2477H23.4397C23.3243 23.4836 23.2148 22.8824 23.071 22.1835H23.9475C24.271 22.1835 24.5334 21.9214 24.5334 21.5976C24.5334 21.2741 24.271 21.0117 23.9475 21.0117H22.811C22.565 19.9744 22.5132 19.859 22.2815 18.9478H23.1403C23.4641 18.9478 23.7262 18.6853 23.7262 18.3618C23.7262 18.038 23.4641 17.7759 23.1403 17.7759H22.0056C21.8341 16.9861 21.7264 16.3953 21.6205 15.7126H22.5193C22.843 15.7126 23.1052 15.4501 23.1052 15.1266C23.1052 14.8029 22.843 14.5407 22.5193 14.5407H21.4588C21.3706 13.8116 21.3135 13.1726 21.2705 12.4765H22.2153C22.5391 12.4765 22.8012 12.2144 22.8012 11.8906C22.8012 11.5671 22.5391 11.3046 22.2153 11.3046H21.2177C21.1975 10.5966 21.1981 9.96307 21.221 9.24072H22.2199C22.5437 9.24072 22.8058 8.97827 22.8058 8.65479C22.8058 8.33099 22.5437 8.06885 22.2199 8.06885H21.2775C21.3205 7.3999 21.3788 6.75629 21.4719 6.00555H22.5342C22.8577 6.00555 23.1201 5.7431 23.1201 5.41962C23.1201 5.09583 22.8577 4.83368 22.5342 4.83368H21.6376C21.7533 4.10461 21.8708 3.4903 22.0298 2.76947H23.1678C23.4912 2.76947 23.7537 2.50732 23.7537 2.18353C23.7537 1.86005 23.4912 1.5976 23.1678 1.5976H22.3099C22.3667 1.37695 22.3481 1.44196 22.4204 1.17188H24.3457V3.12805C24.3457 3.93829 25.0049 4.59778 25.8152 4.59778H31.2152C34.2893 4.59778 36.7914 7.0929 36.8033 10.1648L36.3834 15.6122C36.3571 15.9515 36.6251 16.243 36.9681 16.243C37.2711 16.243 37.5281 16.0095 37.5516 15.7022C38.0008 9.87671 37.9752 10.2213 37.9752 10.1868C37.9752 6.45874 34.9427 3.4259 31.2152 3.4259H25.8152C25.651 3.4259 25.5176 3.29224 25.5176 3.12805V0.585938C25.5176 0.262451 25.2552 0 24.9317 0C23.8236 0 15.5118 0 14.451 0C14.1275 0 13.8651 0.262451 13.8651 0.585938V3.12805C13.8651 3.29224 13.7317 3.4259 13.5675 3.4259H13.1003C12.7765 3.4259 12.5144 3.68805 12.5144 4.01184C12.5144 4.33533 12.7765 4.59778 13.1003 4.59778H13.5675C14.3778 4.59778 15.037 3.93829 15.037 3.12805V1.17188H17.5C17.4665 1.31348 17.4338 1.45538 17.4018 1.5976H16.2769C15.9534 1.5976 15.6909 1.86005 15.6909 2.18353C15.6909 2.50732 15.9534 2.76947 16.2769 2.76947H17.1573C17.0081 3.54218 16.9165 4.11224 16.8161 4.83368H15.7529C15.4291 4.83368 15.167 5.09583 15.167 5.41962C15.167 5.7431 15.4291 6.00555 15.7529 6.00555H16.6703C16.5869 6.76727 16.5436 7.29034 16.4994 8.06885H15.4914C15.1676 8.06885 14.9054 8.33099 14.9054 8.65479C14.9054 8.97827 15.1676 9.24072 15.4914 9.24072H16.4499C16.4286 10.0143 16.4279 10.5371 16.4466 11.3046H15.4865C15.1627 11.3046 14.9005 11.5671 14.9005 11.8906C14.9005 12.2144 15.1627 12.4765 15.4865 12.4765H16.4926C16.5299 13.1665 16.5677 13.699 16.6568 14.5407H15.7389C15.4154 14.5407 15.1529 14.8029 15.1529 15.1266C15.1529 15.4501 15.4154 15.7126 15.7389 15.7126H16.7997C16.8994 16.4456 16.9898 17.0169 17.1347 17.7759H16.2543C15.9308 17.7759 15.6684 18.038 15.6684 18.3618C15.6684 18.6853 15.9308 18.9478 16.2543 18.9478H17.3764C17.5556 19.7537 17.7011 20.3079 17.8897 21.0117H17.0349C16.7111 21.0117 16.449 21.2741 16.449 21.5976C16.449 21.9214 16.7111 22.1835 17.0349 22.1835H18.1864C18.3573 22.9099 18.4864 23.5486 18.6066 24.2477H17.7146C17.3911 24.2477 17.1286 24.5099 17.1286 24.8337C17.1286 25.1572 17.3911 25.4196 17.7146 25.4196H18.7882C18.8916 26.1707 18.9588 26.8225 19.0103 27.4829H18.0731C17.7494 27.4829 17.4872 27.7451 17.4872 28.0688C17.4872 28.3923 17.7494 28.6548 18.0731 28.6548H19.0824C19.112 29.3219 19.1242 29.9542 19.1129 30.7187H18.1232C17.7994 30.7187 17.5373 30.9811 17.5373 31.3046C17.5373 31.6284 17.7994 31.8906 18.1232 31.8906H19.076C19.0433 32.5711 18.9963 33.2062 18.9157 33.9548H17.8644C17.5409 33.9548 17.2785 34.2169 17.2785 34.5407C17.2785 34.8642 17.5409 35.1266 17.8644 35.1266H18.7696C18.6646 35.8691 18.5532 36.5067 18.4143 37.1899H17.2895C16.9657 37.1899 16.7035 37.4521 16.7035 37.7759C16.7035 38.0994 16.9657 38.3618 17.2895 38.3618H18.1552C18.118 38.5178 18.0799 38.6734 18.0405 38.8281H8.91757L9.15072 37.0865C9.7095 32.9193 9.84103 28.6798 9.54226 24.4864L8.83212 14.5258C8.80923 14.2029 8.52908 13.9587 8.2059 13.9828C7.88333 14.0057 7.6401 14.2862 7.6633 14.6088L8.37314 24.5694C8.66641 28.6835 8.53732 32.8424 7.98923 36.9308L7.73501 38.8281H3.06064C2.87112 38.8281 2.72799 38.6566 2.76217 38.4695L2.89767 37.7328C3.74179 33.1454 3.98776 28.461 3.62948 23.8101L2.57876 10.1645C2.59067 7.0929 5.09311 4.59778 8.16714 4.59778H10.3659C10.6894 4.59778 10.9519 4.33563 10.9519 4.01184C10.9519 3.68835 10.6894 3.4259 10.3659 3.4259H8.16714C4.43942 3.4259 1.40689 6.45874 1.40689 10.1865C1.40689 10.2225 1.34891 9.45557 2.46127 23.9001C2.81161 28.45 2.57083 33.0328 1.74533 37.5211L1.60983 38.2574C1.4429 39.165 2.13992 40 3.06064 40H36.3211C37.2437 40 37.9389 39.1632 37.7722 38.2578C37.6285 37.4777 37.5522 37.0792 37.4292 36.3071H37.7228C38.1858 36.3071 38.562 35.9308 38.562 35.4678V32.2412C38.5623 31.7783 38.1858 31.4017 37.7231 31.4017V31.4017ZM18.0609 4.40735H20.5188C20.4129 5.04822 20.3128 5.77087 20.2378 6.47125H17.7979C17.8672 5.78094 17.955 5.09033 18.0609 4.40735ZM17.6984 7.64313H20.1316C20.0812 8.31848 20.0479 9.05548 20.0367 9.70703H17.6099C17.6212 9.01978 17.6508 8.32916 17.6984 7.64313ZM20.0354 10.8789C20.0461 11.564 20.0766 12.2546 20.1267 12.9428H17.6929C17.6465 12.258 17.6184 11.5674 17.6087 10.8789H20.0354ZM20.2304 14.1147C20.2979 14.7565 20.3968 15.5032 20.5072 16.1786H18.0484C17.9444 15.4971 17.858 14.8065 17.7899 14.1147H20.2304ZM20.7187 17.3502C20.8475 18.0014 21.0196 18.7576 21.1896 19.4141H18.6872C18.5215 18.7292 18.3741 18.0386 18.2465 17.3502H20.7187ZM21.5006 20.5859C21.6748 21.264 21.8323 21.955 21.9709 22.6498H19.4922C19.3042 21.77 19.1312 21.1172 18.9887 20.5859H21.5006ZM22.1857 23.8217C22.2998 24.505 22.3966 25.1956 22.4741 25.8856H20.0299C19.9503 25.2228 19.8368 24.4629 19.722 23.8217H22.1857ZM22.5876 27.0572C22.6441 27.7454 22.6819 28.436 22.7014 29.1211H20.2729C20.2536 28.4851 20.2112 27.7444 20.1514 27.0572H22.5876ZM20.2249 32.3569C20.2674 31.6415 20.2872 30.9546 20.289 30.293H22.7164C22.7149 30.9778 22.6944 31.6684 22.656 32.3569C22.0725 32.3569 20.7749 32.3569 20.2249 32.3569ZM20.1361 33.5287H22.5727C22.5132 34.2172 22.435 34.9078 22.3386 35.5927H19.8862C19.9903 34.9002 20.0782 34.1589 20.1361 33.5287V33.5287ZM21.2076 1.17188C21.0489 1.77948 20.8737 2.5296 20.7328 3.23578C19.8679 3.23578 19.8438 3.23578 18.2611 3.23578C18.3905 2.5412 18.5392 1.85059 18.7046 1.17188H21.2076ZM19.6906 36.7642H22.1555C22.0359 37.4588 21.8979 38.1494 21.7426 38.8281H19.2484C19.4059 38.1857 19.5685 37.4271 19.6906 36.7642V36.7642ZM36.6196 38.4695C36.6541 38.6563 36.511 38.8281 36.3211 38.8281H34.8694V36.3071H36.2427C36.3761 37.1634 36.4691 37.6517 36.6196 38.4695V38.4695Z" fill="white"/>
</g>
<defs>
<clipPath id="clip0">
<rect width="40" height="40" fill="white"/>
</clipPath>
</defs>
</svg>
