<svg width="40" height="40" viewBox="0 0 40 40" fill="none" xmlns="http://www.w3.org/2000/svg">
<path d="M39.375 5.62492C39.375 2.86805 37.1319 0.624923 34.375 0.624923C31.6181 0.624923 29.375 2.86805 29.375 5.62492C29.375 7.71867 30.67 9.51305 32.5 10.2568V29.3118C32.5 32.793 29.6681 35.6249 26.1869 35.6249H22.5625C19.2681 35.6249 16.555 33.088 16.2738 29.8655C23.0706 28.9337 28.125 23.1812 28.125 16.2499V9.09742C28.125 7.0943 27.345 5.21117 25.9281 3.7943L25.58 3.44617C24.2025 2.06805 22.3819 1.29867 20.44 1.25742C20.365 1.12867 20.275 1.00867 20.1581 0.911173C19.8781 0.676798 19.5113 0.579923 19.1613 0.643673L17.0638 1.02055C16.2306 1.17055 15.625 1.9243 15.625 2.81242C15.625 3.70055 16.2306 4.4543 17.0644 4.6043L19.1613 4.98117C19.2325 4.99367 19.3044 4.99992 19.3756 4.99992C19.6581 4.99992 19.9356 4.89992 20.1588 4.71367C20.2725 4.61867 20.3612 4.50117 20.4356 4.37555C21.6019 4.37742 22.6975 4.8318 23.5231 5.65742L23.7188 5.85242C24.5444 6.67867 25 7.77742 25 8.94617V15.6249C24.6544 15.6249 24.375 15.9049 24.375 16.2499C24.375 21.7637 19.8887 26.2499 14.375 26.2499C8.86125 26.2499 4.375 21.7637 4.375 16.2499C4.375 15.9049 4.09562 15.6249 3.75 15.6249V8.94555C3.75 7.7768 4.20562 6.67867 5.03062 5.85242L5.2275 5.65617C6.0525 4.83117 7.14813 4.3768 8.31438 4.37492C8.38875 4.50055 8.47688 4.61805 8.59125 4.71305C8.815 4.89992 9.09187 4.99992 9.37437 4.99992C9.44562 4.99992 9.5175 4.99367 9.58812 4.98117L11.6856 4.6043C12.5194 4.4543 13.125 3.70055 13.125 2.81242C13.125 1.9243 12.5194 1.17055 11.6856 1.02055L9.58875 0.643673C9.235 0.581173 8.87188 0.677423 8.59125 0.911173C8.475 1.00867 8.38438 1.12867 8.30938 1.25742C6.3675 1.2993 4.54688 2.06867 3.16938 3.4468L2.82187 3.7943C1.405 5.21117 0.625 7.09492 0.625 9.09742V16.2499C0.625 23.1949 5.69813 28.9562 12.515 29.8712C12.8063 35.1605 17.2013 39.3749 22.5631 39.3749H26.1875C31.7356 39.3749 36.25 34.8605 36.25 29.3118V10.2568C38.08 9.51305 39.375 7.71867 39.375 5.62492V5.62492ZM17.285 3.37367C17.0513 3.3318 16.875 3.09055 16.875 2.81242C16.875 2.5343 17.0513 2.29305 17.285 2.25117L19.3562 1.87055C19.3562 1.87055 19.3744 1.88492 19.3744 1.92367L19.3831 3.74992L17.285 3.37367ZM11.465 2.25117C11.6987 2.29305 11.875 2.5343 11.875 2.81242C11.875 3.09055 11.6987 3.3318 11.465 3.37367L9.375 3.70117V1.92367L9.36688 1.87492L11.465 2.25117ZM24.6019 4.96805L24.4062 4.77242C23.3906 3.7568 22.0538 3.18305 20.625 3.1343V2.5168C22.1637 2.60117 23.5987 3.23242 24.6969 4.33055L25.045 4.67867C26.225 5.8593 26.875 7.42867 26.875 9.09742V15.6249H26.25V8.94555C26.25 7.44367 25.665 6.03117 24.6019 4.96805V4.96805ZM3.70562 4.67805L4.05375 4.32992C5.15125 3.23242 6.58625 2.60117 8.125 2.5168V3.1343C6.69625 3.18305 5.35938 3.75617 4.34438 4.7718L4.1475 4.96867C3.085 6.03117 2.5 7.44367 2.5 8.94555V15.6249H1.875V9.09742C1.875 7.42867 2.525 5.8593 3.70562 4.67805ZM26.1869 38.1249H22.5625C17.7031 38.1249 13.75 34.1712 13.75 29.3118C13.75 28.9893 13.5044 28.7199 13.1837 28.6893C6.945 28.0993 2.19125 23.0731 1.89 16.8749H3.14187C3.4675 22.7887 8.38125 27.4999 14.375 27.4999C20.3688 27.4999 25.2825 22.7887 25.6081 16.8749H26.86C26.5594 23.0731 21.805 28.0993 15.5669 28.6893C15.2456 28.7199 15 28.9893 15 29.3118C15 33.4818 18.3931 36.8749 22.5631 36.8749H26.1875C30.3569 36.8749 33.75 33.4818 33.75 29.3118V13.1249H35V29.3118C35 34.1712 31.0469 38.1249 26.1869 38.1249ZM35 11.8749H33.75V10.5818C33.955 10.6074 34.1631 10.6249 34.375 10.6249C34.5869 10.6249 34.795 10.6074 35 10.5818V11.8749ZM34.375 9.37492C32.3069 9.37492 30.625 7.69305 30.625 5.62492C30.625 3.5568 32.3069 1.87492 34.375 1.87492C36.4431 1.87492 38.125 3.5568 38.125 5.62492C38.125 7.69305 36.4431 9.37492 34.375 9.37492Z" fill="white"/>
<path d="M34.375 2.5C32.6519 2.5 31.25 3.90188 31.25 5.625C31.25 7.34812 32.6519 8.75 34.375 8.75C36.0981 8.75 37.5 7.34812 37.5 5.625C37.5 3.90188 36.0981 2.5 34.375 2.5ZM34.375 7.5C33.3412 7.5 32.5 6.65875 32.5 5.625C32.5 4.59125 33.3412 3.75 34.375 3.75C35.4088 3.75 36.25 4.59125 36.25 5.625C36.25 6.65875 35.4088 7.5 34.375 7.5Z" fill="white"/>
</svg>
