<svg width="40" height="40" viewBox="0 0 40 40" fill="none" xmlns="http://www.w3.org/2000/svg">
<path d="M37.565 3.6507C36.9445 3.04649 36.1097 2.71301 35.2436 2.72338C34.3775 2.73375 33.5509 3.08712 32.945 3.70601L12.7647 23.8866C12.6993 23.9519 12.6515 24.0328 12.6258 24.1216C12.6001 24.2104 12.5974 24.3042 12.6178 24.3944C12.6383 24.4845 12.6814 24.568 12.7429 24.637C12.8044 24.706 12.8825 24.7582 12.9697 24.7888L13.2597 24.8907L1.66878 36.3441C1.5911 36.4202 1.53788 36.5178 1.51591 36.6243C1.49394 36.7308 1.50423 36.8414 1.54546 36.9421C1.58668 37.0427 1.65698 37.1288 1.74736 37.1893C1.83774 37.2497 1.94409 37.2819 2.05285 37.2816H2.08222L3.49785 37.2066C6.02877 37.0727 8.42046 36.0063 10.2116 34.2132L11.3944 33.0304C11.9045 32.5207 12.2055 31.8386 12.2382 31.1182C12.2584 30.673 12.4432 30.2511 12.7569 29.9344L16.7066 26.1032L18.5797 26.7619C18.6769 26.7961 18.7818 26.8021 18.8822 26.7793C18.9827 26.7564 19.0747 26.7057 19.1475 26.6329L37.5097 8.2707C38.1287 7.66483 38.4821 6.83821 38.4925 5.97213C38.5028 5.10606 38.1693 4.27121 37.565 3.6507V3.6507ZM11.9885 29.1507C11.4784 29.6609 11.1775 30.3434 11.1447 31.0641C11.1244 31.5124 10.9372 31.9368 10.62 32.2541L9.43878 33.4354C7.84365 35.0323 5.71528 35.9844 3.4616 36.1091L14.4063 25.2944L15.5522 25.6976L11.9885 29.1507ZM36.7363 7.49726L18.6178 25.616L14.1522 24.0454L33.7188 4.47945C34.1194 4.06538 34.6679 3.82701 35.244 3.81659C35.8201 3.80616 36.3768 4.02452 36.7922 4.42382C37.1916 4.83921 37.4099 5.39599 37.3994 5.9721C37.3889 6.54822 37.1505 7.09668 36.7363 7.49726V7.49726Z" fill="white"/>
<path d="M33.3541 5.76219C33.1466 5.96979 33.0052 6.23428 32.9479 6.52222C32.8907 6.81015 32.9201 7.1086 33.0324 7.37982C33.1448 7.65104 33.3351 7.88286 33.5792 8.04595C33.8233 8.20905 34.1102 8.2961 34.4038 8.2961C34.6974 8.2961 34.9844 8.20905 35.2285 8.04595C35.4726 7.88286 35.6628 7.65104 35.7752 7.37982C35.8875 7.1086 35.9169 6.81015 35.8597 6.52222C35.8024 6.23428 35.6611 5.96979 35.4535 5.76219C35.1749 5.48423 34.7974 5.32812 34.4038 5.32812C34.0102 5.32812 33.6327 5.48423 33.3541 5.76219ZM34.6801 7.08813C34.6057 7.1591 34.5068 7.19869 34.404 7.19869C34.3012 7.19869 34.2023 7.1591 34.1279 7.08813C34.0732 7.03351 34.036 6.96391 34.0209 6.88813C34.0058 6.81234 34.0135 6.73378 34.043 6.66239C34.0726 6.59099 34.1227 6.52996 34.1869 6.48702C34.2512 6.44409 34.3267 6.42117 34.404 6.42117C34.4812 6.42117 34.5568 6.44409 34.621 6.48702C34.6853 6.52996 34.7353 6.59099 34.7649 6.66239C34.7945 6.73378 34.8022 6.81234 34.7871 6.88813C34.772 6.96391 34.7347 7.03351 34.6801 7.08813V7.08813Z" fill="white"/>
<path d="M22.8562 17.0337C22.8055 16.9829 22.7452 16.9426 22.6789 16.9151C22.6125 16.8877 22.5414 16.8735 22.4697 16.8735C22.3979 16.8735 22.3268 16.8877 22.2605 16.9151C22.1941 16.9426 22.1339 16.9829 22.0831 17.0337C22.0323 17.0844 21.9921 17.1447 21.9646 17.211C21.9371 17.2773 21.923 17.3484 21.923 17.4202C21.923 17.492 21.9371 17.5631 21.9646 17.6294C21.9921 17.6957 22.0323 17.756 22.0831 17.8068L23.4087 19.133C23.5113 19.2356 23.6504 19.2932 23.7954 19.2932C23.9405 19.2932 24.0796 19.2356 24.1822 19.133C24.2847 19.0305 24.3423 18.8914 24.3423 18.7463C24.3423 18.6013 24.2847 18.4622 24.1822 18.3596L22.8562 17.0337Z" fill="white"/>
<path d="M21.3647 18.5248C21.3143 18.4726 21.2539 18.4309 21.1872 18.4023C21.1205 18.3736 21.0487 18.3585 20.9761 18.3579C20.9035 18.3573 20.8315 18.3712 20.7643 18.3987C20.697 18.4262 20.636 18.4668 20.5847 18.5182C20.5333 18.5695 20.4927 18.6306 20.4652 18.6978C20.4378 18.765 20.4239 18.837 20.4246 18.9096C20.4252 18.9823 20.4403 19.054 20.469 19.1207C20.4977 19.1875 20.5394 19.2478 20.5916 19.2982L21.9172 20.6251C22.0198 20.7277 22.1589 20.7853 22.3039 20.7853C22.449 20.7853 22.5881 20.7277 22.6907 20.6251C22.7932 20.5225 22.8508 20.3834 22.8508 20.2384C22.8508 20.0933 22.7932 19.9542 22.6907 19.8517L21.3647 18.5248Z" fill="white"/>
<path d="M19.8732 20.0166C19.7707 19.914 19.6316 19.8564 19.4866 19.8564C19.3416 19.8564 19.2026 19.914 19.1001 20.0166C18.9975 20.1191 18.9399 20.2581 18.9399 20.4031C18.9399 20.5481 18.9975 20.6872 19.1001 20.7897L20.4257 22.1159C20.4755 22.1704 20.5358 22.2143 20.603 22.2448C20.6703 22.2754 20.743 22.292 20.8168 22.2937C20.8906 22.2954 20.964 22.2821 21.0325 22.2547C21.1011 22.2272 21.1634 22.1862 21.2156 22.134C21.2679 22.0819 21.309 22.0197 21.3366 21.9512C21.3642 21.8827 21.3776 21.8093 21.3761 21.7355C21.3745 21.6617 21.358 21.589 21.3276 21.5217C21.2972 21.4544 21.2535 21.394 21.1991 21.3441L19.8732 20.0166Z" fill="white"/>
</svg>
