<svg width="40" height="40" viewBox="0 0 40 40" fill="none" xmlns="http://www.w3.org/2000/svg">
<g clip-path="url(#clip0)">
<path d="M39.4862 7.14367L32.8571 0.514531C32.1717 -0.170859 31.0565 -0.170859 30.3712 0.514531C29.6858 1.19992 29.6858 2.31508 30.3712 3.00047L31.6141 4.24344L29.1282 6.72937L28.7139 6.31508C28.4851 6.08625 28.1141 6.08625 27.8852 6.31508L26.6423 7.55805L22.9133 3.82914C22.228 3.14375 21.1128 3.14375 20.4274 3.82914C19.742 4.51453 19.742 5.62969 20.4274 6.31508L24.1563 10.044L12.1411 22.0591C11.9123 22.288 11.9123 22.659 12.1411 22.8878L13.3841 24.1308L12.5554 24.9595C11.87 24.2741 10.7548 24.2741 10.0694 24.9595C9.52952 25.4994 9.41686 26.3054 9.72765 26.9585L6.34054 30.3456C5.56976 31.1164 5.44913 32.295 5.97866 33.1934L0.171865 39.0002C-0.0569629 39.229 -0.0569629 39.6 0.171865 39.8288C0.400693 40.0577 0.771631 40.0577 1.00054 39.8288L6.80733 34.022C7.70577 34.5516 8.88436 34.4309 9.65515 33.6602L13.0423 30.273C13.6954 30.5838 14.5014 30.4712 15.0413 29.9313C15.7267 29.2459 15.7267 28.1307 15.0413 27.4453L15.87 26.6166L17.113 27.8596C17.3418 28.0884 17.7128 28.0884 17.9416 27.8596L29.9569 15.8443L33.6858 19.5732C34.3712 20.2586 35.4864 20.2586 36.1718 19.5732C36.8572 18.8878 36.8571 17.7727 36.1718 17.0873L32.4429 13.3584L33.6858 12.1154C33.9147 11.8866 33.9147 11.5156 33.6858 11.2867L33.2715 10.8724L35.7575 8.38648L37.0005 9.62945C37.6858 10.3148 38.801 10.3148 39.4864 9.62945C40.1715 8.94414 40.1716 7.82898 39.4862 7.14367V7.14367ZM20.0131 15.8444L24.1563 19.9876L22.499 21.6448L18.3558 17.5016L20.0131 15.8444ZM8.82647 32.8315C8.3696 33.2884 7.62616 33.2884 7.16921 32.8315C6.71226 32.3745 6.71226 31.6311 7.16921 31.1742L10.4837 27.8597L12.141 29.517L8.82647 32.8315ZM14.2126 29.1026C13.9842 29.331 13.6125 29.331 13.384 29.1026L10.898 26.6166C10.6696 26.3882 10.6696 26.0165 10.898 25.788C11.1265 25.5595 11.4982 25.5595 11.7267 25.788L14.2126 28.2739C14.4412 28.5024 14.4412 28.8741 14.2126 29.1026V29.1026ZM14.2126 26.6167L13.384 25.788L14.2126 24.9594L15.0413 25.788L14.2126 26.6167ZM17.5273 26.6167L13.3841 22.4735L17.5273 18.3303L21.6705 22.4735L17.5273 26.6167ZM35.343 18.7446C35.1145 18.973 34.7428 18.973 34.5143 18.7446L27.0566 11.2869C26.8277 11.058 26.4567 11.058 26.2279 11.2869C25.999 11.5157 25.999 11.8867 26.2279 12.1155L29.1281 15.0158L24.9849 19.159L20.8417 15.0158L25.3992 10.4583C25.628 10.2295 25.628 9.85844 25.3992 9.62961L21.256 5.48641C21.0276 5.25797 21.0276 4.88625 21.256 4.65773C21.4844 4.4293 21.8562 4.4293 22.0847 4.65773L35.343 17.916C35.5715 18.1445 35.5715 18.5162 35.343 18.7446V18.7446ZM27.4709 8.38656L28.2996 7.55789L32.4428 11.7011L31.6141 12.5298L27.4709 8.38656ZM32.4427 10.0439L29.9568 7.55797L32.4427 5.07203L34.9287 7.55797L32.4427 10.0439ZM38.6576 8.80094C38.4291 9.02938 38.0574 9.02938 37.8289 8.80094L31.1998 2.1718C30.9713 1.94336 30.9713 1.57164 31.1998 1.34313C31.4282 1.11469 31.7999 1.11469 32.0284 1.34313L38.6576 7.97227C38.886 8.20078 38.886 8.57242 38.6576 8.80094V8.80094Z" fill="white"/>
</g>
<defs>
<clipPath id="clip0">
<rect width="40" height="40" fill="white"/>
</clipPath>
</defs>
</svg>
