<svg width="40" height="40" viewBox="0 0 40 40" fill="none" xmlns="http://www.w3.org/2000/svg">
<path d="M36.875 30.4167V21.875C36.875 21.7929 36.8588 21.7117 36.8274 21.6358C36.796 21.56 36.75 21.4911 36.692 21.4331L33.3839 18.125H35.625C35.7459 18.125 35.8642 18.09 35.9656 18.0241C36.067 17.9582 36.1471 17.8643 36.1962 17.7538L38.6962 12.1288C38.7332 12.0455 38.7516 11.9551 38.7499 11.8639C38.7483 11.7727 38.7267 11.683 38.6867 11.601C38.6468 11.5191 38.5893 11.4468 38.5185 11.3894C38.4476 11.332 38.365 11.2908 38.2766 11.2687L35.7766 10.6437C35.6386 10.6092 35.493 10.6228 35.3639 10.6822C35.2347 10.7416 35.1296 10.8433 35.066 10.9705L33.3637 14.375H26.25C26.0842 14.375 25.9253 14.4409 25.8081 14.5581C25.6908 14.6753 25.625 14.8343 25.625 15V17.5C25.625 17.6658 25.6908 17.8248 25.8081 17.942C25.9253 18.0592 26.0842 18.125 26.25 18.125H28.4911L33.125 22.7589V30.3985L30.3323 33.75H26.327L26.4016 33.7313C26.4851 33.7105 26.5634 33.6725 26.6316 33.62C26.6999 33.5674 26.7565 33.5013 26.7979 33.4258C26.8393 33.3503 26.8647 33.2671 26.8725 33.1813C26.8803 33.0955 26.8702 33.0091 26.843 32.9274L26.218 31.0524C26.1765 30.9279 26.0969 30.8197 25.9905 30.743C25.884 30.6663 25.7562 30.625 25.625 30.625H23.6023L21.853 24.211C21.8421 24.1712 21.8274 24.1327 21.809 24.0959L18.75 17.9774V16.0969L19.9158 16.7877C20.0122 16.8449 20.1223 16.875 20.2344 16.875H21.9531C22.0967 16.875 22.236 16.8256 22.3474 16.735C22.4589 16.6443 22.5357 16.5181 22.565 16.3775L22.9556 14.5025C22.9732 14.418 22.9731 14.3307 22.9553 14.2462C22.9376 14.1618 22.9024 14.0819 22.8522 14.0116C22.802 13.9414 22.7378 13.8823 22.6636 13.8381C22.5895 13.7939 22.5069 13.7656 22.4213 13.7549L20.7959 13.5517L19.3547 11.7744C19.5701 11.4104 19.6835 10.9951 19.6829 10.5722C19.6823 10.1492 19.5678 9.73426 19.3513 9.37088L18.125 7.32682V6.87502H18.2812C18.5712 6.87471 18.8493 6.75938 19.0543 6.55433C19.2594 6.34928 19.3747 6.07126 19.375 5.78127V3.46033C19.3746 3.14283 19.3007 2.82972 19.1591 2.54557C18.9733 2.17129 18.6904 1.85386 18.3398 1.62655C17.9892 1.39924 17.5839 1.27043 17.1664 1.25361C17.1475 1.25103 17.1284 1.24982 17.1094 1.25002H15.0759C14.5732 1.24865 14.0753 1.34699 13.611 1.53933C13.1466 1.73167 12.725 2.0142 12.3705 2.37057C12.1319 2.61051 11.8481 2.80073 11.5354 2.93023C11.2228 3.05973 10.8875 3.12594 10.5491 3.12502H8.75C8.62638 3.12502 8.50554 3.16167 8.40276 3.23035C8.29997 3.29902 8.21986 3.39663 8.17255 3.51084C8.12525 3.62505 8.11287 3.75072 8.13699 3.87196C8.16111 3.9932 8.22063 4.10457 8.30805 4.19197L9.24555 5.12947C9.59999 5.48584 10.0216 5.76837 10.486 5.96071C10.9503 6.15305 11.4482 6.25139 11.9509 6.25002H12.1563C12.9117 6.25077 13.6503 6.02712 14.2784 5.60744L14.375 5.54283V6.87502C14.3389 6.87522 14.3029 6.87854 14.2673 6.88494C13.7089 6.93366 13.1856 7.17842 12.7903 7.57588L10.0156 10.3505C9.81187 10.5532 9.65033 10.7942 9.54037 11.0598C9.43041 11.3253 9.3742 11.61 9.375 11.8974V11.9345C9.37536 12.4461 9.55473 12.9416 9.88203 13.3349L12.6448 16.6503C12.7035 16.7207 12.7769 16.7773 12.8599 16.8161C12.9429 16.8549 13.0334 16.875 13.125 16.875H13.5781C13.4606 17.5714 13.4825 18.2841 13.6426 18.972L11.9609 24.0164L7.18313 28.1968L5.42734 28.7821C5.34948 28.8081 5.27749 28.8491 5.21549 28.9029C5.15349 28.9566 5.1027 29.0221 5.06602 29.0955L4.44102 30.3455C4.39404 30.4396 4.37156 30.544 4.37566 30.649C4.37976 30.7541 4.4103 30.8565 4.46445 30.9466L6.14609 33.75H3.75C3.08696 33.75 2.45107 34.0134 1.98223 34.4823C1.51339 34.9511 1.25 35.587 1.25 36.25C1.25 36.9131 1.51339 37.5489 1.98223 38.0178C2.45107 38.4866 3.08696 38.75 3.75 38.75H38.125C38.2908 38.75 38.4497 38.6842 38.5669 38.567C38.6842 38.4498 38.75 38.2908 38.75 38.125V33.125C38.75 32.9898 38.7061 32.8582 38.625 32.75L36.875 30.4167ZM18.75 13.0132L19.9833 14.5343C20.0849 14.6597 20.2311 14.7409 20.3912 14.7609L21.5936 14.9112L21.4453 15.625H20.4063L18.75 14.6438V13.0132ZM20.6633 24.5992L22.3541 30.7985L20.9898 31.1396L19.65 28.0134C19.4467 27.5384 19.2816 27.0481 19.1562 26.5469L18.7317 24.8486C18.7127 24.7725 18.6796 24.7007 18.634 24.6369L15.5375 20.3018L15.1933 19.6135C15.0704 19.3675 14.9721 19.1101 14.8998 18.8449C14.8969 18.8333 14.8937 18.8215 14.8901 18.8104C14.7226 18.1777 14.7088 17.5141 14.8499 16.875H17.5V18.125C17.5 18.2221 17.5226 18.3178 17.566 18.4046L20.6633 24.5992ZM20.4495 33.75H8.85156L8.94781 33.7179C9.07222 33.6764 9.18042 33.5968 9.25708 33.4904C9.33375 33.384 9.375 33.2562 9.375 33.125V30.9595L14.7217 27.395C14.8226 27.3279 14.9017 27.2329 14.9495 27.1216L16.4205 23.6893L17.5474 25.2674L17.9433 26.8507C18.0849 27.4166 18.2714 27.9702 18.5009 28.5064L20.0312 32.0755L20.4495 33.75ZM15.8672 15.625C15.8672 15.625 16.25 14.4406 16.25 14.375H17.5V15.625H15.8672ZM18.2795 10.0138C18.4033 10.2216 18.455 10.4644 18.4264 10.7046C18.3315 10.6516 18.2244 10.6244 18.1157 10.6256C18.007 10.6269 17.9005 10.6566 17.8068 10.7117C17.7132 10.7669 17.6356 10.8456 17.5817 10.94C17.5279 11.0345 17.4997 11.1413 17.5 11.25V13.125H15V11.7005L16.4477 11.2179C16.5721 11.1764 16.6803 11.0968 16.757 10.9904C16.8337 10.884 16.875 10.7562 16.875 10.625V9.26776C16.8755 8.86845 16.7754 8.47546 16.584 8.12502H17.1465L18.2795 10.0138ZM15.625 3.96643C15.6245 3.78165 15.6606 3.5986 15.7313 3.42789C15.8021 3.25718 15.9059 3.10219 16.037 2.9719L16.1173 2.89166C16.2411 2.76713 16.3884 2.66839 16.5507 2.60117C16.7129 2.53394 16.8869 2.49956 17.0625 2.50002C17.3225 2.49938 17.5742 2.59183 17.772 2.76065L16.5827 3.15713C16.4254 3.20953 16.2954 3.32225 16.2213 3.47049L15.7692 4.37502H15.625V3.96643ZM15.625 5.62502H16.1555C16.2715 5.62502 16.3853 5.5927 16.484 5.53168C16.5828 5.47066 16.6625 5.38336 16.7145 5.27955L17.2238 4.26111L18.125 3.96096V5.62502H17.5C17.3342 5.62502 17.1753 5.69087 17.0581 5.80808C16.9408 5.92529 16.875 6.08426 16.875 6.25002V6.87502H15.625V5.62502ZM13.5847 4.56744C13.1619 4.84987 12.6647 5.00042 12.1563 5.00002H11.9512C11.3334 5.00181 10.7358 4.77978 10.269 4.37502H10.5495C11.0522 4.37639 11.5501 4.27805 12.0144 4.08571C12.4788 3.89337 12.9004 3.61084 13.2548 3.25447C13.6712 2.8358 14.2197 2.57419 14.8071 2.51408C14.5241 2.94552 14.3739 3.45047 14.375 3.96643V4.04057L13.5847 4.56744ZM13.4177 15.625L10.8423 12.5345C10.702 12.3659 10.6252 12.1536 10.625 11.9343V11.8972C10.6247 11.774 10.6488 11.652 10.6959 11.5383C10.743 11.4245 10.8123 11.3212 10.8996 11.2343L13.6742 8.45971C13.834 8.29989 14.0377 8.19105 14.2593 8.14696C14.481 8.10286 14.7108 8.12549 14.9196 8.21198C15.1284 8.29848 15.3069 8.44495 15.4324 8.63287C15.558 8.8208 15.625 9.04174 15.625 9.26776V10.1746L14.5438 10.5349L14.1923 10.1834C14.1342 10.1253 14.0653 10.0793 13.9895 10.0479C13.9137 10.0165 13.8324 10.0003 13.7503 10.0003C13.6682 10.0003 13.587 10.0165 13.5111 10.0479C13.4353 10.0793 13.3664 10.1253 13.3084 10.1834L12.0584 11.4334C11.9562 11.5355 11.8926 11.67 11.8783 11.8137C11.8641 11.9575 11.9001 12.1018 11.9802 12.2221L13.2302 14.0971C13.3073 14.2127 13.4207 14.2993 13.5526 14.3432L14.8347 14.7706L14.5495 15.625H13.4177ZM13.75 11.5089V12.6233L13.3042 11.9547L13.75 11.5089ZM12.9116 24.8454C12.9952 24.7722 13.0578 24.6781 13.093 24.5727L14.3658 20.7542L14.441 20.9046C14.4556 20.9338 14.4724 20.9618 14.4914 20.9883L15.5703 22.4989L13.8736 26.4581L8.9232 29.7583L8.32406 28.8594L12.9116 24.8454ZM5.71242 30.5977L6.06828 29.8861L7.24477 29.4939L8.125 30.8142V32.6746L7.15305 32.9985L5.71242 30.5977ZM3.75 37.5C3.50277 37.5 3.2611 37.4267 3.05554 37.2894C2.84998 37.152 2.68976 36.9568 2.59515 36.7284C2.50054 36.5 2.47579 36.2486 2.52402 36.0062C2.57225 35.7637 2.6913 35.541 2.86612 35.3661C3.04093 35.1913 3.26366 35.0723 3.50614 35.024C3.74861 34.9758 3.99995 35.0006 4.22835 35.0952C4.45676 35.1898 4.65199 35.35 4.78934 35.5556C4.92669 35.7611 5 36.0028 5 36.25C4.99961 36.5814 4.86778 36.8991 4.63345 37.1335C4.39911 37.3678 4.0814 37.4996 3.75 37.5V37.5ZM11.5863 37.5H5.91367C6.13398 37.1203 6.25 36.689 6.25 36.25C6.25 35.811 6.13398 35.3798 5.91367 35H11.5863C11.366 35.3798 11.25 35.811 11.25 36.25C11.25 36.689 11.366 37.1203 11.5863 37.5V37.5ZM13.75 37.5C13.5028 37.5 13.2611 37.4267 13.0555 37.2894C12.85 37.152 12.6898 36.9568 12.5952 36.7284C12.5005 36.5 12.4758 36.2486 12.524 36.0062C12.5722 35.7637 12.6913 35.541 12.8661 35.3661C13.0409 35.1913 13.2637 35.0723 13.5061 35.024C13.7486 34.9758 13.9999 35.0006 14.2284 35.0952C14.4568 35.1898 14.652 35.35 14.7893 35.5556C14.9267 35.7611 15 36.0028 15 36.25C14.9996 36.5814 14.8678 36.8991 14.6334 37.1335C14.3991 37.3678 14.0814 37.4996 13.75 37.5V37.5ZM21.5863 37.5H15.9141C16.1344 37.1203 16.2504 36.689 16.2504 36.25C16.2504 35.811 16.1344 35.3798 15.9141 35H21.2463H21.2499H21.2524H21.5867C21.3664 35.3798 21.2504 35.811 21.2504 36.25C21.2504 36.689 21.3664 37.1203 21.5867 37.5H21.5863ZM23.75 37.5C23.5028 37.5 23.2611 37.4267 23.0555 37.2894C22.85 37.152 22.6898 36.9568 22.5952 36.7284C22.5005 36.5 22.4758 36.2486 22.524 36.0062C22.5722 35.7637 22.6913 35.541 22.8661 35.3661C23.0409 35.1913 23.2637 35.0723 23.5061 35.024C23.7486 34.9758 23.9999 35.0006 24.2284 35.0952C24.4568 35.1898 24.652 35.35 24.7893 35.5556C24.9267 35.7611 25 36.0028 25 36.25C24.9996 36.5814 24.8678 36.8991 24.6335 37.1335C24.3991 37.3678 24.0814 37.4996 23.75 37.5V37.5ZM21.7048 33.6172L21.3829 32.3299L23.202 31.875H25.1745L25.4437 32.6824L21.7048 33.6172ZM30 37.5H25.9141C26.1344 37.1203 26.2504 36.689 26.2504 36.25C26.2504 35.811 26.1344 35.3798 25.9141 35H30V37.5ZM26.875 16.875V15.625H33.75C33.8661 15.625 33.9798 15.5927 34.0786 15.5317C34.1773 15.4707 34.2571 15.3834 34.309 15.2796L35.9598 11.9779L37.2517 12.301L35.2187 16.875H26.875ZM30.2588 18.125H31.6162L35.625 22.1339V30H34.375V22.5C34.375 22.4179 34.3588 22.3367 34.3274 22.2608C34.296 22.185 34.25 22.1161 34.192 22.0581L30.2588 18.125ZM37.5 37.5H31.25V34.6016L34.0427 31.25H35.9375L37.5 33.3334V37.5Z" fill="white"/>
</svg>
