<svg width="40" height="40" viewBox="0 0 40 40" fill="none" xmlns="http://www.w3.org/2000/svg">
<path d="M16.875 11.875C17.2458 11.875 17.6083 11.765 17.9167 11.559C18.225 11.353 18.4654 11.0601 18.6073 10.7175C18.7492 10.3749 18.7863 9.99792 18.714 9.63421C18.6416 9.27049 18.463 8.9364 18.2008 8.67418C17.9386 8.41195 17.6045 8.23338 17.2408 8.16103C16.8771 8.08868 16.5001 8.12581 16.1575 8.26773C15.8149 8.40964 15.522 8.64996 15.316 8.95831C15.11 9.26665 15 9.62916 15 10C15.0006 10.4971 15.1983 10.9737 15.5498 11.3252C15.9013 11.6767 16.3779 11.8744 16.875 11.875ZM16.875 9.375C16.9986 9.375 17.1194 9.41166 17.2222 9.48033C17.325 9.54901 17.4051 9.64662 17.4524 9.76082C17.4997 9.87503 17.5121 10.0007 17.488 10.1219C17.4639 10.2432 17.4043 10.3545 17.3169 10.4419C17.2295 10.5293 17.1182 10.5889 16.9969 10.613C16.8757 10.6371 16.75 10.6247 16.6358 10.5774C16.5216 10.5301 16.424 10.45 16.3553 10.3472C16.2867 10.2444 16.25 10.1236 16.25 10C16.2502 9.8343 16.3161 9.67544 16.4333 9.55827C16.5504 9.4411 16.7093 9.37519 16.875 9.375Z" fill="white"/>
<path d="M23.125 11.875C23.4958 11.875 23.8584 11.765 24.1667 11.559C24.475 11.353 24.7154 11.0601 24.8573 10.7175C24.9992 10.3749 25.0363 9.99792 24.964 9.63421C24.8916 9.27049 24.7131 8.9364 24.4508 8.67418C24.1886 8.41195 23.8545 8.23338 23.4908 8.16103C23.1271 8.08868 22.7501 8.12581 22.4075 8.26773C22.0649 8.40964 21.772 8.64996 21.566 8.95831C21.36 9.26665 21.25 9.62916 21.25 10C21.2506 10.4971 21.4483 10.9737 21.7998 11.3252C22.1513 11.6767 22.6279 11.8744 23.125 11.875ZM23.125 9.375C23.2486 9.375 23.3695 9.41166 23.4722 9.48033C23.575 9.54901 23.6551 9.64662 23.7024 9.76082C23.7497 9.87503 23.7621 10.0007 23.738 10.1219C23.7139 10.2432 23.6544 10.3545 23.5669 10.4419C23.4795 10.5293 23.3682 10.5889 23.2469 10.613C23.1257 10.6371 23 10.6247 22.8858 10.5774C22.7716 10.5301 22.674 10.45 22.6053 10.3472C22.5367 10.2444 22.5 10.1236 22.5 10C22.5002 9.8343 22.5661 9.67544 22.6833 9.55827C22.8004 9.4411 22.9593 9.37519 23.125 9.375V9.375Z" fill="white"/>
<path d="M18.4704 13.684C18.9457 13.9203 19.4692 14.0432 20 14.0432C20.5307 14.0432 21.0543 13.9203 21.5295 13.684C21.6778 13.6099 21.7905 13.4799 21.8429 13.3226C21.8953 13.1654 21.8831 12.9937 21.809 12.8455L20.559 10.3455C20.5071 10.2417 20.4273 10.1544 20.3286 10.0933C20.2298 10.0323 20.116 10 20 10C19.8839 10 19.7701 10.0323 19.6714 10.0933C19.5727 10.1544 19.4929 10.2417 19.441 10.3455L18.191 12.8455C18.1169 12.9937 18.1047 13.1654 18.1571 13.3226C18.2095 13.4799 18.3222 13.6099 18.4704 13.684V13.684ZM20 12.0226L20.3699 12.7625C20.1251 12.8043 19.8749 12.8043 19.63 12.7625L20 12.0226Z" fill="white"/>
<path d="M33.2803 30.7881C33.1784 30.5837 33.1253 30.3585 33.125 30.1302V29.3951C33.126 29.085 33.0401 28.7807 32.8771 28.5169C32.714 28.253 32.4803 28.0401 32.2024 27.9024C32.1244 27.8634 32.0434 27.8306 31.9603 27.8043C32.039 27.469 32.0407 27.1203 31.9655 26.7843C31.8903 26.4482 31.74 26.1336 31.5259 25.8638C31.3119 25.5941 31.0396 25.3763 30.7294 25.2267C30.4193 25.0771 30.0793 24.9996 29.735 25H27.2873C26.7099 24.5916 26.0197 24.3732 25.3125 24.375H21.5812C21.5808 24.0382 21.6588 23.706 21.809 23.4045C21.8522 23.3178 21.8747 23.2221 21.8745 23.1251C21.8743 23.0282 21.8516 22.9326 21.8081 22.8459L21.809 22.8455C21.563 22.3502 21.5142 21.7799 21.6725 21.25H23.125C24.2849 21.2487 25.397 20.7873 26.2172 19.9672C27.0373 19.147 27.4987 18.0349 27.5 16.875V10.625C27.4981 8.96797 26.8391 7.37934 25.6674 6.20765C24.4957 5.03595 22.907 4.37687 21.25 4.375H18.75C17.093 4.37687 15.5043 5.03595 14.3326 6.20765C13.1609 7.37934 12.5019 8.96797 12.5 10.625V16.875C12.5013 18.0349 12.9627 19.147 13.7828 19.9672C14.603 20.7873 15.7151 21.2487 16.875 21.25H18.3275C18.4858 21.7799 18.437 22.3502 18.191 22.8455L18.1919 22.8459C18.1484 22.9326 18.1257 23.0282 18.1255 23.1251C18.1253 23.2221 18.1478 23.3178 18.191 23.4045C18.3412 23.706 18.4192 24.0382 18.4188 24.375H14.6875C13.9803 24.3732 13.2901 24.5916 12.7127 25H10.265C9.92069 24.9996 9.58071 25.0771 9.27055 25.2267C8.96039 25.3763 8.68809 25.5941 8.47403 25.8639C8.25998 26.1336 8.10972 26.4483 8.03449 26.7843C7.95927 27.1204 7.96104 27.4691 8.03966 27.8043C7.95651 27.8307 7.87553 27.8635 7.79747 27.9025C7.51961 28.0402 7.28592 28.2531 7.12287 28.5169C6.95983 28.7808 6.87396 29.085 6.875 29.3951V30.1302C6.87472 30.3585 6.82156 30.5837 6.71967 30.7881L6.53732 31.1528C6.34885 31.5309 6.25051 31.9474 6.25 32.3698V38.75H7.5V32.3698C7.50028 32.1415 7.55344 31.9163 7.65533 31.7119L7.83768 31.3472C8.02615 30.9691 8.12449 30.5526 8.125 30.1302V29.3951C8.12499 29.3123 8.14955 29.2313 8.19557 29.1624C8.24159 29.0935 8.30701 29.0398 8.38355 29.0081C8.46009 28.9764 8.54431 28.9681 8.62557 28.9843C8.70682 29.0005 8.78145 29.0404 8.84003 29.099L9.97406 30.233C10.1515 30.4114 10.28 30.6325 10.3472 30.8751C10.4144 31.1176 10.418 31.3733 10.3577 31.6176C10.3396 31.6896 10.3057 31.7567 10.2582 31.8139C10.2108 31.8711 10.1512 31.9169 10.0837 31.9479C10.0162 31.979 9.9426 31.9945 9.86832 31.9933C9.79405 31.9921 9.72099 31.9742 9.65454 31.941C9.55926 31.8933 9.45337 31.8708 9.34693 31.8756C9.24049 31.8804 9.13705 31.9123 9.04641 31.9683C8.95578 32.0243 8.88097 32.1026 8.82909 32.1956C8.77722 32.2887 8.74999 32.3935 8.75 32.5V38.75H10V33.2398C10.3672 33.2131 10.7167 33.0713 10.9986 32.8345C11.2806 32.5976 11.4806 32.2779 11.5703 31.9208C11.5765 31.8958 11.581 31.8705 11.5865 31.8454L11.9355 32.1944C12.0594 32.8312 12.3621 33.4195 12.808 33.8906C12.5935 34.3611 12.4885 34.8741 12.5009 35.3911C12.5426 37.2432 14.1093 38.75 15.9935 38.75H16.25C16.6644 38.75 17.0618 38.5854 17.3549 38.2924C17.6479 37.9993 17.8125 37.6019 17.8125 37.1875C17.8125 36.7731 17.6479 36.3757 17.3549 36.0826C17.0618 35.7896 16.6644 35.625 16.25 35.625H15.9375C15.8938 35.6249 15.8506 35.6156 15.8108 35.5978C15.7709 35.58 15.7351 35.554 15.7059 35.5216C15.6766 35.4892 15.6544 35.451 15.6407 35.4095C15.6271 35.368 15.6222 35.3242 15.6265 35.2807C15.6394 35.2009 15.6808 35.1285 15.7431 35.0769C15.8053 35.0253 15.8841 34.998 15.9649 35H18.3275C18.292 35.1189 18.2464 35.2345 18.191 35.3455C18.1478 35.4322 18.1253 35.5279 18.1255 35.6249C18.1257 35.7218 18.1484 35.8174 18.1919 35.9041L18.191 35.9045C18.3409 36.2061 18.4188 36.5383 18.4188 36.875C18.4188 37.2117 18.3409 37.5439 18.191 37.8455C18.1433 37.9407 18.1208 38.0466 18.1256 38.1531C18.1304 38.2595 18.1623 38.363 18.2183 38.4536C18.2743 38.5442 18.3526 38.619 18.4456 38.6709C18.5387 38.7228 18.6435 38.75 18.75 38.75H21.25C21.3565 38.75 21.4613 38.7228 21.5544 38.6709C21.6474 38.619 21.7257 38.5442 21.7817 38.4536C21.8377 38.363 21.8696 38.2595 21.8744 38.1531C21.8792 38.0466 21.8567 37.9407 21.809 37.8455C21.6591 37.5439 21.5812 37.2117 21.5812 36.875C21.5812 36.5383 21.6591 36.2061 21.809 35.9045L21.8081 35.9041C21.8516 35.8174 21.8743 35.7218 21.8745 35.6249C21.8747 35.5279 21.8522 35.4322 21.809 35.3455C21.7536 35.2345 21.708 35.1189 21.6725 35H24.0351C24.1159 34.998 24.1947 35.0253 24.2569 35.0769C24.3192 35.1285 24.3606 35.2009 24.3735 35.2807C24.3778 35.3242 24.3729 35.368 24.3593 35.4095C24.3456 35.451 24.3234 35.4892 24.2941 35.5216C24.2649 35.554 24.2291 35.58 24.1892 35.5978C24.1494 35.6156 24.1062 35.6249 24.0625 35.625H23.75C23.3356 35.625 22.9382 35.7896 22.6451 36.0826C22.3521 36.3757 22.1875 36.7731 22.1875 37.1875C22.1875 37.6019 22.3521 37.9993 22.6451 38.2924C22.9382 38.5854 23.3356 38.75 23.75 38.75H24.0065C25.8907 38.75 27.4574 37.2432 27.4991 35.3912C27.5115 34.8742 27.4065 34.3611 27.192 33.8906C27.6379 33.4195 27.9406 32.8312 28.0645 32.1944L28.4135 31.8454C28.419 31.8705 28.4235 31.8957 28.4297 31.9208C28.5194 32.2779 28.7194 32.5976 29.0014 32.8345C29.2833 33.0713 29.6328 33.2131 30 33.2398V38.75H31.25V32.5C31.25 32.3935 31.2228 32.2887 31.1709 32.1956C31.119 32.1026 31.0442 32.0243 30.9536 31.9683C30.863 31.9123 30.7595 31.8804 30.6531 31.8756C30.5466 31.8708 30.4407 31.8933 30.3455 31.941C30.279 31.9742 30.206 31.9921 30.1317 31.9933C30.0574 31.9945 29.9838 31.979 29.9163 31.9479C29.8488 31.9169 29.7892 31.8711 29.7418 31.8139C29.6943 31.7567 29.6604 31.6896 29.6423 31.6176C29.582 31.3733 29.5856 31.1176 29.6528 30.8751C29.72 30.6325 29.8485 30.4114 30.0259 30.233L31.16 29.099C31.2185 29.0404 31.2932 29.0005 31.3744 28.9843C31.4557 28.9681 31.5399 28.9764 31.6164 29.0081C31.693 29.0398 31.7584 29.0935 31.8044 29.1624C31.8505 29.2313 31.875 29.3123 31.875 29.3951V30.1302C31.8755 30.5526 31.9739 30.9691 32.1623 31.3472L32.3447 31.7119C32.4466 31.9163 32.4997 32.1415 32.5 32.3698V38.75H33.75V32.3698C33.7495 31.9474 33.6511 31.5309 33.4627 31.1528L33.2803 30.7881ZM26.8743 31.6155C26.8465 32.7924 25.8418 33.75 24.6347 33.75H24.375C24.2921 33.75 24.2126 33.7171 24.154 33.6585C24.0954 33.5999 24.0625 33.5204 24.0625 33.4375C24.0625 33.3546 24.0954 33.2751 24.154 33.2165C24.2126 33.1579 24.2921 33.125 24.375 33.125H24.6875C24.9052 33.1249 25.1205 33.0793 25.3196 32.9911C25.5186 32.903 25.6971 32.7743 25.8435 32.6131C25.9899 32.452 26.1011 32.2621 26.1699 32.0556C26.2387 31.849 26.2636 31.6304 26.243 31.4137C26.2337 31.3154 26.2148 31.2184 26.1864 31.1239C26.3879 31.0685 26.5841 30.9951 26.7725 30.9047C26.8455 31.1344 26.8798 31.3746 26.8743 31.6155V31.6155ZM20.3889 35H19.6111C19.6872 34.5868 19.6872 34.1632 19.6111 33.75H20.3889C20.3128 34.1632 20.3128 34.5868 20.3889 35V35ZM19.6103 32.5C19.6863 32.0868 19.6863 31.6632 19.6103 31.25H20.3897C20.3136 31.6632 20.3136 32.0868 20.3897 32.5H19.6103ZM13.1257 31.6154C13.1202 31.3746 13.1545 31.1344 13.2274 30.9047C13.4159 30.9951 13.6121 31.0685 13.8136 31.1239C13.7852 31.2184 13.7663 31.3154 13.757 31.4137C13.7364 31.6304 13.7613 31.849 13.8301 32.0556C13.8989 32.2621 14.0101 32.452 14.1565 32.6131C14.3029 32.7743 14.4814 32.903 14.6804 32.9911C14.8795 33.0793 15.0948 33.1249 15.3125 33.125H15.625C15.7079 33.125 15.7874 33.1579 15.846 33.2165C15.9046 33.2751 15.9375 33.3546 15.9375 33.4375C15.9375 33.5204 15.9046 33.5999 15.846 33.6585C15.7874 33.7171 15.7079 33.75 15.625 33.75H15.3653C14.1582 33.75 13.1535 32.7924 13.1257 31.6154V31.6154ZM19.6111 23.75H20.3889C20.3128 24.1632 20.3128 24.5868 20.3889 25H19.6111C19.6872 24.5868 19.6872 24.1632 19.6111 23.75ZM20.3897 26.25C20.3136 26.6632 20.3136 27.0868 20.3897 27.5H19.6103C19.6863 27.0868 19.6863 26.6632 19.6103 26.25H20.3897ZM21.5812 31.875C21.5812 31.6633 21.6119 31.4528 21.6725 31.25H24.6601C24.7409 31.248 24.8197 31.2753 24.8819 31.3269C24.9442 31.3785 24.9856 31.4509 24.9985 31.5307C25.0028 31.5742 24.9979 31.618 24.9843 31.6595C24.9706 31.701 24.9484 31.7392 24.9191 31.7716C24.8899 31.804 24.8541 31.83 24.8142 31.8478C24.7744 31.8656 24.7312 31.8749 24.6875 31.875H21.5812ZM23.469 30H21.6725C21.6119 29.7972 21.5812 29.5867 21.5812 29.375H23.469C23.427 29.5812 23.427 29.7938 23.469 30V30ZM21.8739 28.125C21.8739 28.0281 21.8514 27.9326 21.808 27.8459L21.809 27.8455C21.7536 27.7345 21.708 27.6189 21.6725 27.5H25.2851C25.3659 27.498 25.4447 27.5253 25.5069 27.5769C25.5692 27.6285 25.6106 27.7009 25.6235 27.7807C25.6278 27.8242 25.6229 27.868 25.6093 27.9095C25.5956 27.951 25.5734 27.9892 25.5441 28.0216C25.5149 28.054 25.4791 28.08 25.4392 28.0978C25.3994 28.1156 25.3562 28.1249 25.3125 28.125H21.8739ZM20.3889 30H19.6111C19.6872 29.5868 19.6872 29.1632 19.6111 28.75H20.3889C20.3128 29.1632 20.3128 29.5868 20.3889 30H20.3889ZM15.3125 31.875C15.2688 31.8749 15.2256 31.8656 15.1858 31.8478C15.1459 31.83 15.1101 31.804 15.0809 31.7716C15.0516 31.7392 15.0294 31.701 15.0157 31.6595C15.0021 31.618 14.9972 31.5742 15.0015 31.5307C15.0144 31.4509 15.0558 31.3785 15.1181 31.3269C15.1803 31.2753 15.2591 31.248 15.3399 31.25H18.3275C18.3881 31.4528 18.4188 31.6633 18.4188 31.875H15.3125ZM18.4188 29.375C18.4188 29.5867 18.3881 29.7972 18.3275 30H16.531C16.573 29.7938 16.573 29.5812 16.531 29.375H18.4188ZM18.191 27.8455L18.1919 27.8459C18.1486 27.9326 18.1261 28.0281 18.1261 28.125H14.6875C14.6438 28.1249 14.6006 28.1156 14.5608 28.0978C14.5209 28.08 14.4851 28.054 14.4559 28.0216C14.4266 27.9892 14.4044 27.951 14.3907 27.9095C14.3771 27.868 14.3722 27.8242 14.3765 27.7807C14.3894 27.7009 14.4308 27.6285 14.4931 27.5769C14.5553 27.5253 14.6341 27.498 14.7149 27.5H18.3275C18.292 27.6189 18.2464 27.7345 18.191 27.8455ZM17.156 33.125H18.1261C18.1257 33.222 18.1479 33.3177 18.191 33.4045C18.2464 33.5155 18.292 33.6311 18.3275 33.75H17.156C17.198 33.5438 17.198 33.3312 17.156 33.125ZM21.809 33.4045C21.8521 33.3177 21.8743 33.222 21.8739 33.125H22.844C22.802 33.3312 22.802 33.5438 22.844 33.75H21.6725C21.708 33.6311 21.7536 33.5155 21.809 33.4045V33.4045ZM26.8768 26.2852C27.0814 26.4933 27.242 26.7404 27.349 27.012C27.456 27.2835 27.5071 27.5738 27.4993 27.8655C27.4715 29.0424 26.4668 30 25.2597 30H25C24.9171 30 24.8376 29.9671 24.779 29.9085C24.7204 29.8499 24.6875 29.7704 24.6875 29.6875C24.6875 29.6046 24.7204 29.5251 24.779 29.4665C24.8376 29.4079 24.9171 29.375 25 29.375H25.3125C25.5302 29.3749 25.7455 29.3293 25.9446 29.2411C26.1436 29.153 26.3221 29.0243 26.4685 28.8631C26.6149 28.702 26.7261 28.5121 26.7949 28.3056C26.8637 28.099 26.8886 27.8804 26.868 27.6637C26.8247 27.2744 26.6393 26.9148 26.3471 26.6539C26.055 26.393 25.6768 26.2491 25.2851 26.25H21.6725C21.708 26.1311 21.7536 26.0155 21.809 25.9045L21.8081 25.9041C21.8514 25.8174 21.8739 25.7219 21.8739 25.625H25.3125C25.6042 25.6243 25.8931 25.6824 26.1619 25.7958C26.4306 25.9093 26.6738 26.0757 26.8768 26.2852V26.2852ZM13.75 10.625C13.7515 9.29937 14.2788 8.02847 15.2161 7.09111C16.1535 6.15375 17.4244 5.62649 18.75 5.625H21.25C22.5756 5.62649 23.8465 6.15375 24.7839 7.09111C25.7212 8.02847 26.2485 9.29937 26.25 10.625V12.5C26.2496 12.8314 26.1178 13.1491 25.8835 13.3835C25.6491 13.6178 25.3314 13.7496 25 13.75C24.5029 13.7506 24.0263 13.9483 23.6748 14.2998C23.3233 14.6513 23.1256 15.1279 23.125 15.625C23.1248 15.7907 23.0589 15.9496 22.9417 16.0667C22.8246 16.1839 22.6657 16.2498 22.5 16.25V15H21.25V16.25H20.625V15H19.375V16.25H18.75V15H17.5V16.25C17.3343 16.2498 17.1754 16.1839 17.0583 16.0667C16.9411 15.9496 16.8752 15.7907 16.875 15.625C16.8744 15.1279 16.6767 14.6513 16.3252 14.2998C15.9737 13.9483 15.4971 13.7506 15 13.75C14.6686 13.7496 14.3509 13.6178 14.1165 13.3835C13.8822 13.1491 13.7504 12.8314 13.75 12.5V10.625ZM22.5 17.5C22.9971 17.4994 23.4737 17.3017 23.8252 16.9502C24.1767 16.5987 24.3744 16.1221 24.375 15.625C24.3751 15.5116 24.406 15.4004 24.4644 15.3033C24.5229 15.2061 24.6066 15.1267 24.7067 15.0735L24.5843 16.4198C24.5439 16.8866 24.3295 17.3211 23.9835 17.637C23.6376 17.9529 23.1855 18.1271 22.717 18.125H17.283C16.8145 18.1271 16.3624 17.9529 16.0164 17.6369C15.6705 17.321 15.4561 16.8865 15.4157 16.4198L15.2933 15.0735C15.3934 15.1267 15.4771 15.2061 15.5356 15.3033C15.594 15.4004 15.6249 15.5116 15.625 15.625C15.6256 16.1221 15.8233 16.5987 16.1748 16.9502C16.5263 17.3017 17.0029 17.4994 17.5 17.5H22.5ZM13.75 16.875V14.6637C13.835 14.7131 13.9228 14.7575 14.013 14.7965L14.1709 16.533C14.2381 17.3109 14.5955 18.035 15.1721 18.5616C15.7487 19.0881 16.5022 19.3785 17.283 19.375H22.717C23.4978 19.3785 24.2513 19.0881 24.8279 18.5616C25.4045 18.035 25.7619 17.3109 25.8291 16.533L25.9869 14.7965C26.0772 14.7575 26.165 14.7131 26.25 14.6637V16.875C26.2491 17.7035 25.9195 18.4978 25.3337 19.0837C24.7478 19.6695 23.9535 19.9991 23.125 20H16.875C16.0465 19.9991 15.2522 19.6695 14.6663 19.0837C14.0805 18.4978 13.7509 17.7035 13.75 16.875V16.875ZM20.3897 21.25C20.3136 21.6632 20.3136 22.0868 20.3897 22.5H19.6103C19.6863 22.0868 19.6863 21.6632 19.6103 21.25H20.3897ZM14.6875 25.625H18.1261C18.1261 25.7219 18.1486 25.8174 18.1919 25.9041L18.191 25.9045C18.2464 26.0155 18.292 26.1311 18.3275 26.25H14.7149C14.3232 26.2491 13.945 26.393 13.6529 26.6539C13.3608 26.9148 13.1753 27.2744 13.132 27.6637C13.1114 27.8804 13.1363 28.099 13.2051 28.3056C13.2739 28.5121 13.3851 28.702 13.5315 28.8631C13.6779 29.0243 13.8564 29.153 14.0554 29.2411C14.2545 29.3293 14.4698 29.3749 14.6875 29.375H15C15.0829 29.375 15.1624 29.4079 15.221 29.4665C15.2796 29.5251 15.3125 29.6046 15.3125 29.6875C15.3125 29.7704 15.2796 29.8499 15.221 29.9085C15.1624 29.9671 15.0829 30 15 30H14.7403C13.5332 30 12.5285 29.0424 12.5007 27.8654C12.494 27.5739 12.5457 27.284 12.6525 27.0127C12.7594 26.7414 12.9194 26.4941 13.123 26.2855C13.3267 26.0768 13.57 25.9109 13.8387 25.7975C14.1073 25.684 14.3959 25.6254 14.6875 25.625V25.625ZM9.53102 28.0221C9.38585 27.8769 9.28698 27.6919 9.24693 27.4906C9.20688 27.2892 9.22744 27.0805 9.30601 26.8908C9.38458 26.7011 9.51763 26.539 9.68833 26.4249C9.85904 26.3109 10.0597 26.25 10.265 26.25H11.6246C11.3031 26.8764 11.1841 27.5873 11.2842 28.2842C11.3842 28.9812 11.6983 29.6299 12.183 30.1406C12.1259 30.266 12.0764 30.3947 12.0349 30.526L9.53102 28.0221ZM15.9375 36.875H16.25C16.3329 36.875 16.4124 36.9079 16.471 36.9665C16.5296 37.0251 16.5625 37.1046 16.5625 37.1875C16.5625 37.2704 16.5296 37.3499 16.471 37.4085C16.4124 37.4671 16.3329 37.5 16.25 37.5H15.9935C14.7832 37.5 13.7771 36.5414 13.7506 35.3629C13.7454 35.1229 13.7798 34.8836 13.8524 34.6547C14.0409 34.7451 14.237 34.8185 14.4386 34.8739C14.4102 34.9684 14.3913 35.0654 14.382 35.1637C14.3614 35.3804 14.3863 35.599 14.4551 35.8056C14.5239 36.0121 14.6351 36.202 14.7815 36.3631C14.9279 36.5243 15.1064 36.653 15.3054 36.7411C15.5045 36.8293 15.7198 36.8749 15.9375 36.875V36.875ZM19.6111 37.5C19.6871 37.0868 19.687 36.6632 19.6109 36.25H20.3891C20.313 36.6632 20.3129 37.0868 20.3889 37.5H19.6111ZM24.0065 37.5H23.75C23.6671 37.5 23.5876 37.4671 23.529 37.4085C23.4704 37.3499 23.4375 37.2704 23.4375 37.1875C23.4375 37.1046 23.4704 37.0251 23.529 36.9665C23.5876 36.9079 23.6671 36.875 23.75 36.875H24.0625C24.2802 36.8749 24.4955 36.8293 24.6946 36.7411C24.8936 36.653 25.0721 36.5243 25.2185 36.3631C25.3649 36.202 25.4761 36.0121 25.5449 35.8056C25.6137 35.599 25.6386 35.3804 25.618 35.1637C25.6087 35.0654 25.5898 34.9684 25.5614 34.8739C25.7629 34.8185 25.9591 34.7451 26.1475 34.6547C26.2202 34.8836 26.2546 35.1229 26.2494 35.363C26.2229 36.5414 25.2168 37.5 24.0065 37.5V37.5ZM29.142 29.3491L27.965 30.526C27.9236 30.3947 27.8741 30.266 27.817 30.1406C28.3017 29.6299 28.6158 28.9812 28.7158 28.2842C28.8159 27.5873 28.6969 26.8764 28.3754 26.25H29.735C29.9403 26.25 30.141 26.3109 30.3117 26.4249C30.4824 26.539 30.6154 26.7011 30.694 26.8908C30.7726 27.0805 30.7931 27.2892 30.7531 27.4906C30.713 27.6919 30.6142 27.8769 30.469 28.0221L30.276 28.215L29.142 29.3491Z" fill="white"/>
<path d="M35.2369 26.789C34.7817 25.5325 33.9504 24.4467 32.8563 23.6793C31.7622 22.9119 30.4583 22.5002 29.1219 22.5H25.8482C26.9046 21.9877 27.7954 21.1885 28.4191 20.1938C29.0427 19.1991 29.374 18.0491 29.375 16.875V16.25C30.2038 16.25 30.9987 15.9208 31.5847 15.3347C32.1708 14.7487 32.5 13.9538 32.5 13.125C32.5 12.2962 32.1708 11.5014 31.5847 10.9153C30.9987 10.3293 30.2038 10 29.375 10V6.49219C29.374 5.59947 29.0189 4.7436 28.3877 4.11235C27.7564 3.48111 26.9006 3.12603 26.0078 3.12503H25.4173C25.1393 2.56179 24.7093 2.08763 24.1757 1.75625C23.6422 1.42486 23.0265 1.2495 22.3985 1.25003H21.0031C19.476 1.25039 17.9804 1.68383 16.6898 2.50003H15.2955C14.9451 2.10502 14.5145 1.78921 14.0325 1.57367C13.5505 1.35813 13.028 1.2478 12.5 1.25003C11.6745 1.25003 10.8721 1.52243 10.2171 2.02496C9.56223 2.5275 9.09143 3.23209 8.87778 4.02947C8.66412 4.82684 8.71955 5.67244 9.03545 6.4351C9.35136 7.19777 9.91009 7.83489 10.625 8.24764V10C9.7962 10 9.00134 10.3293 8.41529 10.9153C7.82924 11.5014 7.5 12.2962 7.5 13.125C7.5 13.9538 7.82924 14.7487 8.41529 15.3347C9.00134 15.9208 9.7962 16.25 10.625 16.25V16.875C10.6264 18.0479 10.9569 19.1969 11.5789 20.1913C12.2009 21.1857 13.0895 21.9856 14.1435 22.5H10.8781C10.0241 22.5 9.17847 22.6682 8.38946 22.995C7.60044 23.3218 6.88353 23.8008 6.27965 24.4047C5.67577 25.0086 5.19675 25.7255 4.86995 26.5145C4.54315 27.3035 4.37497 28.1492 4.375 29.0032V38.75H5.625V29.0032C5.62481 28.3133 5.76056 27.6301 6.02449 26.9927C6.28842 26.3552 6.67536 25.7761 7.16319 25.2882C7.65103 24.8004 8.23021 24.4135 8.86763 24.1495C9.50506 23.8856 10.1882 23.7498 10.8781 23.75H15.3664C16.0976 23.7479 16.7985 23.4576 17.317 22.942C17.4044 22.8546 17.4639 22.7432 17.488 22.622C17.5121 22.5007 17.4997 22.3751 17.4524 22.2609C17.4051 22.1467 17.325 22.0491 17.2222 21.9804C17.1194 21.9117 16.9986 21.875 16.875 21.875C15.5489 21.8749 14.2772 21.3481 13.3396 20.4105C12.4019 19.4728 11.8751 18.2011 11.875 16.875V15.625C11.875 15.4593 11.8091 15.3003 11.6919 15.1831C11.5747 15.0659 11.4158 15 11.25 15H10.625C10.1277 15 9.65081 14.8025 9.29917 14.4509C8.94754 14.0992 8.75 13.6223 8.75 13.125C8.75 12.6278 8.94754 12.1508 9.29917 11.7992C9.65081 11.4476 10.1277 11.25 10.625 11.25H11.25C11.4158 11.25 11.5747 11.1842 11.6919 11.067C11.8091 10.9498 11.875 10.7908 11.875 10.625V7.86411C11.875 7.74252 11.8395 7.62357 11.7729 7.52184C11.7064 7.4201 11.6115 7.34001 11.5001 7.29137C11.1494 7.13832 10.8385 6.90679 10.5913 6.61464C10.3442 6.32248 10.1674 5.97749 10.0746 5.60624C9.98183 5.23499 9.9755 4.8474 10.0561 4.47333C10.1367 4.09925 10.3022 3.74867 10.5396 3.44861C10.7771 3.14854 11.0803 2.90699 11.4258 2.74257C11.7714 2.57816 12.1501 2.49526 12.5327 2.50026C12.9153 2.50526 13.2917 2.59804 13.6328 2.77144C13.974 2.94483 14.2707 3.19423 14.5003 3.5004C14.5585 3.57792 14.634 3.64084 14.7207 3.68416C14.8074 3.72749 14.903 3.75004 15 3.75003H16.875C16.9985 3.75001 17.1192 3.71343 17.222 3.6449C18.3418 2.89866 19.6574 2.50033 21.0031 2.50003H22.3985C22.8429 2.49969 23.2762 2.63937 23.6368 2.89926C23.9974 3.15914 24.2669 3.52602 24.4071 3.94779C24.4486 4.0722 24.5282 4.18041 24.6346 4.25709C24.741 4.33377 24.8688 4.37503 25 4.37503H26.0078C26.5691 4.37568 27.1073 4.59894 27.5042 4.99585C27.9011 5.39275 28.1244 5.93088 28.125 6.49219V10.625C28.125 10.7908 28.1909 10.9498 28.3081 11.067C28.4253 11.1842 28.5842 11.25 28.75 11.25H29.375C29.8723 11.25 30.3492 11.4476 30.7008 11.7992C31.0525 12.1508 31.25 12.6278 31.25 13.125C31.25 13.6223 31.0525 14.0992 30.7008 14.4509C30.3492 14.8025 29.8723 15 29.375 15H28.75C28.5842 15 28.4253 15.0659 28.3081 15.1831C28.1909 15.3003 28.125 15.4593 28.125 15.625V16.875C28.1235 18.2007 27.5962 19.4716 26.6589 20.4089C25.7215 21.3463 24.4506 21.8735 23.125 21.875C23.0014 21.875 22.8806 21.9117 22.7778 21.9804C22.675 22.0491 22.5949 22.1467 22.5476 22.2609C22.5003 22.3751 22.4879 22.5007 22.512 22.622C22.5361 22.7432 22.5956 22.8546 22.683 22.942C23.2004 23.4592 23.902 23.7499 24.6336 23.75H29.1219C29.8118 23.7498 30.495 23.8856 31.1324 24.1495C31.7698 24.4134 32.349 24.8003 32.8369 25.2882C33.3247 25.776 33.7116 26.3552 33.9756 26.9926C34.2395 27.6301 34.3752 28.3133 34.375 29.0032V38.75H35.625V29.0032C35.6254 28.2482 35.494 27.4989 35.2369 26.789V26.789Z" fill="white"/>
<path d="M29.375 34.375H28.125V38.75H29.375V34.375Z" fill="white"/>
<path d="M11.875 34.375H10.625V38.75H11.875V34.375Z" fill="white"/>
</svg>
