<svg width="40" height="40" viewBox="0 0 40 40" fill="none" xmlns="http://www.w3.org/2000/svg">
<g clip-path="url(#clip0)">
<path d="M33.4937 4.94078C30.3075 1.75469 26.0713 0 21.5656 0C17.0598 0 12.8236 1.75469 9.63758 4.94078C6.4843 8.09406 4.73313 12.2754 4.69742 16.7292L1.62774 22.8686C1.49055 23.143 1.58774 23.4767 1.85078 23.6345L4.69688 25.3422V34.4031C4.69688 34.7273 4.95977 34.9902 5.28399 34.9902H10.9591V39.413C10.9591 39.7372 11.222 40.0001 11.5463 40.0001C11.8705 40.0001 12.1334 39.7372 12.1334 39.413V34.4031C12.1334 34.0789 11.8705 33.816 11.5463 33.816H5.87094V25.0098C5.87094 24.8036 5.76274 24.6124 5.58594 24.5063L2.92094 22.9073L5.80891 17.1314C5.84969 17.0498 5.87094 16.9601 5.87094 16.8688C5.87094 8.21477 12.9116 1.17414 21.5656 1.17414C30.2197 1.17414 37.2603 8.21477 37.2603 16.8688C37.2603 21.7319 35.06 26.241 31.2236 29.2404C31.0813 29.3516 30.998 29.5223 30.998 29.703V39.4129C30.998 39.7371 31.2609 40 31.5852 40C31.9095 40 32.1723 39.7371 32.1723 39.4129V29.9862C36.156 26.7638 38.4345 21.9996 38.4345 16.8689C38.4345 12.363 36.6798 8.12688 33.4937 4.94078Z" fill="white"/>
<path d="M29.0803 5.63574C28.066 5.63574 27.2407 6.46098 27.2407 7.47527C27.2407 7.76863 27.3101 8.04606 27.4328 8.29238L22.4028 13.3224C22.2928 13.4325 22.231 13.5818 22.231 13.7375V28.1406C22.231 28.4648 22.4938 28.7277 22.8181 28.7277C23.1424 28.7277 23.4052 28.4648 23.4052 28.1406V13.9807L28.2631 9.1227C28.5095 9.24543 28.7868 9.31488 29.0803 9.31488C30.0946 9.31488 30.9198 8.48965 30.9198 7.47535C30.9198 6.46106 30.0946 5.63574 29.0803 5.63574ZM29.0803 8.14059C28.7134 8.14059 28.4149 7.84215 28.4149 7.4752C28.4149 7.10824 28.7133 6.8098 29.0803 6.8098C29.4471 6.8098 29.7456 7.10824 29.7456 7.4752C29.7456 7.84215 29.4471 8.14059 29.0803 8.14059Z" fill="white"/>
<path d="M33.4638 18.7864C32.6547 18.7864 31.9665 19.3117 31.7208 20.0389H28.4149V16.4855L30.768 14.1325C31.0143 14.2551 31.2917 14.3246 31.5851 14.3246C32.5994 14.3246 33.4246 13.4993 33.4246 12.485C33.4246 11.4707 32.5994 10.6455 31.5851 10.6455C30.5708 10.6455 29.7456 11.4707 29.7456 12.485C29.7456 12.7784 29.815 13.0558 29.9377 13.3021L27.4126 15.8272C27.3025 15.9373 27.2407 16.0866 27.2407 16.2423V30.6454C27.2407 30.9696 27.5035 31.2325 27.8278 31.2325C28.1521 31.2325 28.4149 30.9696 28.4149 30.6454V21.213H31.721C31.9666 21.9402 32.6548 22.4654 33.4639 22.4654C34.4782 22.4654 35.3035 21.6402 35.3035 20.6259C35.3033 19.6116 34.4781 18.7864 33.4638 18.7864ZM31.5851 11.8196C31.952 11.8196 32.2505 12.1181 32.2505 12.485C32.2505 12.852 31.9521 13.1504 31.5851 13.1504C31.2182 13.1504 30.9197 12.852 30.9197 12.485C30.9197 12.1181 31.2182 11.8196 31.5851 11.8196ZM33.4638 21.2913C33.0969 21.2913 32.7984 20.9929 32.7984 20.6259C32.7984 20.259 33.0968 19.9605 33.4638 19.9605C33.8306 19.9605 34.1292 20.2589 34.1292 20.6259C34.1292 20.9929 33.8306 21.2913 33.4638 21.2913Z" fill="white"/>
<path d="M24.4856 7.06035L22.5868 5.16152C22.7094 4.9152 22.7789 4.63777 22.7789 4.34441C22.7789 3.33012 21.9536 2.50488 20.9393 2.50488C19.925 2.50488 19.0998 3.33012 19.0998 4.34441C19.0998 5.35871 19.925 6.18395 20.9393 6.18395C21.2327 6.18395 21.5101 6.11449 21.7565 5.99184L23.2402 7.47551L17.393 13.3225C17.2829 13.4326 17.2211 13.5819 17.2211 13.7376V35.6554C17.2211 35.9796 17.484 36.2425 17.8082 36.2425C18.1324 36.2425 18.3953 35.9796 18.3953 35.6554V13.9808L24.4856 7.89051C24.7148 7.66137 24.7148 7.28949 24.4856 7.06035ZM20.9393 5.00965C20.5725 5.00965 20.274 4.71121 20.274 4.34426C20.274 3.97738 20.5724 3.67887 20.9393 3.67887C21.3062 3.67887 21.6047 3.9773 21.6047 4.34426C21.6047 4.71121 21.3062 5.00965 20.9393 5.00965Z" fill="white"/>
<path d="M15.0529 19.549L12.6344 17.5336C12.7146 17.3273 12.7591 17.1032 12.7591 16.8688C12.7591 15.8545 11.9339 15.0293 10.9196 15.0293C9.90531 15.0293 9.08008 15.8545 9.08008 16.8688C9.08008 17.8831 9.90531 18.7084 10.9196 18.7084C11.2724 18.7084 11.6022 18.6083 11.8825 18.4354L14.0899 20.2748V32.5244C14.0899 32.8486 14.3527 33.1115 14.677 33.1115C15.0012 33.1115 15.2641 32.8486 15.2641 32.5244V20C15.2641 19.8258 15.1867 19.6605 15.0529 19.549ZM10.9198 17.5342C10.5529 17.5342 10.2544 17.2358 10.2544 16.8688C10.2544 16.5019 10.5528 16.2034 10.9198 16.2034C11.2867 16.2034 11.5852 16.5019 11.5852 16.8688C11.5852 17.2358 11.2866 17.5342 10.9198 17.5342Z" fill="white"/>
<path d="M22.8181 30.3721C22.4938 30.3721 22.231 30.635 22.231 30.9592V36.9083C22.231 37.2325 22.4938 37.4954 22.8181 37.4954C23.1424 37.4954 23.4052 37.2325 23.4052 36.9083V30.9592C23.4052 30.635 23.1423 30.3721 22.8181 30.3721Z" fill="white"/>
<path d="M20.3131 20.6655C19.9888 20.6655 19.726 20.9284 19.726 21.2526V35.6558C19.726 35.98 19.9888 36.2429 20.3131 36.2429C20.6374 36.2429 20.9002 35.98 20.9002 35.6558V21.2526C20.9002 20.9283 20.6373 20.6655 20.3131 20.6655Z" fill="white"/>
<path d="M20.3131 15.0293C19.9888 15.0293 19.726 15.2922 19.726 15.6164V17.4951C19.726 17.8193 19.9888 18.0822 20.3131 18.0822C20.6374 18.0822 20.9002 17.8193 20.9002 17.4951V15.6163C20.9002 15.2921 20.6373 15.0293 20.3131 15.0293Z" fill="white"/>
<path d="M25.3228 19.4131C24.9985 19.4131 24.7357 19.676 24.7357 20.0002V35.0296C24.7357 35.3538 24.9985 35.6167 25.3228 35.6167C25.6471 35.6167 25.9099 35.3538 25.9099 35.0296V20.0002C25.9099 19.676 25.647 19.4131 25.3228 19.4131Z" fill="white"/>
<path d="M25.3228 13.7773C24.9985 13.7773 24.7357 14.0402 24.7357 14.3645V16.8694C24.7357 17.1936 24.9985 17.4565 25.3228 17.4565C25.6471 17.4565 25.9099 17.1936 25.9099 16.8694V14.3645C25.9099 14.0402 25.647 13.7773 25.3228 13.7773Z" fill="white"/>
<path d="M18.2233 8.93906C17.994 8.70977 17.6223 8.70977 17.3931 8.93906L13.0095 13.3227C12.7802 13.5519 12.7802 13.9237 13.0095 14.1529L15.5144 16.6578C15.7532 16.8966 16.1563 16.8805 16.3759 16.6241C16.5727 16.3944 16.5585 16.0412 16.3447 15.8276L14.2549 13.7378L18.2233 9.76937C18.4526 9.54 18.4526 9.16828 18.2233 8.93906Z" fill="white"/>
</g>
<defs>
<clipPath id="clip0">
<rect width="40" height="40" fill="white"/>
</clipPath>
</defs>
</svg>
