<svg width="40" height="40" viewBox="0 0 40 40" fill="none" xmlns="http://www.w3.org/2000/svg">
<g clip-path="url(#clip0)">
<path d="M28.6666 0C24.207 0.00621773 20.165 2.62543 18.3373 6.69333C15.9051 6.7773 13.5188 7.37866 11.3373 8.45733C5.82063 8.41667 2.48197 11.4733 1.97663 16.7167C1.3053 23.722 4.94463 32.168 0.6433 33.1527C0.352515 33.1717 0.10702 33.3757 0.035201 33.6581C-0.0366175 33.9405 0.0815746 34.2371 0.327966 34.3927C1.23863 35.2513 2.43197 38.146 11.4366 38.602C11.6969 39.4314 12.4641 39.9969 13.3333 40H19.3333C20.2033 39.9967 20.9709 39.4303 21.2306 38.6C30.5013 38.1333 31.6073 35.008 32.426 34.326C32.6291 34.152 32.7086 33.8734 32.6278 33.6183C32.547 33.3633 32.3216 33.1813 32.0553 33.156C28.9533 32.464 29.9406 28.122 30.5453 22.4947C36.3489 21.5129 40.4334 16.2496 39.9435 10.384C39.4536 4.51837 34.5527 0.00546936 28.6666 0V0ZM1.87463 34.1333C6.29197 32.0333 2.66197 23.5507 3.3033 16.8413C3.75197 12.1927 6.6793 9.684 11.486 9.79067C11.6022 9.79297 11.717 9.76518 11.8193 9.71C13.6854 8.75408 15.7272 8.18943 17.8193 8.05067C17.0892 10.4423 17.1805 13.0096 18.0786 15.3433C17.5726 15.3367 17.0053 15.3333 16.3333 15.3333C13.1406 15.3333 11.9426 13.5093 11.5133 12.4213C11.4364 12.227 11.2728 12.0799 11.0713 12.0241C10.8699 11.9683 10.6539 12.0102 10.488 12.1373C8.5833 13.5953 7.6473 16.0707 7.6213 19.6813C7.23031 19.5578 6.80693 19.5878 6.4373 19.7653C5.6933 20.1407 5.3333 21.0807 5.3333 22.64C5.3333 26 7.3133 26.982 8.38263 27.2667C8.91082 29.249 9.92497 31.0683 11.3333 32.56V37.2613C10.5926 37.22 9.86663 37.1613 9.19197 37.072C4.10997 36.4193 2.66263 35.0533 1.87463 34.1333V34.1333ZM16.862 23.1333C17.1223 23.3936 17.5443 23.3936 17.8046 23.1333L21.15 19.7873C21.9168 20.47 22.7729 21.0452 23.6946 21.4973C23.622 24.114 23.3613 26.4973 22.2693 28.8127C20.874 31.7913 18.876 33.302 16.336 33.302C13.776 33.302 11.772 31.7913 10.38 28.8133C9.18597 26.2667 8.94663 23.4913 8.94663 19.8467C8.94663 17.034 9.51797 15.0293 10.6886 13.7533C11.434 15 13.0446 16.6667 16.3333 16.6667C17.296 16.6667 18.0466 16.6727 18.6866 16.6967C19.1083 17.4708 19.6186 18.1932 20.2073 18.8493L16.862 22.1953C16.6017 22.4557 16.6017 22.8777 16.862 23.138V23.1333ZM25.9953 22.3333C26.044 23.652 25.7826 25.0153 24.6446 25.692C24.8546 24.4881 24.9782 23.2708 25.0146 22.0493C25.3337 22.1596 25.6597 22.2542 25.9926 22.3333H25.9953ZM7.62863 21.1247C7.63856 22.6559 7.77233 24.1837 8.02863 25.6933C7.3273 25.2793 6.66663 24.4187 6.66663 22.64C6.66663 21.1593 7.0213 20.9633 7.03663 20.956C7.1073 20.9187 7.3173 20.9493 7.62597 21.126L7.62863 21.1247ZM19.3333 38.6667H13.3333C12.9651 38.6667 12.6666 38.3682 12.6666 38V33.6167C14.9197 34.9884 17.7509 34.9843 20 33.606V38C20 38.3682 19.7015 38.6667 19.3333 38.6667ZM30.804 34.1373C30.016 35.0547 28.5686 36.4193 23.4866 37.0707C22.794 37.162 22.076 37.2193 21.3333 37.26V32.5387C22.7339 31.0559 23.7394 29.2449 24.2573 27.272C26.0773 26.7987 27.342 25.2867 27.332 22.578C27.9463 22.6663 28.5686 22.6862 29.1873 22.6373C28.6666 27.2987 27.5386 32.5847 30.804 34.1373ZM28.6666 21.3333C23.1438 21.3333 18.6666 16.8562 18.6666 11.3333C18.6666 5.81049 23.1438 1.33333 28.6666 1.33333C34.1895 1.33333 38.6666 5.81049 38.6666 11.3333C38.6604 16.8536 34.1869 21.3271 28.6666 21.3333Z" fill="white"/>
<path d="M37.0408 9.13726C35.8971 4.79024 31.6174 2.0411 27.1884 2.80834C22.7594 3.57558 19.6538 7.60408 20.039 12.0825C20.4241 16.5609 24.1718 20.0001 28.6668 19.9999C31.3523 20.0009 33.8862 18.7554 35.5259 16.6285C37.1655 14.5016 37.7252 11.7341 37.0408 9.13726ZM21.4608 9.99993H22.7888C23.3801 10.0054 23.942 9.74262 24.3168 9.28526C25.4224 8.04466 27.005 7.33513 28.6668 7.33513C30.3285 7.33513 31.9112 8.04466 33.0168 9.28526C33.3916 9.74262 33.9535 10.0054 34.5448 9.99993H35.8728C35.9559 10.4396 35.9985 10.8859 36.0001 11.3333H34.6921C33.6628 11.3635 32.6744 10.9295 32.0001 10.1513C31.1486 9.2065 29.9363 8.66716 28.6644 8.66716C27.3926 8.66716 26.1803 9.2065 25.3288 10.1513C24.6553 10.9279 23.6691 11.3617 22.6414 11.3333H21.3334C21.3351 10.8859 21.3777 10.4396 21.4608 9.99993V9.99993ZM28.6668 3.99993C31.6845 4.0048 34.3917 5.85616 35.4908 8.6666H34.5448C34.3564 8.66998 34.1764 8.58935 34.0535 8.4466C32.694 6.89379 30.7306 6.00318 28.6668 6.00318C26.603 6.00318 24.6396 6.89379 23.2801 8.4466C23.0554 8.72526 22.7954 8.66726 21.8428 8.66726C22.9417 5.85656 25.6489 4.00491 28.6668 3.99993V3.99993ZM28.6668 18.6666C25.134 18.6609 22.1062 16.1399 21.4608 12.6666H22.6414C24.0776 12.704 25.4523 12.0839 26.3748 10.9826C26.9726 10.3553 27.8013 10.0002 28.6678 10.0002C29.5343 10.0002 30.363 10.3553 30.9608 10.9826C31.8826 12.0837 33.2566 12.7038 34.6921 12.6666H35.8728C35.2273 16.1399 32.1996 18.6609 28.6668 18.6666V18.6666Z" fill="white"/>
<path d="M19.9999 25.3333C20.3681 25.3333 20.6666 25.0348 20.6666 24.6667C20.6666 24.2985 20.3681 24 19.9999 24C19.6317 24 19.3333 24.2985 19.3333 24.6667C19.3333 25.0348 19.6317 25.3333 19.9999 25.3333Z" fill="white"/>
<path d="M18.6668 27.3333C19.035 27.3333 19.3335 27.0348 19.3335 26.6667C19.3335 26.2985 19.035 26 18.6668 26C18.2986 26 18.0001 26.2985 18.0001 26.6667C18.0001 27.0348 18.2986 27.3333 18.6668 27.3333Z" fill="white"/>
<path d="M21.3332 27.3333C21.7014 27.3333 21.9998 27.0348 21.9998 26.6667C21.9998 26.2985 21.7014 26 21.3332 26C20.965 26 20.6665 26.2985 20.6665 26.6667C20.6665 27.0348 20.965 27.3333 21.3332 27.3333Z" fill="white"/>
<path d="M12.6665 25.3333C13.0347 25.3333 13.3332 25.0348 13.3332 24.6667C13.3332 24.2985 13.0347 24 12.6665 24C12.2984 24 11.9999 24.2985 11.9999 24.6667C11.9999 25.0348 12.2984 25.3333 12.6665 25.3333Z" fill="white"/>
<path d="M11.3332 27.3333C11.7014 27.3333 11.9998 27.0348 11.9998 26.6667C11.9998 26.2985 11.7014 26 11.3332 26C10.965 26 10.6665 26.2985 10.6665 26.6667C10.6665 27.0348 10.965 27.3333 11.3332 27.3333Z" fill="white"/>
<path d="M13.9999 27.3333C14.3681 27.3333 14.6666 27.0348 14.6666 26.6667C14.6666 26.2985 14.3681 26 13.9999 26C13.6317 26 13.3333 26.2985 13.3333 26.6667C13.3333 27.0348 13.6317 27.3333 13.9999 27.3333Z" fill="white"/>
<path d="M28.6667 11.333C27.3371 11.3805 26.2235 12.3548 26 13.6663C26 15.8843 31.3333 15.8923 31.3333 13.6663C31.1098 12.3548 29.9962 11.3805 28.6667 11.333ZM28.6667 13.9997C28.196 14.0367 27.7273 13.9082 27.3413 13.6363C27.5774 13.0989 28.083 12.7288 28.6667 12.6663C29.2456 12.7341 29.7513 13.0893 30.0113 13.611C29.6299 13.909 29.1482 14.0482 28.6667 13.9997Z" fill="white"/>
</g>
<defs>
<clipPath id="clip0">
<rect width="40" height="40" fill="white"/>
</clipPath>
</defs>
</svg>
