<svg width="100" height="85" viewBox="0 0 100 85" fill="none" xmlns="http://www.w3.org/2000/svg">
<path d="M97.9928 41.709C98.0699 41.819 98.1886 42.0236 98.3157 42.2585C98.23 42.4082 98.1387 42.5552 98.0421 42.6991L98.0211 42.7304L98.0017 42.7627C97.2206 44.0627 92.1464 53.1507 87.0383 62.2995L86.8001 62.7261C81.6052 72.0303 76.4446 81.2714 75.6558 82.5847C75.5633 82.7314 75.4848 82.8739 75.4236 82.9868C75.3768 83.0731 75.3422 83.1381 75.3096 83.1975C75.3086 83.1974 75.3076 83.1974 75.3066 83.1974L75.2891 83.1966L75.2717 83.1963C74.5589 83.1832 73.8304 83.1876 73.1253 83.1919C72.7835 83.194 72.4472 83.1961 72.1209 83.1961H29.3465H26.2267H26.194L26.1736 83.1969C26.0851 83.0596 26.0052 82.9176 25.9342 82.7717L25.9052 82.712L25.871 82.6551C18.1032 69.7268 10.3432 56.7953 2.591 43.8606C2.59015 43.8592 2.58931 43.8578 2.58846 43.8564L2.54726 43.7865L2.54722 43.7865L2.53927 43.773C2.26994 43.3168 1.98432 42.8331 1.6742 42.3485C2.01212 41.8074 2.36048 41.2176 2.69677 40.6482C2.96806 40.1888 3.23149 39.7428 3.47524 39.3464L3.47947 39.3395L3.48363 39.3326C10.5621 27.5386 17.644 15.7425 24.7291 3.94421L24.7343 3.93558L24.7394 3.92688C24.9056 3.64146 25.0976 3.32397 25.2973 2.99386C25.5938 2.50362 25.9071 1.98553 26.1779 1.50325L26.1837 1.50348L26.1978 1.50375C26.8823 1.51692 27.5831 1.51246 28.2606 1.50816C28.5885 1.50607 28.9109 1.50402 29.2233 1.50402H73.2496H75.2473H75.2828L75.3183 1.50234C75.3188 1.50232 75.3193 1.5023 75.3197 1.50228C75.3866 1.60681 75.4465 1.71506 75.499 1.82638L75.5309 1.89384L75.5693 1.9578C76.3453 3.25098 81.4592 12.3626 86.6306 21.5767L86.7285 21.751C91.9093 30.9819 97.1221 40.2692 97.9357 41.6211L97.9627 41.6661L97.9928 41.709Z" fill="white" stroke="#1FDE82" stroke-width="3"/>
<path d="M53.108 32.6371C53.1219 31.8236 53.1616 30.8988 53.1514 29.9741C53.1514 29.9491 53.1508 29.9236 53.1532 29.8987C53.1652 29.7747 53.1839 29.7533 53.3145 29.7753C53.4764 29.8026 53.6382 29.8182 53.8019 29.8107C54.1739 29.7927 54.5103 29.6803 54.7775 29.4259C54.9749 29.2382 55.1049 29.0018 55.2174 28.7602C55.389 28.3928 55.5533 28.0226 55.7182 27.6523C55.9595 27.1106 56.2652 26.6059 56.6859 26.1748C57.0121 25.8411 57.396 25.5803 57.8468 25.4227C58.1146 25.3289 58.3884 25.3602 58.6587 25.4164C59.1859 25.5259 59.6818 25.7223 60.1686 25.939C61.2965 26.4408 62.3846 27.0196 63.4997 27.5446C64.4579 27.9959 65.4316 28.4096 66.4493 28.7214C67.1552 28.9375 67.875 29.1055 68.6129 29.1559C69.4705 29.215 70.325 29.1808 71.1477 28.8917C71.5106 28.7642 71.8796 28.6605 72.2659 28.6171C72.4024 28.6009 72.5409 28.6148 72.671 28.6576C72.7997 28.6993 72.8455 28.7683 72.8473 28.8992C72.8491 29.0157 72.8088 29.1217 72.7582 29.2249C72.6198 29.5076 72.4206 29.751 72.1883 29.9636C71.7243 30.3889 71.1959 30.7209 70.5868 30.926C70.2301 31.0506 69.8556 31.1219 69.4765 31.1375C69.2875 31.1439 69.2664 31.1607 69.2983 31.3351C69.3308 31.5136 69.249 31.6266 69.0997 31.7071C68.8783 31.8265 68.6327 31.8647 68.3854 31.8913C67.7059 31.9655 67.0439 31.8734 66.3921 31.692L66.2976 31.6671C66.2182 31.6463 66.1694 31.6746 66.1568 31.7523C66.1478 31.8079 66.1442 31.8647 66.1375 31.9209C66.0695 32.5061 65.7644 32.779 65.2487 32.8769C64.8845 32.9459 64.5331 32.8845 64.1804 32.8167C64.0396 32.7894 63.9018 32.7489 63.7633 32.7112C63.5262 32.6463 63.5268 32.6452 63.4221 32.8514C63.3505 32.9928 63.2783 33.1336 63.1766 33.2588C62.9274 33.5653 62.6006 33.7206 62.1998 33.7455C61.802 33.7698 61.4192 33.6985 61.0419 33.5861C60.892 33.5415 60.7422 33.4963 60.5911 33.4564C60.3961 33.4042 60.3961 33.4065 60.3023 33.574C60.271 33.629 60.2391 33.6841 60.2036 33.7368C59.952 34.1088 59.5765 34.2368 59.1395 34.2142C58.5991 34.1864 58.1116 33.99 57.6434 33.742C57.5977 33.7177 57.5531 33.691 57.5068 33.6673C57.2348 33.5253 57.2317 33.5241 56.9982 33.7293C56.8725 33.8393 56.7545 33.9575 56.6293 34.0682C56.27 34.3846 55.8385 34.4663 55.3703 34.4136C54.6385 34.3313 53.944 34.1059 53.2477 33.888C53.1309 33.8515 53.105 33.7768 53.1062 33.6719C53.1098 33.3648 53.108 33.0566 53.108 32.6371ZM50.445 33.0786C50.445 33.326 50.442 33.5085 50.4462 33.691C50.4486 33.7936 50.4052 33.8533 50.3029 33.8874C49.6096 34.1157 48.9127 34.3301 48.1815 34.4164C47.6645 34.4773 47.2096 34.3539 46.837 33.9894C46.7359 33.8909 46.633 33.7942 46.5277 33.6997C46.3453 33.5369 46.3116 33.5282 46.0992 33.6452C45.8205 33.7988 45.5347 33.935 45.2344 34.045C44.9605 34.1506 44.6698 34.2098 44.375 34.22C43.8941 34.2293 43.5125 34.0485 43.2796 33.6221C43.1605 33.4036 43.1581 33.4048 42.9053 33.4755C42.6856 33.5369 42.4666 33.6 42.2463 33.6586C41.9995 33.7206 41.7454 33.7515 41.4904 33.7507C40.906 33.7571 40.495 33.4981 40.22 33.0154C40.182 32.9494 40.1501 32.8804 40.1164 32.812C40.0364 32.6486 40.037 32.6486 39.8492 32.6973C39.6916 32.7385 39.5357 32.7871 39.3756 32.8184C39.0362 32.8845 38.6973 32.947 38.3465 32.8839C37.7669 32.7802 37.4654 32.4667 37.4185 31.9C37.3962 31.6295 37.3938 31.6254 37.132 31.7042C36.6602 31.8456 36.1739 31.9058 35.684 31.9215C35.3392 31.9325 34.9913 31.9035 34.6597 31.7917C34.5853 31.7678 34.5134 31.7374 34.4448 31.7007C34.3034 31.6208 34.23 31.5118 34.2643 31.3403C34.2986 31.1677 34.2709 31.1474 34.0844 31.1387C33.1401 31.0952 32.327 30.7412 31.6066 30.167C31.3319 29.9529 31.0948 29.6975 30.9043 29.4109C30.8207 29.2822 30.7478 29.1478 30.719 28.9972C30.6786 28.788 30.7478 28.6959 30.9579 28.6362C31.1631 28.5788 31.3611 28.6281 31.5591 28.6582C31.8113 28.6964 32.055 28.7712 32.2951 28.8546C32.9349 29.0777 33.5939 29.1721 34.2745 29.1768C35.2344 29.1837 36.1576 29.0041 37.067 28.7335C38.0125 28.4525 38.9218 28.0834 39.8071 27.6604C40.773 27.1992 41.7293 26.7183 42.6959 26.2577C43.2754 25.9813 43.8574 25.7072 44.4785 25.523C44.7355 25.4465 44.996 25.388 45.2633 25.3642C45.5335 25.3405 45.7784 25.4291 46.0125 25.5485C46.6372 25.8672 47.0976 26.3458 47.4563 26.9246C47.762 27.4188 47.9805 27.9513 48.214 28.478C48.3217 28.7214 48.4409 28.9589 48.5859 29.1849C48.8501 29.5957 49.2515 29.7724 49.733 29.8083C49.8756 29.8188 50.0195 29.8124 50.1627 29.7875C50.336 29.7574 50.3667 29.7823 50.3908 29.9544C50.4022 30.0349 50.4034 30.1172 50.404 30.1989L50.4131 32.144C50.4131 32.4777 50.4672 32.8091 50.445 33.0786ZM47.1175 36.4218C47.3817 36.4027 47.6675 36.4346 47.9534 36.4624C48.1111 36.478 48.2609 36.529 48.3951 36.6095C48.8537 36.8842 49.2221 37.2428 49.4694 37.7093C49.4784 37.7261 49.4869 37.7435 49.4947 37.7603C49.6584 38.1085 49.612 38.2418 49.2624 38.4121C48.6979 38.6873 48.0948 38.765 47.4713 38.7215C47.3143 38.7076 47.1618 38.6632 47.023 38.5911C46.7786 38.4706 46.5301 38.3576 46.2882 38.2325C45.8946 38.0291 45.4703 37.9387 45.0303 37.9011C44.5679 37.8652 44.104 37.8511 43.6401 37.8588C43.4897 37.8604 43.3399 37.8795 43.1942 37.9155C42.6676 38.043 42.4455 38.5494 42.7115 39.0101C42.8018 39.1665 42.9276 39.2934 43.0732 39.4029C43.5462 39.761 44.0825 40.0067 44.638 40.2158C45.7351 40.6278 46.8755 40.8659 48.0425 40.9946C48.6136 41.0571 49.1859 41.0936 49.7613 41.1081C50.8452 41.1354 51.9279 41.1846 52.9943 41.4013C54.1239 41.6308 55.2307 41.9234 56.2574 42.4483C56.8538 42.7531 57.3804 43.139 57.7686 43.6807C58.102 44.146 58.2861 44.6571 58.2416 45.2249C58.2049 45.6919 58.0249 46.1178 57.7644 46.5106C57.3557 47.1254 56.802 47.6011 56.1906 48.0194C55.6237 48.407 55.0134 48.7217 54.3881 49.0114C54.2702 49.0664 54.1757 49.067 54.0613 48.9975C53.7508 48.8107 53.4245 48.6494 53.0858 48.5154C53.0154 48.487 52.9275 48.4673 52.9179 48.3752C52.907 48.2697 52.8902 48.1602 52.9365 48.0588C52.9654 47.9968 53.0388 47.9852 53.099 47.9615C53.5155 47.7952 53.9355 47.6364 54.34 47.4435C54.7348 47.2552 55.1061 47.0298 55.4239 46.736C55.7976 46.3907 56.066 45.9833 56.0474 45.4601C56.0317 45.0244 55.8217 44.6634 55.5177 44.3523C55.1163 43.9403 54.6174 43.6657 54.0824 43.4524C53.5218 43.2237 52.93 43.0738 52.3251 43.0075C52.1301 42.9872 51.9339 42.9808 51.7389 42.9698C50.9956 42.9275 50.2548 42.862 49.5133 42.8047C48.5288 42.7288 47.5514 42.6071 46.5945 42.3608C45.4444 42.0653 44.3491 41.6458 43.3338 41.0427C42.7007 40.6666 42.1241 40.2245 41.6661 39.6555C41.4284 39.36 41.2431 39.0373 41.1745 38.6595C41.1052 38.2759 41.2202 37.9515 41.4802 37.6658C41.6547 37.474 41.8653 37.3269 42.1001 37.2098C42.6056 36.9589 43.1484 36.8222 43.7033 36.7266C44.2179 36.6379 44.7385 36.5956 45.2602 36.5667C45.5076 36.5533 45.7537 36.5151 45.9999 36.4855C46.3622 36.4432 46.7263 36.4091 47.1175 36.4218Z" fill="#1FDE82"/>
<path d="M50.9251 39.2252C50.9251 39.005 50.9323 38.7843 50.9239 38.5641C50.8836 37.476 50.9094 36.3867 50.8763 35.2991C50.8499 34.4369 50.8751 33.5748 50.8402 32.7138C50.8041 31.8267 50.836 30.939 50.7993 30.0525C50.7662 29.2535 50.7951 28.4539 50.7614 27.6561C50.7367 27.0645 50.7343 26.4735 50.7301 25.8825C50.7321 25.8357 50.7214 25.7893 50.699 25.7477C50.6766 25.7061 50.6434 25.6709 50.6025 25.6455C50.1132 25.3014 49.8526 24.8297 49.8033 24.2544C49.7705 23.8679 49.871 23.4818 50.0891 23.1558C50.4641 22.577 51.0202 22.2629 51.7177 22.256C52.9027 22.2444 53.673 23.1906 53.6875 24.0498C53.6989 24.7069 53.4389 25.2226 52.9165 25.6241C52.8695 25.6568 52.8317 25.7003 52.8064 25.7505C52.7811 25.8008 52.7691 25.8563 52.7715 25.9121C52.754 26.8559 52.748 27.7998 52.7263 28.7431C52.7047 29.6614 52.7221 30.581 52.6866 31.4982C52.6535 32.3476 52.6854 33.1976 52.6499 34.0458C52.6102 34.9833 52.6469 35.9214 52.609 36.8577C52.5729 37.7575 52.5988 38.6574 52.5723 39.5566C52.5614 39.9338 52.5464 40.311 52.541 40.6882C52.5386 40.8499 52.5001 40.8852 52.3412 40.8591C51.9416 40.7937 51.5377 40.7659 51.1357 40.7207C50.9576 40.701 50.9371 40.6853 50.9359 40.5086C50.9323 40.0804 50.9347 39.6528 50.9347 39.2246L50.9251 39.2252ZM49.5144 43.2202C49.4657 43.3031 49.3934 43.3031 49.3363 43.3234C48.8091 43.5128 48.3228 43.7672 47.9448 44.1774C47.526 44.6328 47.3238 45.1566 47.5025 45.7633C47.6349 46.2123 47.9244 46.5681 48.2957 46.863C48.7495 47.2228 49.2652 47.476 49.8033 47.6962C50.8384 48.1192 51.8916 48.4975 52.934 48.9037C53.6718 49.187 54.3377 49.6195 54.8869 50.172C55.3413 50.6298 55.6849 51.1541 55.7999 51.7909C55.9142 52.4248 55.8065 53.0308 55.5314 53.6126C55.1697 54.3785 54.6155 54.9985 53.9601 55.5432C53.7964 55.6787 53.6225 55.8016 53.4521 55.9285C53.3679 55.9916 53.2963 55.9974 53.2072 55.9302C53.1151 55.8607 53.0116 55.8039 52.9105 55.7471C52.8166 55.6944 52.7691 55.6243 52.7727 55.5171C52.7781 55.3473 52.7799 55.177 52.7751 55.0072C52.7715 54.8815 52.828 54.7975 52.9292 54.721C53.3441 54.4133 53.707 54.0454 54.0046 53.6305C54.2622 53.2655 54.4355 52.8727 54.4247 52.4161C54.4133 51.9456 54.1948 51.5696 53.8752 51.2393C53.4082 50.7566 52.825 50.4345 52.2112 50.1599C51.5287 49.8539 50.8077 49.643 50.1066 49.3823C49.048 48.9883 48.0339 48.5108 47.1234 47.8497C46.5661 47.4453 46.075 46.9795 45.7103 46.3995C45.4587 45.9985 45.3052 45.5657 45.2884 45.0981C45.2733 44.6809 45.3919 44.2864 45.6007 43.9225C45.8379 43.5105 46.1622 43.1669 46.5462 42.8749C46.6293 42.8118 46.7111 42.8112 46.8032 42.8326C47.2287 42.9317 47.6596 43.0088 48.0929 43.0673C48.4095 43.1102 48.7266 43.1478 49.0462 43.1681C49.199 43.1779 49.3501 43.2017 49.5144 43.2202ZM53.8632 41.095C54.0756 41.0868 54.2881 41.0677 54.4999 41.0573C55.2041 41.0205 55.9052 40.9412 56.5991 40.8197C57.5078 40.6673 58.395 40.4138 59.2429 40.0642C59.6756 39.8834 60.0909 39.6713 60.4634 39.3886C60.5928 39.2901 60.7047 39.1771 60.7938 39.0433C60.925 38.8474 60.9557 38.6371 60.9045 38.4105C60.851 38.173 60.7035 38.0206 60.4694 37.9418C60.3029 37.8846 60.128 37.8529 59.9512 37.8479C59.3568 37.8306 58.7619 37.8571 58.1717 37.9273C57.8045 37.9742 57.4645 38.1029 57.1383 38.2674C56.9355 38.3694 56.7315 38.4691 56.5281 38.5693C56.3265 38.6684 56.1134 38.7142 55.8865 38.7188C55.322 38.7304 54.7798 38.6469 54.2718 38.399C53.9252 38.2298 53.8728 38.104 54.0329 37.7651C54.276 37.25 54.6726 36.8658 55.1728 36.5784C55.4352 36.4272 55.7367 36.4261 56.0286 36.411C56.7291 36.3751 57.4236 36.4498 58.1175 36.539C58.3564 36.5697 58.5989 36.5767 58.8391 36.5958C59.6564 36.6607 60.4598 36.787 61.2211 37.0993C61.5064 37.2164 61.7645 37.3734 61.9854 37.5849C62.391 37.9731 62.4771 38.4273 62.2857 38.9378C62.1527 39.293 61.9355 39.5972 61.6731 39.8741C61.0935 40.486 60.399 40.9518 59.6443 41.3395C58.8409 41.7494 57.9931 42.0727 57.116 42.3036C57.0113 42.3314 56.9174 42.3407 56.8169 42.2804C56.0045 41.7931 55.1156 41.4837 54.1984 41.2392C54.0859 41.2091 53.9745 41.1767 53.8626 41.1454L53.8632 41.095Z" fill="#1FDE82"/>
<path d="M52.7457 60.9511C52.7463 60.819 52.7571 60.6875 52.7661 60.5554C52.7698 60.4992 52.7853 60.4443 52.8115 60.3941C52.8378 60.3438 52.8743 60.2991 52.919 60.2628C53.0809 60.1162 53.2295 59.9586 53.3553 59.7795C53.6219 59.4 53.64 59.0072 53.4444 58.5981C53.335 58.3759 53.192 58.1704 53.0201 57.9885C52.5525 57.481 52.0054 57.0649 51.4144 56.6987C50.9312 56.3992 50.416 56.1483 49.9586 55.8093C49.3002 55.322 48.7201 54.7658 48.2879 54.0769C47.9377 53.5177 47.7144 52.9215 47.7168 52.2581C47.7186 51.7273 47.8751 51.2412 48.1604 50.7915C48.4541 50.3286 48.8446 49.9525 49.2918 49.6269C49.3785 49.5637 49.4543 49.5446 49.5608 49.5875C49.8744 49.7127 50.1927 49.8274 50.5099 49.9456C50.6856 50.0111 50.6862 50.0273 50.7055 50.2057C50.7283 50.4161 50.6405 50.5389 50.4539 50.6455C50.0979 50.8471 49.7871 51.115 49.5397 51.4335C49.11 51.9898 49.0577 52.5854 49.3399 53.2153C49.4735 53.5131 49.6631 53.7773 49.8888 54.0154C50.2956 54.4442 50.7452 54.8266 51.2357 55.1656C51.7358 55.5104 52.2588 55.8198 52.7842 56.1269C53.4107 56.4931 53.9631 56.9398 54.373 57.5337C54.639 57.9196 54.7961 58.346 54.8123 58.8078C54.8232 59.1167 54.7527 59.4203 54.6384 59.7117C54.5212 59.999 54.3637 60.2694 54.1702 60.5154C53.8841 60.8834 53.5502 61.2144 53.1766 61.5004C53.0399 61.607 53.0315 61.5972 52.8967 61.4865C52.7818 61.3927 52.7288 61.2831 52.7439 61.1389C52.7511 61.0774 52.7457 61.0143 52.7457 60.9511Z" fill="#1FDE82"/>
<path d="M52.6661 67.0906C52.6161 67.0378 52.6228 66.9857 52.6282 66.937C52.6787 66.4787 52.648 66.0192 52.6541 65.5603C52.6589 65.2144 52.7167 64.872 52.698 64.5249C52.6529 63.7016 52.3285 63.0156 51.649 62.4987C51.2187 62.1714 50.7794 61.8533 50.3581 61.5155C49.8177 61.0821 49.3344 60.5954 49.0263 59.9754C48.6959 59.3102 48.661 58.6329 48.9745 57.9509C49.2243 57.408 49.6335 56.9891 50.1047 56.6194C50.1691 56.569 50.2311 56.5586 50.3003 56.6049L50.3172 56.6148C50.8131 56.908 50.7108 56.7683 50.7475 57.291C50.7716 57.6398 50.6969 57.9243 50.4279 58.1711C50.2726 58.313 50.1703 58.5031 50.0885 58.6972C49.9248 59.0866 49.9537 59.458 50.2028 59.8097C50.4075 60.0982 50.6608 60.3433 50.9389 60.5629C51.4637 60.9778 52.0107 61.3683 52.5211 61.7988C53.1295 62.3122 53.5201 62.9541 53.6074 63.7456C53.7398 64.9421 53.3895 66.0216 52.7461 67.0292C52.7356 67.045 52.723 67.0596 52.7088 67.0726C52.6998 67.0796 52.686 67.0825 52.6661 67.0906ZM52.506 44.5856C52.4627 45.7351 52.4639 46.8847 52.4621 48.0348C52.4621 48.0539 52.4627 48.0725 52.4609 48.0916C52.45 48.2475 52.4175 48.2747 52.2659 48.2197C51.9054 48.0893 51.5491 47.9491 51.1892 47.8164C51.0911 47.7799 51.0394 47.7214 51.0466 47.6182C51.0478 47.5997 51.046 47.5806 51.046 47.5614C51.0285 46.3366 50.9948 45.1117 51.0045 43.8862C51.0081 43.7543 51.0026 43.6223 50.9882 43.4911C50.978 43.4111 51.0069 43.352 51.1056 43.359C51.5088 43.3879 51.9132 43.3926 52.314 43.4447C52.4982 43.4685 52.5042 43.4801 52.5054 43.6614C52.5078 43.9697 52.506 44.2773 52.506 44.5856ZM52.4236 51.1712C52.3634 52.2193 52.4037 53.2762 52.3778 54.3313C52.3706 54.639 52.3562 54.9466 52.3495 55.2543C52.3465 55.4084 52.3213 55.4189 52.1798 55.3378C51.8651 55.1576 51.5726 54.9455 51.2741 54.7427C51.1579 54.6639 51.1278 54.5631 51.1278 54.435C51.129 53.8817 51.1393 53.3278 51.12 52.7756C51.0965 52.0154 51.0851 51.2549 51.0857 50.4944C51.0851 50.1908 51.0875 50.1891 51.3884 50.3055C51.6611 50.411 51.9277 50.5298 52.1949 50.6468C52.3688 50.7233 52.447 50.8322 52.4236 51.013C52.4175 51.0634 52.4236 51.1144 52.4236 51.1712Z" fill="#1FDE82"/>
<path d="M52.6028 68.8059C52.4433 68.7381 52.3338 68.6309 52.2158 68.5388C51.4599 67.9472 50.8545 67.238 50.4314 66.3897C50.1562 65.8318 49.9831 65.2324 49.9199 64.6178C49.8857 64.2799 49.8944 63.9392 49.9457 63.6033C50.0107 63.1444 50.2099 62.737 50.4826 62.3604C50.5181 62.3117 50.5403 62.2405 50.6234 62.2463C50.6836 62.2503 50.8118 62.3703 50.8238 62.4363C50.8328 62.4856 50.8328 62.5366 50.8328 62.5864C50.8334 63.2469 50.8479 63.908 50.8304 64.568C50.8088 65.389 51.0423 66.1464 51.3949 66.8787C51.6952 67.5034 52.081 68.0793 52.5083 68.6298C52.5456 68.6779 52.6004 68.7184 52.6028 68.8059ZM52.3229 59.2947C52.3229 59.6278 52.3265 59.9616 52.3217 60.2948C52.3187 60.4894 52.3049 60.6841 52.291 60.8782C52.2826 60.9935 52.2429 61.0132 52.143 60.9379C51.8601 60.7247 51.5839 60.5034 51.304 60.2872C51.2204 60.2223 51.2246 60.1343 51.224 60.0462C51.2228 59.6186 51.2312 59.1904 51.218 58.7628C51.2035 58.3039 51.1843 57.8455 51.1867 57.3866C51.1867 57.3554 51.1855 57.3235 51.1867 57.2922C51.1921 57.1357 51.2174 57.1213 51.354 57.2088C51.6531 57.4011 51.939 57.6097 52.2062 57.8426C52.2483 57.8771 52.2816 57.9204 52.3035 57.9692C52.3254 58.0181 52.3354 58.0711 52.3326 58.1242C52.3284 58.5142 52.3308 58.9041 52.3308 59.2941L52.3229 59.2947Z" fill="#1FDE82"/>
<path d="M52.2392 67.3339C52.1598 67.3246 52.1447 67.287 52.1267 67.2551C51.7812 66.645 51.4761 66.0198 51.3509 65.3274C51.3407 65.2718 51.3298 65.2156 51.3268 65.1594C51.2895 64.405 51.2889 63.6501 51.2871 62.8951V62.876C51.2949 62.8291 51.2691 62.7653 51.3328 62.7445C51.3816 62.7283 51.4129 62.7763 51.4484 62.8024C51.8938 63.1251 52.1357 63.5666 52.2554 64.08C52.2771 64.1733 52.2771 64.2671 52.2765 64.3616L52.2693 66.5708C52.2693 66.8223 52.226 67.0714 52.2392 67.3339ZM51.3906 68.367C51.5369 68.44 51.6199 68.5564 51.7325 68.6381C51.8727 68.7395 52.0015 68.856 52.1369 68.9643C52.1844 69.002 52.2217 69.0408 52.2157 69.1057C52.1862 69.4499 52.1549 69.794 52.0189 70.1191C51.975 70.2234 51.9359 70.352 51.8011 70.3613C51.6548 70.3717 51.6283 70.2292 51.5754 70.1336C51.5217 70.0259 51.4844 69.9114 51.4646 69.7935C51.3696 69.3485 51.3515 68.8977 51.3672 68.4452C51.3678 68.4267 51.3774 68.4087 51.3906 68.367Z" fill="#1FDE82"/>
</svg>
