<svg width="15" height="16" viewBox="0 0 15 16" fill="none" xmlns="http://www.w3.org/2000/svg">
<path d="M7.5 15.5C3.36445 15.5 0 12.1355 0 8C0 3.86445 3.36445 0.5 7.5 0.5C11.6355 0.5 15 3.86445 15 8C15 12.1355 11.6355 15.5 7.5 15.5ZM7.5 1.00864C3.64522 1.00864 0.508636 4.14488 0.508636 8C0.508636 11.8548 3.64522 14.9914 7.5 14.9914C11.3555 14.9914 14.4914 11.8548 14.4914 8C14.4914 4.14488 11.3555 1.00864 7.5 1.00864Z" fill="#222222"/>
<path d="M6.55819 10.6331C6.49308 10.6331 6.42798 10.6083 6.37847 10.5585C6.27912 10.4594 6.27912 10.298 6.37847 10.1987L8.68293 7.89151L6.37847 5.58468C6.27946 5.48533 6.27946 5.32392 6.37847 5.22491C6.47782 5.12555 6.63889 5.12555 6.73824 5.22491L9.22208 7.71145C9.32144 7.81081 9.32144 7.97188 9.22208 8.07123L6.73824 10.5578C6.6884 10.6083 6.62329 10.6331 6.55819 10.6331Z" fill="#222222"/>
</svg>
