<svg width="100" height="85" viewBox="0 0 100 85" fill="none" xmlns="http://www.w3.org/2000/svg">
<path d="M97.9928 41.709C98.0699 41.819 98.1886 42.0236 98.3157 42.2585C98.23 42.4082 98.1387 42.5552 98.0421 42.6991L98.0211 42.7304L98.0017 42.7627C97.2206 44.0627 92.1464 53.1507 87.0383 62.2995L86.8001 62.7261C81.6052 72.0303 76.4446 81.2714 75.6558 82.5847C75.5633 82.7314 75.4848 82.8739 75.4236 82.9868C75.3768 83.0731 75.3422 83.1381 75.3096 83.1975C75.3086 83.1974 75.3076 83.1974 75.3066 83.1974L75.2891 83.1966L75.2717 83.1963C74.5589 83.1832 73.8304 83.1876 73.1253 83.1919C72.7835 83.194 72.4472 83.1961 72.1209 83.1961H29.3465H26.2267H26.194L26.1736 83.1969C26.0851 83.0596 26.0052 82.9176 25.9342 82.7717L25.9052 82.712L25.871 82.6551C18.1032 69.7268 10.3432 56.7953 2.591 43.8606C2.59015 43.8592 2.58931 43.8578 2.58846 43.8564L2.54726 43.7865L2.54722 43.7865L2.53927 43.773C2.26994 43.3168 1.98432 42.8331 1.6742 42.3485C2.01212 41.8074 2.36048 41.2176 2.69677 40.6482C2.96806 40.1888 3.23149 39.7428 3.47524 39.3464L3.47947 39.3395L3.48363 39.3326C10.5621 27.5386 17.644 15.7425 24.7291 3.94421L24.7343 3.93558L24.7394 3.92688C24.9056 3.64146 25.0976 3.32397 25.2973 2.99386C25.5938 2.50362 25.9071 1.98553 26.1779 1.50325L26.1837 1.50348L26.1978 1.50375C26.8823 1.51692 27.5831 1.51246 28.2606 1.50816C28.5885 1.50607 28.9109 1.50402 29.2233 1.50402H73.2496H75.2473H75.2828L75.3183 1.50234C75.3188 1.50232 75.3193 1.5023 75.3197 1.50228C75.3866 1.60681 75.4465 1.71506 75.499 1.82638L75.5309 1.89384L75.5693 1.9578C76.3453 3.25098 81.4592 12.3626 86.6306 21.5767L86.7285 21.751C91.9093 30.9819 97.1221 40.2692 97.9357 41.6211L97.9627 41.6661L97.9928 41.709Z" fill="#1FDE82" stroke="#1FDE82" stroke-width="3"/>
</svg>
