<svg width="339" height="400" viewBox="0 0 339 400" fill="none" xmlns="http://www.w3.org/2000/svg">
<g clip-path="url(#clip0)">
<path d="M108.112 262.744C130.884 262.744 149.344 244.284 149.344 221.512C149.344 198.74 130.884 180.28 108.112 180.28C85.3403 180.28 66.8801 198.74 66.8801 221.512C66.8801 244.284 85.3403 262.744 108.112 262.744Z" fill="#FF7B7B"/>
<path d="M124.088 259.424C114.267 263.578 103.219 263.767 93.2609 259.952C83.3032 256.136 75.2101 248.613 70.6794 238.96C66.1488 229.306 65.5327 218.273 68.9603 208.176C72.388 198.078 79.5931 189.7 89.064 184.8C83.1593 191.123 79.2304 199.033 77.7602 207.559C76.29 216.084 77.3426 224.853 80.7886 232.789C84.2345 240.724 89.9237 247.48 97.157 252.226C104.39 256.972 112.853 259.502 121.504 259.504C122.4 259.496 123.24 259.472 124.088 259.424Z" fill="#E26D6D"/>
<path d="M119.6 200C121.756 200 123.504 198.252 123.504 196.096C123.504 193.94 121.756 192.192 119.6 192.192C117.444 192.192 115.696 193.94 115.696 196.096C115.696 198.252 117.444 200 119.6 200Z" fill="#E26D6D"/>
<path d="M84.296 202.456C86.4521 202.456 88.2 200.708 88.2 198.552C88.2 196.396 86.4521 194.648 84.296 194.648C82.1399 194.648 80.392 196.396 80.392 198.552C80.392 200.708 82.1399 202.456 84.296 202.456Z" fill="#F4F6F9"/>
<path d="M98.2401 199.024C99.8572 199.024 101.168 197.713 101.168 196.096C101.168 194.479 99.8572 193.168 98.2401 193.168C96.623 193.168 95.3121 194.479 95.3121 196.096C95.3121 197.713 96.623 199.024 98.2401 199.024Z" fill="#F4F6F9"/>
<path d="M103.592 223.656C107.202 223.656 110.128 220.73 110.128 217.12C110.128 213.51 107.202 210.584 103.592 210.584C99.9822 210.584 97.0559 213.51 97.0559 217.12C97.0559 220.73 99.9822 223.656 103.592 223.656Z" fill="#E26D6D"/>
<path d="M81.64 236.656C85.2497 236.656 88.176 233.73 88.176 230.12C88.176 226.51 85.2497 223.584 81.64 223.584C78.0303 223.584 75.104 226.51 75.104 230.12C75.104 233.73 78.0303 236.656 81.64 236.656Z" fill="#F4F6F9"/>
<path d="M111.952 246.92C115.562 246.92 118.488 243.994 118.488 240.384C118.488 236.774 115.562 233.848 111.952 233.848C108.342 233.848 105.416 236.774 105.416 240.384C105.416 243.994 108.342 246.92 111.952 246.92Z" fill="#E26D6D"/>
<path d="M132.776 240.384C134.932 240.384 136.68 238.636 136.68 236.48C136.68 234.324 134.932 232.576 132.776 232.576C130.62 232.576 128.872 234.324 128.872 236.48C128.872 238.636 130.62 240.384 132.776 240.384Z" fill="#D16969"/>
<path d="M92.1041 251.808C93.7211 251.808 95.0321 250.497 95.0321 248.88C95.0321 247.263 93.7211 245.952 92.1041 245.952C90.487 245.952 89.1761 247.263 89.1761 248.88C89.1761 250.497 90.487 251.808 92.1041 251.808Z" fill="#D16969"/>
<path d="M82.8 218.704C84.4171 218.704 85.728 217.393 85.728 215.776C85.728 214.159 84.4171 212.848 82.8 212.848C81.1829 212.848 79.872 214.159 79.872 215.776C79.872 217.393 81.1829 218.704 82.8 218.704Z" fill="#D16969"/>
<path d="M128.872 216.816C131.028 216.816 132.776 215.068 132.776 212.912C132.776 210.756 131.028 209.008 128.872 209.008C126.716 209.008 124.968 210.756 124.968 212.912C124.968 215.068 126.716 216.816 128.872 216.816Z" fill="#D16969"/>
<path d="M103.592 180.528C106.888 173.544 106.496 161.328 106.496 161.328H109.936C109.936 161.328 110.36 174.856 112.92 180.528" fill="#FF7B7B"/>
<path d="M109.984 162.4H109.928C108.762 162.464 107.595 162.282 106.504 161.864C106.504 161.864 106.504 161.32 106.504 161.32H109.944C109.944 161.32 109.96 161.944 109.984 162.4Z" fill="#E26D6D"/>
<path d="M108.256 161.632C110.434 161.632 112.2 160.751 112.2 159.664C112.2 158.577 110.434 157.696 108.256 157.696C106.078 157.696 104.312 158.577 104.312 159.664C104.312 160.751 106.078 161.632 108.256 161.632Z" fill="#FF7B7B"/>
<path d="M106.259 159.064C106.664 158.97 106.957 158.746 106.915 158.566C106.872 158.385 106.51 158.315 106.106 158.41C105.702 158.505 105.408 158.728 105.45 158.909C105.493 159.089 105.855 159.159 106.259 159.064Z" fill="#F4F6F9"/>
<path d="M117.752 182.16C121.952 177.976 124.84 169.056 124.84 169.056L127.328 169.952C127.328 169.952 124.128 179.832 124.488 184.608" fill="#FF7B7B"/>
<path d="M127.08 170.736C126.224 170.475 125.431 170.039 124.752 169.456L124.88 169.064L127.368 169.96C127.368 169.96 127.2 170.4 127.08 170.736Z" fill="#E26D6D"/>
<path d="M129.398 169.321C129.681 168.535 128.636 167.439 127.065 166.873C125.494 166.307 123.991 166.485 123.708 167.271C123.425 168.056 124.469 169.152 126.04 169.718C127.612 170.284 129.115 170.106 129.398 169.321Z" fill="#FF7B7B"/>
<path d="M125.856 167.149C125.872 167.008 125.63 166.865 125.314 166.828C124.998 166.791 124.728 166.875 124.712 167.016C124.696 167.156 124.938 167.3 125.254 167.337C125.57 167.373 125.84 167.289 125.856 167.149Z" fill="#F4F6F9"/>
<path d="M126.632 186.024C130.984 183.36 135.2 176.464 135.2 176.464L137.096 177.712C137.096 177.712 132.424 185.344 131.784 189.424" fill="#FF7B7B"/>
<path d="M136.736 178.32C136.068 177.931 135.49 177.405 135.04 176.776L135.232 176.48L137.128 177.728L136.736 178.32Z" fill="#E26D6D"/>
<path d="M138.964 177.618C139.359 177.016 138.703 175.887 137.498 175.098C136.293 174.308 134.997 174.156 134.602 174.758C134.207 175.36 134.863 176.489 136.068 177.279C137.273 178.068 138.569 178.22 138.964 177.618Z" fill="#FF7B7B"/>
<path d="M136.422 175.08C136.464 174.964 136.29 174.793 136.033 174.699C135.775 174.605 135.532 174.623 135.49 174.739C135.448 174.856 135.622 175.026 135.879 175.12C136.136 175.214 136.379 175.196 136.422 175.08Z" fill="#F4F6F9"/>
<path d="M91.608 185.04C92.192 179.968 89.368 172.4 89.368 172.4L91.52 171.672C91.52 171.672 94.648 180.064 97.464 183.088" fill="#FF7B7B"/>
<path d="M91.776 172.344C91.0599 172.631 90.2908 172.762 89.52 172.728L89.4 172.392L91.552 171.664L91.776 172.344Z" fill="#E26D6D"/>
<path d="M90.531 172.216C91.8956 171.755 92.8151 170.828 92.5847 170.146C92.3542 169.464 91.0612 169.284 89.6965 169.745C88.3319 170.206 87.4124 171.133 87.6428 171.815C87.8733 172.497 89.1663 172.677 90.531 172.216Z" fill="#FF7B7B"/>
<path d="M88.7341 171.022C88.9668 170.877 89.1025 170.675 89.0372 170.57C88.972 170.465 88.7304 170.497 88.4977 170.641C88.265 170.786 88.1293 170.988 88.1945 171.093C88.2598 171.198 88.5013 171.166 88.7341 171.022Z" fill="#F4F6F9"/>
<path d="M147.24 213.064C152.04 214.712 160.04 213.536 160.04 213.536L160.296 215.8C160.296 215.8 151.44 217.088 147.888 219.2" fill="#FF7B7B"/>
<path d="M159.624 215.912V215.872C159.496 215.111 159.532 214.331 159.728 213.584L160.08 213.536L160.336 215.8L159.624 215.912Z" fill="#E26D6D"/>
<path d="M161.586 217.168C162.301 217.087 162.749 215.86 162.586 214.429C162.424 212.998 161.712 211.904 160.996 211.985C160.28 212.067 159.832 213.293 159.995 214.724C160.158 216.155 160.87 217.249 161.586 217.168Z" fill="#FF7B7B"/>
<path d="M161.918 213.608C162.035 213.566 162.054 213.323 161.962 213.065C161.87 212.807 161.701 212.632 161.584 212.674C161.468 212.715 161.448 212.958 161.54 213.216C161.633 213.474 161.802 213.649 161.918 213.608Z" fill="#F4F6F9"/>
<path d="M148.144 221.6C152.52 224.24 160.576 224.8 160.576 224.8L160.344 227.064C160.344 227.064 151.416 226.44 147.496 227.744" fill="#FF7B7B"/>
<path d="M159.632 227.032C159.664 226.26 159.863 225.504 160.216 224.816H160.568L160.336 227.08L159.632 227.032Z" fill="#E26D6D"/>
<path d="M162.851 226.212C162.997 224.779 162.535 223.559 161.818 223.485C161.102 223.412 160.402 224.515 160.256 225.947C160.11 227.38 160.572 228.601 161.289 228.674C162.005 228.748 162.704 227.645 162.851 226.212Z" fill="#FF7B7B"/>
<path d="M162.55 224.52C162.673 224.504 162.743 224.271 162.708 224C162.672 223.728 162.544 223.522 162.421 223.538C162.299 223.554 162.228 223.787 162.264 224.058C162.3 224.329 162.428 224.536 162.55 224.52Z" fill="#F4F6F9"/>
<path d="M144.544 238.104C147.44 242.312 154.552 246.144 154.552 246.144L153.408 248.112C153.408 248.112 145.536 243.856 141.408 243.432" fill="#FF7B7B"/>
<path d="M152.8 247.776C153.152 247.086 153.645 246.478 154.248 245.992L154.56 246.168L153.416 248.136L152.8 247.776Z" fill="#E26D6D"/>
<path d="M156.051 248.346C156.775 247.101 156.857 245.798 156.234 245.436C155.611 245.074 154.52 245.79 153.796 247.035C153.072 248.281 152.99 249.583 153.613 249.945C154.235 250.307 155.327 249.591 156.051 248.346Z" fill="#FF7B7B"/>
<path d="M156.356 246.867C156.436 246.606 156.405 246.364 156.286 246.328C156.168 246.292 156.007 246.475 155.927 246.737C155.847 246.999 155.878 247.24 155.997 247.276C156.115 247.313 156.276 247.129 156.356 246.867Z" fill="#F4F6F9"/>
<path d="M144.432 203.552C150.336 204.072 159.024 200.536 159.024 200.536L159.944 203.016C159.944 203.016 150.344 206.92 146.888 210.28" fill="#FF7B7B"/>
<path d="M159.2 203.336C158.842 202.514 158.665 201.625 158.68 200.728L159.064 200.576L159.984 203.056L159.2 203.336Z" fill="#E26D6D"/>
<path d="M161.752 204.19C162.535 203.901 162.701 202.396 162.123 200.83C161.544 199.263 160.44 198.227 159.657 198.517C158.873 198.806 158.707 200.311 159.286 201.877C159.864 203.444 160.969 204.479 161.752 204.19Z" fill="#FF7B7B"/>
<path d="M161.129 200.083C161.247 200.005 161.2 199.726 161.025 199.461C160.849 199.196 160.612 199.044 160.494 199.122C160.376 199.2 160.422 199.478 160.598 199.743C160.773 200.009 161.011 200.161 161.129 200.083Z" fill="#F4F6F9"/>
<path d="M147.648 230.4C151.912 234.52 160.888 237.24 160.888 237.24L160.04 239.744C160.04 239.744 150.104 236.72 145.328 237.184" fill="#FF7B7B"/>
<path d="M159.248 239.488C159.491 238.623 159.914 237.819 160.488 237.128L160.88 237.256L160.032 239.76L159.248 239.488Z" fill="#E26D6D"/>
<path d="M163.102 239.41C163.638 237.828 163.431 236.328 162.64 236.061C161.849 235.793 160.773 236.858 160.238 238.44C159.703 240.022 159.91 241.522 160.701 241.789C161.492 242.057 162.567 240.992 163.102 239.41Z" fill="#FF7B7B"/>
<path d="M163.115 237.654C163.145 237.338 163.056 237.07 162.915 237.056C162.774 237.043 162.636 237.288 162.605 237.605C162.574 237.922 162.664 238.189 162.804 238.203C162.945 238.216 163.084 237.971 163.115 237.654Z" fill="#F4F6F9"/>
<path d="M132 254.248C132.496 260.152 137.448 268.12 137.448 268.12L135.16 269.44C135.16 269.44 129.68 260.64 125.784 257.816" fill="#FF7B7B"/>
<path d="M134.712 268.744C135.462 268.254 136.307 267.927 137.192 267.784L137.408 268.144L135.12 269.464L134.712 268.744Z" fill="#E26D6D"/>
<path d="M137.667 271.219C139.113 270.382 139.946 269.118 139.527 268.395C139.109 267.673 137.598 267.765 136.153 268.601C134.707 269.438 133.875 270.702 134.293 271.425C134.711 272.148 136.222 272.055 137.667 271.219Z" fill="#FF7B7B"/>
<path d="M138.83 269.896C139.062 269.678 139.171 269.418 139.074 269.315C138.978 269.212 138.711 269.305 138.479 269.523C138.248 269.741 138.138 270.001 138.235 270.104C138.332 270.207 138.598 270.114 138.83 269.896Z" fill="#F4F6F9"/>
<path d="M135.792 190.952C143.2 188.8 152.08 180.4 152.08 180.4L154.368 182.976C154.368 182.976 144.52 192.256 141.96 197.952" fill="#FF7B7B"/>
<path d="M153.6 183.728C152.779 182.897 152.144 181.902 151.736 180.808C151.736 180.808 152.128 180.44 152.128 180.44L154.416 183.016L153.6 183.728Z" fill="#E26D6D"/>
<path d="M157.118 183.55C157.931 182.829 157.42 180.923 155.975 179.293C154.531 177.662 152.7 176.925 151.887 177.646C151.073 178.366 151.585 180.272 153.029 181.903C154.474 183.533 156.304 184.27 157.118 183.55Z" fill="#FF7B7B"/>
<path d="M154.433 178.85C154.541 178.699 154.353 178.381 154.014 178.142C153.674 177.902 153.313 177.83 153.206 177.982C153.098 178.133 153.286 178.45 153.625 178.69C153.964 178.93 154.326 179.002 154.433 178.85Z" fill="#F4F6F9"/>
<path d="M142.6 244.12C145.88 251.112 155.544 258.576 155.544 258.576L153.352 261.232C153.352 261.232 142.656 252.944 136.632 251.296" fill="#FF7B7B"/>
<path d="M152.496 260.584V260.544C153.186 259.602 154.07 258.819 155.088 258.248C155.088 258.248 155.512 258.576 155.512 258.576L153.32 261.232L152.496 260.584Z" fill="#E26D6D"/>
<path d="M157.229 262.232C158.615 260.552 159.06 258.629 158.222 257.937C157.384 257.245 155.58 258.046 154.193 259.726C152.807 261.406 152.362 263.329 153.2 264.02C154.038 264.712 155.842 263.912 157.229 262.232Z" fill="#FF7B7B"/>
<path d="M158.052 260.16C158.237 259.788 158.252 259.42 158.085 259.337C157.919 259.255 157.635 259.49 157.45 259.862C157.266 260.234 157.251 260.602 157.417 260.685C157.584 260.767 157.868 260.532 158.052 260.16Z" fill="#F4F6F9"/>
<path d="M101.064 262.144C95.952 267.936 92.936 279.744 92.936 279.744L89.632 278.784C89.632 278.784 92.984 265.68 92.104 259.496" fill="#E26D6D"/>
<path d="M89.888 277.76H89.936C91.0763 278.023 92.1479 278.524 93.08 279.232L92.936 279.752L89.632 278.792L89.888 277.76Z" fill="#D16969"/>
<path d="M94.5678 281.981C94.87 280.937 93.4187 279.6 91.3263 278.994C89.234 278.389 87.2929 278.744 86.9907 279.788C86.6886 280.832 88.1398 282.17 90.2322 282.775C92.3245 283.381 94.2657 283.025 94.5678 281.981Z" fill="#E26D6D"/>
<path d="M93.272 282.374C93.2816 282.189 92.9531 282.021 92.5383 282C92.1236 281.979 91.7796 282.111 91.77 282.297C91.7604 282.482 92.0889 282.65 92.5036 282.671C92.9184 282.693 93.2624 282.56 93.272 282.374Z" fill="#F4F6F9"/>
<path d="M72.4319 242.2C64.7199 241.992 53.7119 247.28 53.7119 247.28L52.3199 244.136C52.3199 244.136 64.5199 238.288 68.6959 233.648" fill="#E26D6D"/>
<path d="M53.288 243.656V243.704C53.8161 244.746 54.1187 245.888 54.176 247.056L53.688 247.28L52.296 244.136L53.288 243.656Z" fill="#D16969"/>
<path d="M53.0704 249.946C54.0648 249.507 54.1581 247.536 53.2787 245.543C52.3994 243.55 50.8804 242.29 49.886 242.729C48.8916 243.168 48.7984 245.139 49.6777 247.132C50.5571 249.125 52.076 250.384 53.0704 249.946Z" fill="#E26D6D"/>
<path d="M51.9045 249.24C52.0528 249.128 51.9704 248.769 51.7206 248.437C51.4707 248.105 51.148 247.926 50.9998 248.038C50.8516 248.15 50.9339 248.509 51.1837 248.841C51.4336 249.173 51.7563 249.351 51.9045 249.24Z" fill="#F4F6F9"/>
<path d="M71.136 203.248C67.032 196.712 56.536 190.448 56.536 190.448L58.4 187.576C58.4 187.576 70.024 194.504 76.208 195.408" fill="#E26D6D"/>
<path d="M59.32 188.112V188.16C58.7468 189.179 57.961 190.063 57.016 190.752L56.56 190.472L58.4 187.576L59.32 188.112Z" fill="#D16969"/>
<path d="M57.7344 189.14C58.9073 187.305 59.1157 185.342 58.1998 184.757C57.284 184.172 55.5907 185.185 54.4178 187.021C53.2448 188.856 53.0365 190.819 53.9523 191.404C54.8682 191.989 56.5615 190.976 57.7344 189.14Z" fill="#E26D6D"/>
<path d="M54.4896 189.44C54.6275 189.048 54.5974 188.681 54.4224 188.619C54.2474 188.558 53.9937 188.825 53.8557 189.217C53.7178 189.609 53.7478 189.976 53.9228 190.038C54.0979 190.1 54.3516 189.832 54.4896 189.44Z" fill="#F4F6F9"/>
<path d="M80.7999 192.152C79.4559 186.344 73.3839 179.136 73.3839 179.136L75.4639 177.536C75.4639 177.536 82.1919 185.536 86.4719 187.744" fill="#E26D6D"/>
<path d="M76.0401 178.12C75.3643 178.713 74.5711 179.158 73.7121 179.424L73.4481 179.104L75.5281 177.504L76.0401 178.12Z" fill="#D16969"/>
<path d="M74.6147 178.477C75.9323 177.436 76.5787 176.059 76.0584 175.4C75.5381 174.741 74.0482 175.05 72.7306 176.091C71.413 177.132 70.7667 178.509 71.2869 179.168C71.8072 179.827 73.2971 179.517 74.6147 178.477Z" fill="#E26D6D"/>
<path d="M72.1765 177.88C72.3774 177.628 72.4505 177.352 72.3399 177.264C72.2293 177.176 71.9768 177.309 71.7759 177.561C71.575 177.813 71.5019 178.089 71.6125 178.177C71.7231 178.266 71.9756 178.132 72.1765 177.88Z" fill="#F4F6F9"/>
<path d="M68.8 229.136C63.2 227.208 53.832 228.552 53.832 228.552L53.536 225.92C53.536 225.92 63.84 224.432 68 221.976" fill="#E26D6D"/>
<path d="M54.328 225.792V225.832C54.4799 226.721 54.4389 227.632 54.208 228.504L53.8 228.552L53.504 225.92L54.328 225.792Z" fill="#D16969"/>
<path d="M52.7085 230.363C53.5428 230.269 54.0679 228.841 53.8813 227.173C53.6948 225.504 52.8672 224.227 52.0329 224.32C51.1986 224.414 50.6736 225.842 50.8601 227.51C51.0467 229.179 51.8743 230.456 52.7085 230.363Z" fill="#E26D6D"/>
<path d="M52.0135 229.586C52.1467 229.539 52.1672 229.254 52.0593 228.95C51.9514 228.646 51.7559 228.438 51.6226 228.486C51.4894 228.533 51.4689 228.818 51.5768 229.122C51.6847 229.426 51.8802 229.634 52.0135 229.586Z" fill="#F4F6F9"/>
<path d="M89.224 256.864C84.168 260.024 79.336 268.112 79.336 268.112L77.104 266.68C77.104 266.68 82.472 257.72 83.176 252.952" fill="#E26D6D"/>
<path d="M77.52 265.96C78.3059 266.402 78.9879 267.008 79.52 267.736L79.304 268.088L77.072 266.656L77.52 265.96Z" fill="#D16969"/>
<path d="M79.6312 270.131C80.0845 269.426 79.3087 268.12 77.8984 267.213C76.4881 266.306 74.9773 266.143 74.524 266.848C74.0707 267.553 74.8465 268.86 76.2568 269.767C77.6671 270.673 79.1779 270.837 79.6312 270.131Z" fill="#E26D6D"/>
<path d="M79.0106 270.141C79.0579 270.008 78.8498 269.813 78.5458 269.705C78.2418 269.597 77.9571 269.618 77.9098 269.751C77.8625 269.884 78.0706 270.08 78.3746 270.187C78.6786 270.295 78.9633 270.275 79.0106 270.141Z" fill="#F4F6F9"/>
<path d="M118.4 259.864C117.32 264.544 119.2 271.904 119.2 271.904L117.104 272.36C117.104 272.36 115.064 264.2 112.752 261.08" fill="#E26D6D"/>
<path d="M116.896 271.712C117.596 271.516 118.33 271.472 119.048 271.584L119.128 271.912L117.032 272.368C117.032 272.368 116.976 272 116.896 271.712Z" fill="#D16969"/>
<path d="M118.549 274.362C119.87 274.074 120.824 273.306 120.68 272.645C120.536 271.984 119.348 271.682 118.027 271.97C116.706 272.258 115.752 273.027 115.896 273.687C116.04 274.348 117.227 274.65 118.549 274.362Z" fill="#E26D6D"/>
<path d="M119.782 273.634C120.017 273.522 120.168 273.347 120.119 273.244C120.069 273.14 119.839 273.147 119.603 273.259C119.368 273.371 119.217 273.546 119.267 273.65C119.316 273.753 119.547 273.747 119.782 273.634Z" fill="#F4F6F9"/>
<path d="M111.88 261.416C109.416 266.84 109.848 276.256 109.848 276.256L107.192 276.296C107.192 276.296 106.72 265.896 104.68 261.496" fill="#E26D6D"/>
<path d="M107.144 275.464C108.043 275.398 108.947 275.526 109.792 275.84V276.256L107.136 276.296C107.136 276.296 107.2 275.832 107.144 275.464Z" fill="#D16969"/>
<path d="M108.535 279.086C110.213 279.062 111.565 278.363 111.553 277.523C111.541 276.684 110.17 276.023 108.492 276.046C106.813 276.07 105.462 276.77 105.473 277.609C105.485 278.449 106.856 279.11 108.535 279.086Z" fill="#E26D6D"/>
<path d="M110.208 278.491C110.521 278.413 110.747 278.238 110.713 278.101C110.679 277.964 110.398 277.916 110.085 277.994C109.772 278.072 109.546 278.246 109.58 278.384C109.614 278.521 109.895 278.569 110.208 278.491Z" fill="#F4F6F9"/>
<path d="M67.76 213.44C63.936 210.6 56.496 209.368 56.496 209.368L56.912 207.288C56.912 207.288 65.152 208.664 68.912 207.792" fill="#E26D6D"/>
<path d="M57.6 207.384C57.5054 208.099 57.2541 208.785 56.864 209.392L56.536 209.336L56.952 207.256L57.6 207.384Z" fill="#D16969"/>
<path d="M56.8807 208.332C57.1432 207.015 56.822 205.841 56.1634 205.71C55.5048 205.578 54.7581 206.54 54.4956 207.857C54.2331 209.174 54.5542 210.349 55.2128 210.48C55.8714 210.611 56.6182 209.65 56.8807 208.332Z" fill="#E26D6D"/>
<path d="M54.911 209.71C55.0258 209.706 55.112 209.496 55.1034 209.239C55.0949 208.983 54.9949 208.779 54.8801 208.783C54.7653 208.786 54.6791 208.997 54.6877 209.253C54.6962 209.509 54.7962 209.714 54.911 209.71Z" fill="#F4F6F9"/>
<path d="M81.2721 250.52C76.3921 252.12 70.6481 257.816 70.6481 257.816L69.0481 256.144C69.0481 256.144 75.4481 249.808 77.0481 245.984" fill="#E26D6D"/>
<path d="M69.6001 255.632C70.1732 256.185 70.6183 256.857 70.9041 257.6L70.6481 257.856L69.0481 256.184C69.0481 256.184 69.3761 255.864 69.6001 255.632Z" fill="#D16969"/>
<path d="M70.8263 259.634C71.3554 259.139 70.9843 257.882 69.9973 256.827C69.0103 255.772 67.7812 255.318 67.252 255.813C66.7229 256.308 67.094 257.565 68.081 258.62C69.068 259.675 70.2971 260.129 70.8263 259.634Z" fill="#E26D6D"/>
<path d="M69.9451 259.422C70.0138 259.319 69.8848 259.113 69.657 258.96C69.4292 258.808 69.1888 258.768 69.1201 258.871C69.0514 258.974 69.1804 259.181 69.4083 259.333C69.6361 259.485 69.8764 259.525 69.9451 259.422Z" fill="#F4F6F9"/>
<path d="M175.16 142.928C187.169 142.928 196.904 133.193 196.904 121.184C196.904 109.175 187.169 99.4399 175.16 99.4399C163.151 99.4399 153.416 109.175 153.416 121.184C153.416 133.193 163.151 142.928 175.16 142.928Z" fill="#FF7B7B"/>
<path d="M183.584 141.184C178.392 143.441 172.525 143.586 167.228 141.586C161.932 139.587 157.623 135.601 155.218 130.476C152.813 125.351 152.502 119.49 154.349 114.138C156.196 108.787 160.057 104.366 165.112 101.816C161.997 105.151 159.924 109.323 159.149 113.82C158.373 118.317 158.928 122.942 160.746 127.128C162.564 131.314 165.565 134.877 169.381 137.38C173.197 139.883 177.661 141.216 182.224 141.216C182.68 141.216 183.136 141.208 183.584 141.184Z" fill="#E26D6D"/>
<path d="M181.216 109.832C182.351 109.832 183.272 108.911 183.272 107.776C183.272 106.64 182.351 105.72 181.216 105.72C180.08 105.72 179.16 106.64 179.16 107.776C179.16 108.911 180.08 109.832 181.216 109.832Z" fill="#E26D6D"/>
<path d="M162.6 111.136C163.736 111.136 164.656 110.215 164.656 109.08C164.656 107.944 163.736 107.024 162.6 107.024C161.465 107.024 160.544 107.944 160.544 109.08C160.544 110.215 161.465 111.136 162.6 111.136Z" fill="#F4F6F9"/>
<path d="M169.952 109.32C170.805 109.32 171.496 108.629 171.496 107.776C171.496 106.923 170.805 106.232 169.952 106.232C169.099 106.232 168.408 106.923 168.408 107.776C168.408 108.629 169.099 109.32 169.952 109.32Z" fill="#F4F6F9"/>
<path d="M172.776 122.312C174.68 122.312 176.224 120.768 176.224 118.864C176.224 116.96 174.68 115.416 172.776 115.416C170.872 115.416 169.328 116.96 169.328 118.864C169.328 120.768 170.872 122.312 172.776 122.312Z" fill="#E26D6D"/>
<path d="M161.2 129.176C163.104 129.176 164.648 127.632 164.648 125.728C164.648 123.824 163.104 122.28 161.2 122.28C159.296 122.28 157.752 123.824 157.752 125.728C157.752 127.632 159.296 129.176 161.2 129.176Z" fill="#F4F6F9"/>
<path d="M177.184 134.584C179.088 134.584 180.632 133.04 180.632 131.136C180.632 129.232 179.088 127.688 177.184 127.688C175.28 127.688 173.736 129.232 173.736 131.136C173.736 133.04 175.28 134.584 177.184 134.584Z" fill="#E26D6D"/>
<path d="M188.168 131.136C189.304 131.136 190.224 130.215 190.224 129.08C190.224 127.944 189.304 127.024 188.168 127.024C187.033 127.024 186.112 127.944 186.112 129.08C186.112 130.215 187.033 131.136 188.168 131.136Z" fill="#D16969"/>
<path d="M166.72 137.16C167.573 137.16 168.264 136.469 168.264 135.616C168.264 134.763 167.573 134.072 166.72 134.072C165.867 134.072 165.176 134.763 165.176 135.616C165.176 136.469 165.867 137.16 166.72 137.16Z" fill="#D16969"/>
<path d="M161.808 119.704C162.661 119.704 163.352 119.012 163.352 118.16C163.352 117.307 162.661 116.616 161.808 116.616C160.955 116.616 160.264 117.307 160.264 118.16C160.264 119.012 160.955 119.704 161.808 119.704Z" fill="#D16969"/>
<path d="M186.112 118.704C187.247 118.704 188.168 117.783 188.168 116.648C188.168 115.512 187.247 114.592 186.112 114.592C184.976 114.592 184.056 115.512 184.056 116.648C184.056 117.783 184.976 118.704 186.112 118.704Z" fill="#D16969"/>
<path d="M172.8 99.5678C174.536 95.8878 174.328 89.4478 174.328 89.4478H176.144C176.144 89.4478 176.368 96.5838 177.744 99.5838" fill="#FF7B7B"/>
<path d="M176.144 90.0158C175.528 90.0511 174.912 89.9557 174.336 89.7358C174.336 89.7358 174.336 89.4478 174.336 89.4478H176.152C176.152 89.4478 176.136 89.7678 176.144 90.0158Z" fill="#E26D6D"/>
<path d="M175.232 89.6078C176.381 89.6078 177.312 89.1422 177.312 88.5678C177.312 87.9935 176.381 87.5278 175.232 87.5278C174.083 87.5278 173.152 87.9935 173.152 88.5678C173.152 89.1422 174.083 89.6078 175.232 89.6078Z" fill="#FF7B7B"/>
<path d="M174.176 88.2423C174.392 88.1919 174.548 88.0743 174.526 87.9797C174.504 87.885 174.311 87.8491 174.096 87.8995C173.881 87.9499 173.725 88.0674 173.747 88.1621C173.769 88.2567 173.961 88.2926 174.176 88.2423Z" fill="#F4F6F9"/>
<path d="M180.24 100.432C182.456 98.224 183.984 93.52 183.984 93.52L185.296 93.992C185.296 93.992 183.6 99.2 183.792 101.728" fill="#FF7B7B"/>
<path d="M185.16 94.4C184.706 94.2664 184.286 94.0373 183.928 93.728L184 93.52L185.312 93.992C185.312 93.992 185.216 94.224 185.16 94.4Z" fill="#E26D6D"/>
<path d="M186.379 93.6575C186.529 93.2418 185.976 92.6621 185.145 92.3626C184.313 92.0631 183.518 92.1573 183.368 92.573C183.219 92.9887 183.771 93.5685 184.602 93.8679C185.434 94.1674 186.229 94.0732 186.379 93.6575Z" fill="#FF7B7B"/>
<path d="M184.513 92.5132C184.521 92.4386 184.393 92.3624 184.226 92.343C184.059 92.3237 183.917 92.3684 183.909 92.443C183.9 92.5176 184.028 92.5938 184.195 92.6132C184.362 92.6326 184.504 92.5878 184.513 92.5132Z" fill="#F4F6F9"/>
<path d="M184.928 102.472C187.224 101.064 189.44 97.4238 189.44 97.4238L190.448 98.0798C190.448 98.0798 187.984 102.08 187.64 104.264" fill="#FF7B7B"/>
<path d="M190.256 98.3999C189.905 98.1986 189.6 97.9261 189.36 97.5999L189.456 97.4399L190.464 98.0959L190.256 98.3999Z" fill="#E26D6D"/>
<path d="M191.435 98.0317C191.644 97.7139 191.297 97.1185 190.662 96.7019C190.026 96.2852 189.342 96.205 189.134 96.5228C188.925 96.8405 189.272 97.4359 189.907 97.8526C190.543 98.2693 191.227 98.3494 191.435 98.0317Z" fill="#FF7B7B"/>
<path d="M190.099 96.6998C190.122 96.6376 190.029 96.5466 189.892 96.4965C189.755 96.4465 189.626 96.4564 189.603 96.5186C189.58 96.5809 189.673 96.6719 189.81 96.7219C189.947 96.772 190.076 96.7621 190.099 96.6998Z" fill="#F4F6F9"/>
<path d="M166.456 101.952C166.76 99.2798 165.272 95.2878 165.272 95.2878L166.408 94.9038C166.408 94.9038 168.056 99.3278 169.544 100.92" fill="#FF7B7B"/>
<path d="M166.544 95.2558C166.166 95.41 165.76 95.4809 165.352 95.4638L165.288 95.2878L166.424 94.9038L166.544 95.2558Z" fill="#E26D6D"/>
<path d="M165.887 95.1901C166.607 94.9469 167.092 94.458 166.97 94.098C166.849 93.738 166.166 93.6433 165.446 93.8864C164.726 94.1296 164.241 94.6185 164.363 94.9785C164.485 95.3385 165.167 95.4332 165.887 95.1901Z" fill="#FF7B7B"/>
<path d="M164.936 94.5573C165.06 94.4804 165.132 94.3724 165.097 94.3161C165.062 94.2598 164.934 94.2765 164.81 94.3534C164.686 94.4303 164.614 94.5383 164.649 94.5946C164.684 94.6509 164.813 94.6342 164.936 94.5573Z" fill="#F4F6F9"/>
<path d="M195.792 116.728C198.344 117.6 202.56 116.984 202.56 116.984L202.696 118.176C202.696 118.176 198.024 118.856 196.152 119.968" fill="#FF7B7B"/>
<path d="M202.328 118.232C202.259 117.83 202.278 117.418 202.384 117.024H202.568L202.704 118.216L202.328 118.232Z" fill="#E26D6D"/>
<path d="M203.361 118.91C203.739 118.867 203.975 118.22 203.889 117.465C203.804 116.71 203.428 116.132 203.05 116.175C202.673 116.218 202.436 116.865 202.522 117.62C202.608 118.375 202.984 118.952 203.361 118.91Z" fill="#FF7B7B"/>
<path d="M203.537 117.018C203.6 116.996 203.611 116.866 203.562 116.729C203.512 116.592 203.422 116.498 203.36 116.521C203.297 116.543 203.286 116.672 203.336 116.81C203.385 116.947 203.475 117.04 203.537 117.018Z" fill="#F4F6F9"/>
<path d="M196.272 121.24C198.576 122.632 202.832 122.928 202.832 122.928L202.704 124.12C202.704 124.12 198 123.784 195.928 124.472" fill="#FF7B7B"/>
<path d="M202.328 124.096C202.343 123.689 202.447 123.291 202.632 122.928H202.824L202.696 124.12L202.328 124.096Z" fill="#E26D6D"/>
<path d="M204.028 123.668C204.105 122.912 203.862 122.268 203.484 122.23C203.106 122.191 202.737 122.773 202.659 123.529C202.582 124.285 202.826 124.929 203.204 124.967C203.582 125.006 203.951 124.424 204.028 123.668Z" fill="#FF7B7B"/>
<path d="M203.779 123.155C203.845 123.146 203.883 123.022 203.864 122.878C203.845 122.733 203.777 122.623 203.711 122.631C203.646 122.64 203.607 122.764 203.626 122.908C203.645 123.053 203.713 123.163 203.779 123.155Z" fill="#F4F6F9"/>
<path d="M194.4 129.936C195.928 132.152 199.672 134.176 199.672 134.176L199.072 135.216C199.072 135.216 194.92 132.968 192.752 132.744" fill="#FF7B7B"/>
<path d="M198.712 135.04C198.903 134.67 199.177 134.35 199.512 134.104L199.672 134.192L199.072 135.232L198.712 135.04Z" fill="#E26D6D"/>
<path d="M200.441 135.336C200.822 134.679 200.866 133.991 200.537 133.801C200.209 133.61 199.633 133.987 199.251 134.644C198.869 135.301 198.826 135.989 199.154 136.18C199.483 136.371 200.059 135.993 200.441 135.336Z" fill="#FF7B7B"/>
<path d="M200.595 134.561C200.637 134.422 200.62 134.293 200.557 134.274C200.494 134.254 200.408 134.352 200.365 134.491C200.322 134.631 200.339 134.759 200.403 134.779C200.466 134.798 200.552 134.701 200.595 134.561Z" fill="#F4F6F9"/>
<path d="M194.312 111.712C197.424 111.984 202.008 110.112 202.008 110.112L202.496 111.416C202.496 111.416 197.416 113.472 195.608 115.248" fill="#FF7B7B"/>
<path d="M202.088 111.6C201.9 111.163 201.807 110.692 201.816 110.216L202.016 110.144L202.504 111.448L202.088 111.6Z" fill="#E26D6D"/>
<path d="M203.452 112.05C203.866 111.897 203.954 111.101 203.648 110.272C203.342 109.443 202.758 108.895 202.343 109.048C201.929 109.201 201.841 109.997 202.147 110.826C202.453 111.655 203.038 112.203 203.452 112.05Z" fill="#FF7B7B"/>
<path d="M203.123 109.881C203.185 109.839 203.161 109.692 203.068 109.552C202.976 109.412 202.85 109.332 202.787 109.373C202.725 109.415 202.749 109.562 202.842 109.702C202.934 109.842 203.06 109.922 203.123 109.881Z" fill="#F4F6F9"/>
<path d="M196 125.864C198.248 128.04 202.984 129.472 202.984 129.472L202.536 130.792C202.536 130.792 197.296 129.192 194.776 129.44" fill="#FF7B7B"/>
<path d="M202.128 130.672C202.25 130.216 202.471 129.793 202.776 129.432L202.984 129.496L202.536 130.816L202.128 130.672Z" fill="#E26D6D"/>
<path d="M204.171 130.624C204.454 129.787 204.345 128.994 203.926 128.852C203.508 128.71 202.939 129.274 202.655 130.111C202.372 130.948 202.482 131.741 202.9 131.883C203.319 132.025 203.888 131.461 204.171 130.624Z" fill="#FF7B7B"/>
<path d="M204.168 129.698C204.185 129.531 204.137 129.39 204.062 129.383C203.987 129.375 203.914 129.505 203.898 129.672C203.881 129.839 203.929 129.98 204.004 129.988C204.079 129.995 204.152 129.865 204.168 129.698Z" fill="#F4F6F9"/>
<path d="M187.752 138.448C188.016 141.568 190.624 145.768 190.624 145.768L189.424 146.464C189.424 146.464 186.528 141.808 184.472 140.336" fill="#FF7B7B"/>
<path d="M189.184 146.096C189.577 145.834 190.022 145.659 190.488 145.584L190.6 145.776L189.4 146.472L189.184 146.096Z" fill="#E26D6D"/>
<path d="M190.752 147.403C191.516 146.961 191.957 146.292 191.736 145.909C191.514 145.527 190.715 145.576 189.95 146.018C189.185 146.461 188.745 147.13 188.966 147.512C189.187 147.895 189.987 147.846 190.752 147.403Z" fill="#FF7B7B"/>
<path d="M191.358 146.707C191.48 146.592 191.538 146.455 191.486 146.4C191.435 146.345 191.294 146.394 191.172 146.509C191.049 146.624 190.992 146.762 191.043 146.816C191.095 146.871 191.236 146.822 191.358 146.707Z" fill="#F4F6F9"/>
<path d="M189.76 105.064C193.664 103.928 198.352 99.4639 198.352 99.4639L199.552 100.824C199.552 100.824 194.4 105.76 193.008 108.8" fill="#FF7B7B"/>
<path d="M199.144 101.256C198.707 100.821 198.369 100.297 198.152 99.7198L198.368 99.5278L199.568 100.888L199.144 101.256Z" fill="#E26D6D"/>
<path d="M201 101.163C201.43 100.782 201.161 99.7766 200.399 98.9168C199.637 98.0569 198.671 97.6687 198.241 98.0496C197.811 98.4305 198.08 99.4363 198.842 100.296C199.604 101.156 200.57 101.544 201 101.163Z" fill="#FF7B7B"/>
<path d="M199.587 98.6865C199.643 98.6072 199.542 98.4394 199.362 98.3118C199.181 98.1842 198.99 98.1451 198.933 98.2245C198.877 98.3038 198.978 98.4716 199.158 98.5992C199.339 98.7268 199.53 98.7659 199.587 98.6865Z" fill="#F4F6F9"/>
<path d="M193.344 133.112C195.08 136.8 200.176 140.736 200.176 140.736L199.024 142.136C199.024 142.136 193.376 137.768 190.224 136.896" fill="#FF7B7B"/>
<path d="M198.568 141.792C198.931 141.295 199.398 140.883 199.936 140.584L200.16 140.76L199.008 142.16L198.568 141.792Z" fill="#E26D6D"/>
<path d="M201.062 142.664C201.793 141.778 202.027 140.763 201.584 140.398C201.141 140.032 200.189 140.454 199.457 141.34C198.726 142.226 198.492 143.24 198.935 143.606C199.378 143.972 200.33 143.55 201.062 142.664Z" fill="#FF7B7B"/>
<path d="M201.511 141.573C201.609 141.375 201.618 141.18 201.531 141.136C201.444 141.093 201.293 141.219 201.195 141.417C201.097 141.614 201.088 141.81 201.175 141.853C201.262 141.896 201.412 141.771 201.511 141.573Z" fill="#F4F6F9"/>
<path d="M171.44 142.616C168.744 145.672 167.152 151.912 167.152 151.912L165.408 151.408C165.408 151.408 167.184 144.496 166.712 141.232" fill="#E26D6D"/>
<path d="M165.544 150.856C166.147 151.002 166.711 151.275 167.2 151.656L167.12 151.936L165.376 151.432C165.376 151.432 165.488 151.096 165.544 150.856Z" fill="#D16969"/>
<path d="M168.009 153.073C168.169 152.522 167.404 151.816 166.301 151.496C165.197 151.177 164.173 151.365 164.013 151.917C163.854 152.469 164.619 153.175 165.722 153.494C166.826 153.814 167.85 153.625 168.009 153.073Z" fill="#E26D6D"/>
<path d="M167.327 153.286C167.332 153.189 167.158 153.101 166.937 153.09C166.716 153.078 166.533 153.148 166.528 153.245C166.523 153.342 166.698 153.43 166.919 153.441C167.139 153.452 167.322 153.383 167.327 153.286Z" fill="#F4F6F9"/>
<path d="M156.344 132.096C152.272 131.992 146.464 134.776 146.464 134.776L145.736 133.12C145.736 133.12 152.136 130.032 154.368 127.584" fill="#E26D6D"/>
<path d="M146.24 132.864C146.516 133.414 146.674 134.016 146.704 134.632L146.448 134.752L145.72 133.096L146.24 132.864Z" fill="#D16969"/>
<path d="M144.912 136.047C145.435 135.817 145.486 134.783 145.026 133.738C144.567 132.693 143.771 132.031 143.248 132.261C142.725 132.491 142.674 133.525 143.134 134.57C143.593 135.615 144.389 136.277 144.912 136.047Z" fill="#E26D6D"/>
<path d="M145.518 135.818C145.595 135.76 145.551 135.569 145.418 135.393C145.285 135.216 145.114 135.121 145.037 135.179C144.959 135.238 145.004 135.428 145.137 135.605C145.269 135.781 145.44 135.877 145.518 135.818Z" fill="#F4F6F9"/>
<path d="M155.656 111.552C153.496 108.104 148 104.8 148 104.8L148.976 103.272C148.976 103.272 155.104 106.92 158.36 107.4" fill="#E26D6D"/>
<path d="M149.424 103.568C149.126 104.107 148.714 104.574 148.216 104.936L148 104.8L148.976 103.272L149.424 103.568Z" fill="#D16969"/>
<path d="M148.592 104.112C149.21 103.144 149.319 102.109 148.835 101.8C148.351 101.49 147.458 102.024 146.839 102.992C146.22 103.96 146.111 104.996 146.595 105.305C147.079 105.614 147.973 105.08 148.592 104.112Z" fill="#E26D6D"/>
<path d="M146.869 104.269C146.942 104.061 146.928 103.865 146.836 103.833C146.744 103.801 146.61 103.944 146.537 104.152C146.464 104.36 146.478 104.555 146.57 104.588C146.662 104.62 146.796 104.477 146.869 104.269Z" fill="#F4F6F9"/>
<path d="M160.8 105.704C160.096 102.64 156.888 98.8398 156.888 98.8398L157.992 97.9678C157.992 97.9678 161.536 102.184 163.792 103.352" fill="#E26D6D"/>
<path d="M158.24 98.304C157.886 98.6206 157.469 98.8579 157.016 99L156.872 98.832L157.976 97.96L158.24 98.304Z" fill="#D16969"/>
<path d="M157.491 98.4856C158.188 97.9352 158.531 97.2079 158.257 96.8612C157.983 96.5144 157.196 96.6796 156.499 97.23C155.802 97.7804 155.459 98.5076 155.733 98.8544C156.007 99.2011 156.794 99.036 157.491 98.4856Z" fill="#E26D6D"/>
<path d="M156.205 98.1664C156.31 98.0351 156.347 97.8906 156.288 97.8439C156.229 97.7971 156.097 97.8657 155.992 97.997C155.888 98.1284 155.851 98.2728 155.909 98.3196C155.968 98.3663 156.101 98.2978 156.205 98.1664Z" fill="#F4F6F9"/>
<path d="M154.4 125.208C151.424 124.192 146.504 124.904 146.504 124.904L146.352 123.512C146.352 123.512 151.8 122.712 153.992 121.432" fill="#E26D6D"/>
<path d="M146.792 123.44C146.871 123.909 146.849 124.388 146.728 124.848H146.512L146.36 123.456L146.792 123.44Z" fill="#D16969"/>
<path d="M145.94 125.848C146.38 125.799 146.655 125.044 146.557 124.161C146.458 123.278 146.022 122.603 145.583 122.652C145.144 122.701 144.868 123.456 144.967 124.339C145.065 125.221 145.501 125.897 145.94 125.848Z" fill="#E26D6D"/>
<path d="M145.568 125.449C145.639 125.424 145.651 125.275 145.594 125.117C145.538 124.959 145.435 124.851 145.365 124.876C145.294 124.901 145.282 125.05 145.338 125.208C145.394 125.366 145.497 125.474 145.568 125.449Z" fill="#F4F6F9"/>
<path d="M165.2 139.832C162.528 141.496 159.984 145.768 159.984 145.768L158.8 144.968C158.8 144.968 161.632 140.24 162 137.768" fill="#E26D6D"/>
<path d="M159.024 144.632C159.437 144.867 159.797 145.186 160.08 145.568L159.968 145.76L158.784 144.96L159.024 144.632Z" fill="#D16969"/>
<path d="M160.365 146.836C160.604 146.464 160.192 145.774 159.445 145.294C158.697 144.814 157.898 144.726 157.659 145.098C157.42 145.47 157.833 146.16 158.58 146.64C159.327 147.12 160.126 147.208 160.365 146.836Z" fill="#E26D6D"/>
<path d="M159.812 146.834C159.837 146.764 159.73 146.661 159.571 146.605C159.413 146.548 159.264 146.56 159.239 146.631C159.214 146.702 159.322 146.805 159.48 146.861C159.639 146.917 159.787 146.905 159.812 146.834Z" fill="#F4F6F9"/>
<path d="M180.576 141.416C180.008 143.88 180.984 147.76 180.984 147.76L179.88 148C179.88 148 178.8 143.696 177.584 142.056" fill="#E26D6D"/>
<path d="M179.792 147.656C180.161 147.55 180.549 147.528 180.928 147.592V147.76L179.824 148L179.792 147.656Z" fill="#D16969"/>
<path d="M180.666 149.075C181.365 148.923 181.871 148.516 181.794 148.166C181.718 147.816 181.089 147.656 180.39 147.809C179.691 147.961 179.186 148.368 179.262 148.718C179.338 149.067 179.967 149.227 180.666 149.075Z" fill="#E26D6D"/>
<path d="M181.305 148.68C181.429 148.621 181.507 148.528 181.481 148.472C181.454 148.416 181.332 148.418 181.209 148.477C181.085 148.536 181.006 148.629 181.033 148.685C181.06 148.741 181.181 148.738 181.305 148.68Z" fill="#F4F6F9"/>
<path d="M177.144 142.232C175.84 145.088 176.072 150.056 176.072 150.056H174.672C174.672 150.056 174.424 144.552 173.344 142.248" fill="#E26D6D"/>
<path d="M174.648 149.64C175.121 149.607 175.596 149.675 176.04 149.84C176.044 149.912 176.044 149.984 176.04 150.056H174.64C174.64 150.056 174.664 149.832 174.648 149.64Z" fill="#D16969"/>
<path d="M175.389 151.546C176.277 151.533 176.992 151.165 176.985 150.723C176.979 150.281 176.254 149.933 175.366 149.946C174.478 149.959 173.763 150.327 173.77 150.769C173.776 151.21 174.501 151.558 175.389 151.546Z" fill="#E26D6D"/>
<path d="M176.258 151.225C176.421 151.185 176.538 151.093 176.52 151.02C176.502 150.947 176.355 150.921 176.192 150.961C176.029 151.002 175.912 151.094 175.93 151.167C175.948 151.24 176.095 151.266 176.258 151.225Z" fill="#F4F6F9"/>
<path d="M153.88 116.928C151.856 115.432 147.936 114.784 147.936 114.784L148.152 113.68C148.152 113.68 152.504 114.408 154.48 113.952" fill="#E26D6D"/>
<path d="M148.504 113.736C148.453 114.114 148.322 114.476 148.12 114.8H147.944L148.16 113.696L148.504 113.736Z" fill="#D16969"/>
<path d="M148.136 114.238C148.274 113.545 148.105 112.927 147.758 112.858C147.412 112.789 147.019 113.295 146.881 113.988C146.742 114.682 146.911 115.3 147.258 115.369C147.605 115.438 147.998 114.932 148.136 114.238Z" fill="#E26D6D"/>
<path d="M147.102 114.962C147.164 114.96 147.21 114.847 147.206 114.71C147.201 114.573 147.147 114.464 147.086 114.466C147.024 114.468 146.977 114.581 146.982 114.718C146.987 114.854 147.04 114.964 147.102 114.962Z" fill="#F4F6F9"/>
<path d="M161 136.488C158.424 137.288 155.4 140.328 155.4 140.328L154.6 139.448C154.6 139.448 157.96 136.112 158.8 134.088" fill="#E26D6D"/>
<path d="M154.84 139.2C155.133 139.486 155.364 139.829 155.52 140.208L155.384 140.336L154.584 139.456L154.84 139.2Z" fill="#D16969"/>
<path d="M155.494 141.291C155.772 141.032 155.576 140.371 155.057 139.816C154.538 139.261 153.892 139.022 153.614 139.281C153.337 139.541 153.533 140.201 154.052 140.756C154.571 141.311 155.217 141.551 155.494 141.291Z" fill="#E26D6D"/>
<path d="M155.029 141.176C155.066 141.121 154.997 141.01 154.876 140.929C154.755 140.848 154.627 140.827 154.59 140.883C154.553 140.938 154.621 141.048 154.743 141.129C154.864 141.21 154.992 141.231 155.029 141.176Z" fill="#F4F6F9"/>
<path d="M214.664 234.016C226.673 234.016 236.408 224.281 236.408 212.272C236.408 200.263 226.673 190.528 214.664 190.528C202.655 190.528 192.92 200.263 192.92 212.272C192.92 224.281 202.655 234.016 214.664 234.016Z" fill="#FF7B7B"/>
<path d="M223.096 232.264C217.908 234.503 212.053 234.635 206.769 232.633C201.485 230.631 197.188 226.652 194.786 221.537C192.385 216.423 192.068 210.574 193.903 205.23C195.737 199.886 199.58 195.465 204.616 192.904C201.501 196.239 199.428 200.411 198.653 204.908C197.877 209.405 198.432 214.03 200.25 218.216C202.068 222.402 205.069 225.965 208.885 228.468C212.701 230.97 217.165 232.304 221.728 232.304C222.184 232.304 222.64 232.288 223.096 232.264Z" fill="#E26D6D"/>
<path d="M220.728 200.92C221.864 200.92 222.784 200 222.784 198.864C222.784 197.729 221.864 196.808 220.728 196.808C219.593 196.808 218.672 197.729 218.672 198.864C218.672 200 219.593 200.92 220.728 200.92Z" fill="#E26D6D"/>
<path d="M202.104 202.216C203.24 202.216 204.16 201.295 204.16 200.16C204.16 199.025 203.24 198.104 202.104 198.104C200.969 198.104 200.048 199.025 200.048 200.16C200.048 201.295 200.969 202.216 202.104 202.216Z" fill="#F4F6F9"/>
<path d="M209.464 200.408C210.317 200.408 211.008 199.717 211.008 198.864C211.008 198.011 210.317 197.32 209.464 197.32C208.611 197.32 207.92 198.011 207.92 198.864C207.92 199.717 208.611 200.408 209.464 200.408Z" fill="#F4F6F9"/>
<path d="M212.28 213.4C214.184 213.4 215.728 211.856 215.728 209.952C215.728 208.048 214.184 206.504 212.28 206.504C210.376 206.504 208.832 208.048 208.832 209.952C208.832 211.856 210.376 213.4 212.28 213.4Z" fill="#E26D6D"/>
<path d="M200.704 220.256C202.608 220.256 204.152 218.712 204.152 216.808C204.152 214.904 202.608 213.36 200.704 213.36C198.8 213.36 197.256 214.904 197.256 216.808C197.256 218.712 198.8 220.256 200.704 220.256Z" fill="#F4F6F9"/>
<path d="M216.688 225.672C218.592 225.672 220.136 224.128 220.136 222.224C220.136 220.32 218.592 218.776 216.688 218.776C214.784 218.776 213.24 220.32 213.24 222.224C213.24 224.128 214.784 225.672 216.688 225.672Z" fill="#E26D6D"/>
<path d="M227.672 222.224C228.808 222.224 229.728 221.303 229.728 220.168C229.728 219.032 228.808 218.112 227.672 218.112C226.537 218.112 225.616 219.032 225.616 220.168C225.616 221.303 226.537 222.224 227.672 222.224Z" fill="#D16969"/>
<path d="M206.224 228.248C207.077 228.248 207.768 227.557 207.768 226.704C207.768 225.851 207.077 225.16 206.224 225.16C205.371 225.16 204.68 225.851 204.68 226.704C204.68 227.557 205.371 228.248 206.224 228.248Z" fill="#D16969"/>
<path d="M201.32 210.792C202.173 210.792 202.864 210.101 202.864 209.248C202.864 208.395 202.173 207.704 201.32 207.704C200.467 207.704 199.776 208.395 199.776 209.248C199.776 210.101 200.467 210.792 201.32 210.792Z" fill="#D16969"/>
<path d="M225.616 209.792C226.751 209.792 227.672 208.872 227.672 207.736C227.672 206.601 226.751 205.68 225.616 205.68C224.48 205.68 223.56 206.601 223.56 207.736C223.56 208.872 224.48 209.792 225.616 209.792Z" fill="#D16969"/>
<path d="M212.28 190.656C214.016 186.976 213.808 180.536 213.808 180.536H215.624C215.624 180.536 215.848 187.664 217.224 190.672" fill="#FF7B7B"/>
<path d="M215.648 181.104C215.032 181.141 214.414 181.043 213.84 180.816V180.536H215.656C215.656 180.536 215.64 180.856 215.648 181.104Z" fill="#E26D6D"/>
<path d="M214.744 180.696C215.893 180.696 216.824 180.23 216.824 179.656C216.824 179.081 215.893 178.616 214.744 178.616C213.595 178.616 212.664 179.081 212.664 179.656C212.664 180.23 213.595 180.696 214.744 180.696Z" fill="#FF7B7B"/>
<path d="M213.689 179.332C213.904 179.281 214.06 179.164 214.038 179.069C214.016 178.974 213.824 178.939 213.609 178.989C213.394 179.039 213.237 179.157 213.259 179.251C213.281 179.346 213.474 179.382 213.689 179.332Z" fill="#F4F6F9"/>
<path d="M219.752 191.52C221.96 189.312 223.488 184.6 223.488 184.6L224.8 185.08C224.8 185.08 223.104 190.288 223.304 192.808" fill="#FF7B7B"/>
<path d="M224.672 185.496C224.218 185.36 223.798 185.128 223.44 184.816L223.512 184.608L224.824 185.088L224.672 185.496Z" fill="#E26D6D"/>
<path d="M225.891 184.738C226.041 184.322 225.488 183.743 224.657 183.443C223.826 183.144 223.03 183.238 222.88 183.654C222.731 184.069 223.283 184.649 224.115 184.948C224.946 185.248 225.741 185.154 225.891 184.738Z" fill="#FF7B7B"/>
<path d="M224.008 183.589C224.017 183.515 223.889 183.439 223.722 183.419C223.555 183.4 223.413 183.445 223.404 183.519C223.396 183.594 223.524 183.67 223.691 183.689C223.857 183.709 224 183.664 224.008 183.589Z" fill="#F4F6F9"/>
<path d="M224.432 193.552C226.728 192.144 228.952 188.512 228.952 188.512L229.952 189.168C229.952 189.168 227.488 193.168 227.152 195.352" fill="#FF7B7B"/>
<path d="M229.76 189.496C229.407 189.298 229.101 189.025 228.864 188.696L228.968 188.536L229.968 189.192L229.76 189.496Z" fill="#E26D6D"/>
<path d="M230.943 189.13C231.151 188.812 230.805 188.217 230.169 187.8C229.534 187.383 228.849 187.303 228.641 187.621C228.433 187.939 228.779 188.534 229.415 188.951C230.05 189.367 230.734 189.448 230.943 189.13Z" fill="#FF7B7B"/>
<path d="M229.605 187.787C229.628 187.724 229.535 187.633 229.398 187.583C229.261 187.533 229.132 187.543 229.109 187.606C229.086 187.668 229.179 187.759 229.316 187.809C229.453 187.859 229.582 187.849 229.605 187.787Z" fill="#F4F6F9"/>
<path d="M205.96 193.04C206.272 190.4 204.8 186.4 204.8 186.4L205.936 186.016C205.936 186.016 207.584 190.44 209.072 192.04" fill="#FF7B7B"/>
<path d="M206.048 186.336C205.67 186.488 205.263 186.556 204.856 186.536L204.8 186.4L205.936 186.016L206.048 186.336Z" fill="#E26D6D"/>
<path d="M205.402 186.272C206.121 186.029 206.607 185.54 206.485 185.18C206.363 184.82 205.681 184.725 204.961 184.968C204.241 185.212 203.756 185.701 203.878 186.061C203.999 186.421 204.682 186.515 205.402 186.272Z" fill="#FF7B7B"/>
<path d="M204.448 185.632C204.572 185.555 204.644 185.447 204.609 185.39C204.574 185.334 204.445 185.351 204.322 185.428C204.198 185.505 204.126 185.613 204.161 185.669C204.196 185.725 204.324 185.708 204.448 185.632Z" fill="#F4F6F9"/>
<path d="M235.304 207.816C237.856 208.68 242.072 208.064 242.072 208.064L242.208 209.256C242.208 209.256 237.536 209.936 235.656 211.056" fill="#FF7B7B"/>
<path d="M241.832 209.32C241.765 208.918 241.781 208.507 241.88 208.112H242.072L242.208 209.304L241.832 209.32Z" fill="#E26D6D"/>
<path d="M242.867 209.988C243.244 209.945 243.481 209.298 243.395 208.543C243.309 207.788 242.933 207.21 242.556 207.253C242.178 207.296 241.942 207.943 242.028 208.698C242.114 209.453 242.489 210.031 242.867 209.988Z" fill="#FF7B7B"/>
<path d="M243.044 208.107C243.107 208.084 243.117 207.955 243.068 207.818C243.019 207.68 242.929 207.587 242.867 207.61C242.804 207.632 242.793 207.761 242.842 207.899C242.891 208.036 242.982 208.129 243.044 208.107Z" fill="#F4F6F9"/>
<path d="M235.776 212.32C238.08 213.712 242.336 214.008 242.336 214.008L242.216 215.208C242.216 215.208 237.504 214.872 235.44 215.56" fill="#FF7B7B"/>
<path d="M241.84 215.2C241.857 214.791 241.96 214.39 242.144 214.024H242.336L242.216 215.224L241.84 215.2Z" fill="#E26D6D"/>
<path d="M243.531 214.748C243.608 213.992 243.364 213.348 242.986 213.31C242.608 213.271 242.239 213.853 242.162 214.609C242.085 215.365 242.329 216.009 242.707 216.047C243.085 216.086 243.454 215.504 243.531 214.748Z" fill="#FF7B7B"/>
<path d="M243.291 214.241C243.357 214.232 243.395 214.108 243.376 213.964C243.358 213.819 243.289 213.709 243.223 213.717C243.158 213.726 243.12 213.85 243.138 213.994C243.157 214.139 243.225 214.249 243.291 214.241Z" fill="#F4F6F9"/>
<path d="M233.88 221.024C235.408 223.24 239.16 225.264 239.16 225.264L238.552 226.296C238.552 226.296 234.4 224.056 232.232 223.832" fill="#FF7B7B"/>
<path d="M238.224 226.128C238.409 225.764 238.668 225.442 238.984 225.184L239.152 225.28L238.544 226.312L238.224 226.128Z" fill="#E26D6D"/>
<path d="M239.947 226.417C240.329 225.76 240.372 225.073 240.044 224.882C239.715 224.691 239.139 225.069 238.757 225.726C238.376 226.383 238.332 227.07 238.661 227.261C238.989 227.452 239.565 227.074 239.947 226.417Z" fill="#FF7B7B"/>
<path d="M240.101 225.63C240.143 225.491 240.127 225.362 240.063 225.343C240 225.323 239.914 225.421 239.871 225.56C239.829 225.699 239.846 225.828 239.909 225.848C239.972 225.867 240.058 225.77 240.101 225.63Z" fill="#F4F6F9"/>
<path d="M233.816 202.8C236.936 203.072 241.52 201.2 241.52 201.2L242 202.512C242 202.512 236.92 204.568 235.12 206.344" fill="#FF7B7B"/>
<path d="M241.6 202.688C241.41 202.254 241.314 201.785 241.32 201.312L241.528 201.232L242.008 202.544L241.6 202.688Z" fill="#E26D6D"/>
<path d="M242.96 203.131C243.374 202.978 243.462 202.182 243.156 201.353C242.85 200.524 242.265 199.977 241.851 200.13C241.437 200.283 241.349 201.079 241.655 201.908C241.961 202.737 242.545 203.284 242.96 203.131Z" fill="#FF7B7B"/>
<path d="M242.624 200.956C242.686 200.914 242.662 200.767 242.569 200.627C242.477 200.487 242.351 200.407 242.288 200.448C242.226 200.49 242.25 200.637 242.342 200.777C242.435 200.917 242.561 200.997 242.624 200.956Z" fill="#F4F6F9"/>
<path d="M235.52 216.952C237.768 219.12 242.496 220.56 242.496 220.56L242.056 221.88C242.056 221.88 236.808 220.28 234.288 220.528" fill="#FF7B7B"/>
<path d="M241.6 221.752C241.726 221.295 241.947 220.87 242.248 220.504L242.456 220.576L242.016 221.896L241.6 221.752Z" fill="#E26D6D"/>
<path d="M244.147 220.905C244.43 220.066 244.319 219.27 243.899 219.129C243.48 218.988 242.91 219.554 242.627 220.393C242.345 221.233 242.456 222.028 242.875 222.169C243.295 222.31 243.865 221.745 244.147 220.905Z" fill="#FF7B7B"/>
<path d="M245.626 220.499C245.642 220.331 245.595 220.189 245.52 220.181C245.445 220.174 245.37 220.303 245.354 220.471C245.337 220.639 245.384 220.781 245.459 220.789C245.534 220.797 245.609 220.666 245.626 220.499Z" fill="#F4F6F9"/>
<path d="M227.256 229.536C227.52 232.656 230.136 236.848 230.136 236.848L228.928 237.552C228.928 237.552 226.032 232.896 223.984 231.416" fill="#FF7B7B"/>
<path d="M228.696 237.184C229.092 236.924 229.54 236.752 230.008 236.68L230.12 236.864L228.912 237.568L228.696 237.184Z" fill="#E26D6D"/>
<path d="M230.253 238.485C231.018 238.043 231.458 237.374 231.237 236.991C231.016 236.609 230.216 236.658 229.452 237.1C228.687 237.543 228.246 238.212 228.467 238.594C228.689 238.977 229.488 238.928 230.253 238.485Z" fill="#FF7B7B"/>
<path d="M230.87 237.788C230.993 237.673 231.05 237.535 230.999 237.48C230.947 237.426 230.806 237.475 230.684 237.59C230.562 237.705 230.504 237.842 230.556 237.897C230.607 237.952 230.748 237.903 230.87 237.788Z" fill="#F4F6F9"/>
<path d="M229.264 196.152C233.176 195.016 237.856 190.592 237.856 190.592L239.056 191.944C239.056 191.944 233.864 196.84 232.52 199.848" fill="#FF7B7B"/>
<path d="M238.648 192.344C238.214 191.908 237.878 191.384 237.664 190.808L237.872 190.616L239.072 191.968L238.648 192.344Z" fill="#E26D6D"/>
<path d="M240.51 192.238C240.939 191.857 240.67 190.851 239.909 189.991C239.147 189.132 238.181 188.743 237.751 189.124C237.321 189.505 237.59 190.511 238.352 191.371C239.114 192.231 240.08 192.619 240.51 192.238Z" fill="#FF7B7B"/>
<path d="M239.083 189.763C239.139 189.684 239.039 189.516 238.858 189.388C238.678 189.261 238.486 189.222 238.43 189.301C238.374 189.38 238.475 189.548 238.655 189.676C238.835 189.803 239.027 189.843 239.083 189.763Z" fill="#F4F6F9"/>
<path d="M232.856 224.2C234.584 227.88 239.68 231.824 239.68 231.824L238.528 233.216C238.528 233.216 232.888 228.848 229.728 227.984" fill="#FF7B7B"/>
<path d="M238.072 232.88C238.438 232.383 238.904 231.969 239.44 231.664L239.664 231.848L238.512 233.24L238.072 232.88Z" fill="#E26D6D"/>
<path d="M240.569 233.734C241.301 232.848 241.534 231.834 241.091 231.468C240.649 231.102 239.697 231.524 238.965 232.41C238.234 233.296 238 234.311 238.443 234.676C238.886 235.042 239.838 234.62 240.569 233.734Z" fill="#FF7B7B"/>
<path d="M241.007 232.659C241.105 232.461 241.114 232.265 241.027 232.222C240.94 232.179 240.79 232.305 240.692 232.502C240.594 232.7 240.585 232.896 240.672 232.939C240.759 232.982 240.909 232.857 241.007 232.659Z" fill="#F4F6F9"/>
<path d="M210.944 233.704C208.248 236.752 206.664 242.992 206.664 242.992L204.92 242.488C204.92 242.488 206.688 235.576 206.224 232.32" fill="#E26D6D"/>
<path d="M205.056 241.936C205.659 242.082 206.223 242.355 206.712 242.736L206.64 243.008L204.896 242.504C204.896 242.504 204.992 242.184 205.056 241.936Z" fill="#D16969"/>
<path d="M207.513 244.159C207.673 243.608 206.907 242.901 205.804 242.582C204.7 242.263 203.676 242.451 203.517 243.003C203.357 243.555 204.122 244.261 205.226 244.58C206.329 244.899 207.353 244.711 207.513 244.159Z" fill="#E26D6D"/>
<path d="M206.83 244.37C206.835 244.273 206.66 244.185 206.439 244.174C206.219 244.163 206.036 244.232 206.031 244.329C206.026 244.426 206.201 244.514 206.421 244.526C206.642 244.537 206.825 244.467 206.83 244.37Z" fill="#F4F6F9"/>
<path d="M195.848 223.2C191.776 223.088 185.976 225.88 185.976 225.88L185.24 224.216C185.24 224.216 191.64 221.136 193.88 218.688" fill="#E26D6D"/>
<path d="M185.752 223.952C186.035 224.5 186.196 225.104 186.224 225.72L185.968 225.84L185.232 224.176L185.752 223.952Z" fill="#D16969"/>
<path d="M185.638 227.248C186.164 227.017 186.214 225.977 185.75 224.926C185.286 223.875 184.484 223.211 183.959 223.442C183.433 223.674 183.383 224.714 183.847 225.765C184.311 226.816 185.113 227.48 185.638 227.248Z" fill="#E26D6D"/>
<path d="M185.015 226.91C185.093 226.852 185.048 226.661 184.915 226.485C184.782 226.308 184.612 226.213 184.534 226.271C184.456 226.33 184.501 226.52 184.634 226.696C184.767 226.873 184.938 226.969 185.015 226.91Z" fill="#F4F6F9"/>
<path d="M195.2 202.64C193.032 199.192 187.496 195.904 187.496 195.904L188.472 194.368C188.472 194.368 194.6 198.024 197.864 198.504" fill="#E26D6D"/>
<path d="M188.936 194.656C188.633 195.194 188.219 195.66 187.72 196.024L187.48 195.88L188.456 194.344C188.456 194.344 188.712 194.536 188.936 194.656Z" fill="#D16969"/>
<path d="M187.86 195.99C188.48 195.025 188.592 193.991 188.11 193.681C187.627 193.371 186.733 193.902 186.113 194.867C185.492 195.832 185.381 196.865 185.863 197.175C186.346 197.486 187.24 196.955 187.86 195.99Z" fill="#E26D6D"/>
<path d="M186.371 195.344C186.444 195.135 186.429 194.94 186.338 194.908C186.246 194.876 186.112 195.018 186.039 195.227C185.965 195.435 185.98 195.63 186.072 195.662C186.164 195.695 186.297 195.552 186.371 195.344Z" fill="#F4F6F9"/>
<path d="M200.28 196.8C199.568 193.736 196.368 189.936 196.368 189.936L197.464 189.072C197.464 189.072 201.008 193.288 203.264 194.456" fill="#E26D6D"/>
<path d="M197.752 189.384C197.395 189.701 196.975 189.938 196.52 190.08L196.384 189.904L197.48 189.04L197.752 189.384Z" fill="#D16969"/>
<path d="M197.003 189.581C197.7 189.031 198.043 188.304 197.769 187.957C197.495 187.61 196.708 187.775 196.011 188.326C195.315 188.876 194.972 189.603 195.245 189.95C195.519 190.297 196.306 190.132 197.003 189.581Z" fill="#E26D6D"/>
<path d="M195.714 189.259C195.819 189.128 195.856 188.983 195.797 188.937C195.738 188.89 195.606 188.958 195.501 189.09C195.397 189.221 195.36 189.366 195.418 189.412C195.477 189.459 195.61 189.391 195.714 189.259Z" fill="#F4F6F9"/>
<path d="M193.912 216.296C190.936 215.272 186.016 215.984 186.016 215.984L185.864 214.592C185.864 214.592 191.312 213.792 193.504 212.52" fill="#E26D6D"/>
<path d="M186.296 214.528C186.377 214.999 186.358 215.481 186.24 215.944H186.016L185.864 214.552L186.296 214.528Z" fill="#D16969"/>
<path d="M185.458 216.933C185.897 216.884 186.173 216.129 186.074 215.246C185.975 214.364 185.539 213.688 185.1 213.737C184.661 213.786 184.385 214.542 184.484 215.424C184.583 216.307 185.018 216.982 185.458 216.933Z" fill="#E26D6D"/>
<path d="M185.075 216.536C185.146 216.511 185.158 216.362 185.101 216.204C185.045 216.046 184.942 215.938 184.872 215.963C184.801 215.988 184.789 216.137 184.845 216.295C184.901 216.453 185.004 216.561 185.075 216.536Z" fill="#F4F6F9"/>
<path d="M204.704 230.92C202.04 232.584 199.488 236.848 199.488 236.848L198.312 236.096C198.312 236.096 201.144 231.368 201.512 228.856" fill="#E26D6D"/>
<path d="M198.528 235.712C198.941 235.945 199.298 236.264 199.576 236.648L199.464 236.832L198.288 236.08L198.528 235.712Z" fill="#D16969"/>
<path d="M199.873 237.92C200.112 237.548 199.7 236.858 198.953 236.378C198.205 235.898 197.406 235.81 197.167 236.182C196.928 236.554 197.341 237.244 198.088 237.724C198.835 238.204 199.634 238.291 199.873 237.92Z" fill="#E26D6D"/>
<path d="M199.314 237.923C199.339 237.852 199.232 237.75 199.073 237.693C198.915 237.637 198.766 237.649 198.741 237.72C198.716 237.791 198.824 237.894 198.982 237.95C199.141 238.006 199.289 237.994 199.314 237.923Z" fill="#F4F6F9"/>
<path d="M220.08 232.496C219.512 234.968 220.488 238.848 220.488 238.848L219.384 239.088C219.384 239.088 218.312 234.784 217.088 233.144" fill="#E26D6D"/>
<path d="M219.296 238.744C219.665 238.64 220.052 238.615 220.432 238.672L220.472 238.848L219.368 239.088L219.296 238.744Z" fill="#D16969"/>
<path d="M220.164 240.155C220.863 240.002 221.369 239.595 221.292 239.245C221.216 238.896 220.587 238.736 219.888 238.888C219.189 239.041 218.684 239.448 218.76 239.797C218.836 240.147 219.465 240.307 220.164 240.155Z" fill="#E26D6D"/>
<path d="M220.82 239.771C220.944 239.712 221.023 239.619 220.996 239.563C220.97 239.507 220.848 239.51 220.724 239.569C220.6 239.628 220.522 239.721 220.548 239.776C220.575 239.832 220.697 239.83 220.82 239.771Z" fill="#F4F6F9"/>
<path d="M216.656 233.32C215.352 236.176 215.584 241.144 215.584 241.144H214.184C214.184 241.144 213.928 235.648 212.856 233.344" fill="#E26D6D"/>
<path d="M214.152 240.728C214.628 240.69 215.106 240.758 215.552 240.928V241.144H214.152C214.152 241.144 214.168 240.92 214.152 240.728Z" fill="#D16969"/>
<path d="M214.896 242.618C215.784 242.606 216.499 242.237 216.493 241.795C216.487 241.354 215.762 241.006 214.874 241.018C213.986 241.031 213.271 241.399 213.277 241.841C213.284 242.283 214.008 242.631 214.896 242.618Z" fill="#E26D6D"/>
<path d="M215.778 242.307C215.941 242.267 216.059 242.175 216.04 242.102C216.022 242.029 215.876 242.003 215.713 242.043C215.55 242.084 215.432 242.176 215.45 242.249C215.469 242.322 215.615 242.348 215.778 242.307Z" fill="#F4F6F9"/>
<path d="M193.384 208C191.368 206.504 187.44 205.848 187.44 205.848L187.664 204.752C187.664 204.752 192.008 205.48 193.992 205.024" fill="#E26D6D"/>
<path d="M188 204.8C187.944 205.175 187.811 205.535 187.608 205.856H187.432L187.656 204.76L188 204.8Z" fill="#D16969"/>
<path d="M187.645 205.314C187.784 204.621 187.615 204.003 187.268 203.934C186.921 203.865 186.528 204.371 186.39 205.064C186.252 205.757 186.421 206.375 186.768 206.444C187.114 206.513 187.507 206.007 187.645 205.314Z" fill="#E26D6D"/>
<path d="M186.612 206.034C186.674 206.032 186.72 205.92 186.715 205.783C186.711 205.646 186.657 205.537 186.595 205.539C186.533 205.541 186.487 205.653 186.492 205.79C186.496 205.927 186.55 206.037 186.612 206.034Z" fill="#F4F6F9"/>
<path d="M200.504 227.568C197.936 228.368 194.904 231.416 194.904 231.416L194.104 230.536C194.104 230.536 197.456 227.192 198.296 225.176" fill="#E26D6D"/>
<path d="M194.352 230.264C194.653 230.543 194.886 230.888 195.032 231.272L194.896 231.4L194.096 230.52L194.352 230.264Z" fill="#D16969"/>
<path d="M194.994 232.384C195.271 232.124 195.075 231.464 194.556 230.909C194.037 230.354 193.391 230.115 193.114 230.374C192.836 230.634 193.032 231.294 193.551 231.849C194.07 232.404 194.716 232.644 194.994 232.384Z" fill="#E26D6D"/>
<path d="M194.543 232.269C194.58 232.214 194.512 232.104 194.39 232.023C194.269 231.942 194.141 231.921 194.104 231.976C194.067 232.031 194.136 232.141 194.257 232.222C194.378 232.303 194.507 232.324 194.543 232.269Z" fill="#F4F6F9"/>
<path opacity="0.4" d="M108.096 312.784C130.877 312.784 149.344 309.142 149.344 304.648C149.344 300.155 130.877 296.512 108.096 296.512C85.3154 296.512 66.8481 300.155 66.8481 304.648C66.8481 309.142 85.3154 312.784 108.096 312.784Z" fill="#D6D8E5"/>
<path opacity="0.4" d="M214.64 274.6C226.667 274.6 236.416 272.498 236.416 269.904C236.416 267.31 226.667 265.208 214.64 265.208C202.613 265.208 192.864 267.31 192.864 269.904C192.864 272.498 202.613 274.6 214.64 274.6Z" fill="#D6D8E5"/>
<path opacity="0.4" d="M175.368 175.432C187.395 175.432 197.144 173.33 197.144 170.736C197.144 168.143 187.395 166.04 175.368 166.04C163.341 166.04 153.592 168.143 153.592 170.736C153.592 173.33 163.341 175.432 175.368 175.432Z" fill="#D6D8E5"/>
<path opacity="0.4" d="M26.944 170.232C41.8248 170.232 53.888 163.265 53.888 154.672C53.888 146.078 41.8248 139.112 26.944 139.112C12.0632 139.112 0 146.078 0 154.672C0 163.265 12.0632 170.232 26.944 170.232Z" fill="#D6D8E5"/>
<path d="M13.104 152C15.088 153.6 18.024 152.136 18.168 152.288C20.5026 154.455 22.9515 156.495 25.504 158.4C26.736 159.376 28.704 160.68 28.32 162.552C27.696 165.896 22.336 164.872 20.32 163.848C18.304 162.824 16.648 161.12 14.72 159.936C13.352 159.088 12.008 158.648 11.8 156.92C11.68 155.856 12.752 151.944 13.104 152Z" fill="#38226D"/>
<path d="M11.832 156.2C12.096 157.856 13.432 158.312 14.776 159.152C16.72 160.36 18.432 162.104 20.456 163.152C22.32 164.096 26.984 165.032 28.296 162.64C27.584 165.84 22.312 164.856 20.296 163.848C18.28 162.84 16.624 161.12 14.696 159.936C13.328 159.088 11.984 158.648 11.776 156.92C11.7665 156.678 11.7853 156.437 11.832 156.2Z" fill="#9C73FF"/>
<path d="M30.344 145.6C32.336 147.2 35.808 145.456 35.944 145.6C38.0083 147.702 40.1962 149.679 42.496 151.52C43.728 152.488 45.696 153.792 45.312 155.664C44.688 159.016 39.328 157.984 37.312 156.96C35.296 155.936 33.64 154.24 31.712 153.048C30.344 152.208 29 151.768 28.792 150.04C28.688 148.968 29.992 145.528 30.344 145.6Z" fill="#38226D"/>
<path d="M28.8721 149.552C29.1361 151.2 30.4721 151.656 31.8161 152.496C33.7601 153.704 35.472 155.448 37.496 156.496C39.36 157.44 44.024 158.384 45.336 155.992C44.624 159.192 39.36 158.208 37.336 157.192C35.312 156.176 33.664 154.472 31.736 153.28C30.368 152.432 29.0241 151.992 28.8161 150.272C28.8063 150.03 28.8251 149.789 28.8721 149.552Z" fill="#9C73FF"/>
<path d="M43.6241 35.816C43.6241 35.816 43.5601 39.016 43.9521 47.064C44.0957 53.0592 43.8284 59.0573 43.1521 65.016C42.5604 69.7312 41.2744 74.333 39.3361 78.672C37.9121 71.816 39.5681 70.608 39.5681 70.608L38.7681 56.04C38.7681 56.04 39.5681 41.976 39.2561 36.976C39.0481 33.808 43.6241 35.816 43.6241 35.816Z" fill="#FFCEA9"/>
<path d="M13.0401 78.608C13.1361 81.608 14.0721 94.656 14.4881 101.568C14.9041 108.48 15.0001 116.944 15.0001 116.944C15.0001 116.944 13.8081 121.976 13.0401 127.888C12.2721 133.8 13.0401 152.472 13.0401 152.472C13.7985 152.961 14.6817 153.221 15.5841 153.221C16.4864 153.221 17.3696 152.961 18.1281 152.472C18.1281 152.472 21.3281 137.528 22.7761 130.8C24.2241 124.072 24.5041 120.192 25.2721 116.016C26.1921 110.968 28.1841 87.416 28.1841 87.416H28.9841L31.1121 114.008C30.4571 115.967 30.0067 117.988 29.7681 120.04C29.1921 124.376 30.3841 146.168 30.3841 146.168C31.2323 146.639 32.194 146.868 33.1635 146.828C34.1331 146.789 35.073 146.483 35.8801 145.944C35.8801 145.944 41.1921 117.08 41.1921 112.688C41.1921 109.784 40.6961 71.48 40.6961 71.48L13.0401 78.608Z" fill="#8C50FF"/>
<path d="M20.2399 20.5278C20.2399 20.5278 20.5759 27.0798 20.4319 27.6638C20.2879 28.2478 17.4239 30.1598 16.5919 30.8638C15.7599 31.5678 21.1199 36.8398 23.7279 38.0638C26.3359 39.2878 34.5999 36.0638 34.7439 31.9998C34.8879 27.9358 33.3279 24.5358 32.0639 24.3518C30.7999 24.1678 20.2399 20.5278 20.2399 20.5278Z" fill="#FFCEA9"/>
<path d="M19.512 28.7999C19.512 28.7999 24.264 35.8799 30.896 36.5519C32.984 34.4879 33.176 27.1519 30.28 24.8079C30.28 24.8079 32.944 22.6639 34.76 23.0799C36.9201 24.2418 38.5731 26.1628 39.4 28.4719C40.624 32.2079 41.312 36.5199 41.2 43.4639C41.088 50.4079 41.2 71.6559 41.2 71.6559C41.2 71.6559 40.264 76.1439 34.264 79.4879C28.264 82.8319 23.808 83.1599 19.744 82.2079C16.384 81.4079 13.608 80.2399 12.448 77.8079C12.752 72.9359 14.928 60.2079 14.112 54.0959C13.296 47.9839 12 43.3839 11.68 38.3999C11.36 33.4159 12.336 33.5519 14.816 31.7839C16.3079 30.6782 17.8773 29.6809 19.512 28.7999Z" fill="#F4F4F4"/>
<path d="M16.848 81.4559C15.864 80.3519 14.16 74.2559 13.184 70.3519C12.2436 65.9947 12.0542 61.5089 12.624 57.0879C13.504 51.8079 15.92 44.4959 16.624 41.4719C17.328 38.4479 16.408 37.1599 15.024 35.9359C13.424 34.5039 11.096 34.9279 9.57596 39.1359C7.58652 44.9615 6.25294 50.9907 5.59996 57.1119C5.24042 61.6791 5.63777 66.2742 6.77596 70.7119C7.79196 74.8159 9.27996 77.8159 11.184 81.5919C11.704 82.6239 12.888 85.4959 13.648 87.5759C14.408 89.6559 17.752 82.4639 16.848 81.4559Z" fill="#FFCEA9"/>
<path d="M5.60001 45.9998C5.60001 45.9998 10.28 50.6478 15.808 49.3038C16.608 48.7678 18.496 37.9038 18.496 37.9038C18.496 37.9038 18.496 31.8798 13.88 32.0398C9.26401 32.1998 5.60001 45.9998 5.60001 45.9998Z" fill="#EDEDED"/>
<path d="M41.2079 39.8878C41.2079 39.8878 44.232 40.2718 45.248 38.8478C45.056 36.4478 41.032 23.7598 34.7599 23.0718C36.2871 24.4481 37.6074 26.0379 38.6799 27.7918C40.8719 31.5038 41.2079 39.8878 41.2079 39.8878Z" fill="#EDEDED"/>
<path d="M35.608 15.3918C35.7157 17.8486 35.3097 20.3009 34.416 22.5918C34.0213 23.7164 33.2752 24.6841 32.288 25.3518C31.6566 25.708 30.9602 25.9338 30.24 26.0158C28.64 26.2398 23.04 24.9038 21.16 22.7358C20.8091 22.0275 20.5407 21.2813 20.36 20.5118C18.6157 19.3252 17.2877 17.6211 16.5631 15.6398C15.8385 13.6584 15.7539 11.4997 16.3211 9.46765C16.8882 7.43565 18.0787 5.63282 19.7247 4.31318C21.3707 2.99353 23.3893 2.2236 25.496 2.11184C30.736 1.82384 34.4 5.67184 35.2 10.7598C35.4504 12.2916 35.5868 13.8399 35.608 15.3918Z" fill="#FFCEA9"/>
<path d="M20.5844 15.9305L20.5168 16.2515L26.5212 17.5157L26.5887 17.1947L20.5844 15.9305Z" fill="white"/>
<path d="M20.3513 18.9816L20.2318 19.2871L25.0675 21.1773L25.1869 20.8718L20.3513 18.9816Z" fill="white"/>
<path d="M20.3521 20.528L20.8321 16.088C20.8321 16.088 17.2081 6.70396 25.7761 8.50396C31.4241 9.69596 32.8481 10.208 34.5761 6.41596C36.3041 2.62396 30.2161 -0.800041 23.0161 0.159959C20.5344 0.420188 18.241 1.60321 16.5903 3.4746C14.9397 5.34599 14.0524 7.76917 14.1041 10.264C14.2881 13.056 15.0321 18.704 20.3521 20.528Z" fill="#3A2C6D"/>
<path d="M35.608 15.3919C35.7157 17.8487 35.3097 20.3009 34.416 22.5919C34.0213 23.7165 33.2752 24.6842 32.288 25.3519C29.792 25.1439 24.8 21.1519 24.8 21.0239C25.0916 19.6657 25.5371 18.3452 26.128 17.0879C29.16 17.0879 32.528 14.8159 33.224 14.8159C34.0285 14.9647 34.8243 15.157 35.608 15.3919Z" fill="#F4F4F4"/>
<path opacity="0.4" d="M311.936 400C326.817 400 338.88 393.033 338.88 384.44C338.88 375.846 326.817 368.88 311.936 368.88C297.055 368.88 284.992 375.846 284.992 384.44C284.992 393.033 297.055 400 311.936 400Z" fill="#D6D8E5"/>
<path d="M334.208 265.944C334.52 268.632 337.728 280.248 337.04 284.224C336.352 288.2 325.416 294.856 325.416 294.856L323.936 288.04L330.008 282.128L328.368 270.84L334.208 265.944Z" fill="#FFCEA9"/>
<path d="M325.72 254.504C326.787 254.008 327.999 253.922 329.126 254.261C330.253 254.6 331.216 255.341 331.832 256.344C333.432 259.024 335.128 268.176 335.272 269.752C335.272 269.752 333.008 272.888 329.616 272.36L325.72 254.504Z" fill="#EDEDED"/>
<path d="M313.2 384C310.811 384.658 308.26 384.35 306.096 383.144C304.384 383.192 295.104 379.224 293.84 382.56C292.736 385.52 296.752 388.16 298.904 388.704C303.592 389.848 307.04 392.184 308.944 392.576C310.352 392.872 312.144 393.072 313.288 391.968C314.624 390.608 314.512 385.712 313.2 384Z" fill="#38226D"/>
<path d="M308.944 391.736C307.064 391.336 303.592 389 298.904 387.864C297.104 387.432 294 385.464 293.688 383.112C293.272 385.8 296.888 388.192 298.904 388.672C303.592 389.816 307.04 392.152 308.944 392.544C310.352 392.84 312.144 393.04 313.288 391.936C313.577 391.612 313.788 391.226 313.904 390.808C313.206 391.336 312.394 391.695 311.533 391.857C310.673 392.018 309.786 391.976 308.944 391.736Z" fill="#9C73FF"/>
<path d="M328.256 377.208C325.868 377.871 323.315 377.563 321.152 376.352C319.44 376.4 310.16 372.424 308.904 375.76C307.792 378.688 311.816 381.36 313.96 381.912C318.648 383.048 322.096 385.392 324 385.792C325.408 386.088 327.2 386.28 328.344 385.176C329.68 383.848 329.6 378.952 328.256 377.208Z" fill="#38226D"/>
<path d="M324 384.976C322.12 384.576 318.648 382.24 313.96 381.104C312.16 380.672 309.056 378.704 308.784 376.352C308.368 379.04 311.984 381.432 313.96 381.912C318.648 383.048 322.096 385.392 324 385.792C325.408 386.088 327.2 386.28 328.344 385.176C328.63 384.85 328.841 384.465 328.96 384.048C328.262 384.577 327.45 384.936 326.589 385.097C325.729 385.258 324.842 385.217 324 384.976Z" fill="#9C73FF"/>
<path d="M328.44 352C328.039 348.554 327.322 345.153 326.296 341.84C326.296 341.84 326.936 333.04 327.256 324.736C327.616 315.296 330.896 306.984 328.304 299.464L299.2 305.92C299.2 305.92 300.96 343.56 301.36 348.088C301.57 351.632 302.006 355.159 302.664 358.648C303.992 365.96 306.152 383.336 306.152 383.336C309.232 385.128 313.272 384.136 313.272 384.136C313.272 384.136 313.056 362.16 312.856 356.888C312.616 350.488 312.416 350.976 312.416 350.976L313.376 334.976L314.008 327.016C314.008 327.016 314.808 332.864 315.336 338.112C315.8 342.664 316.896 346.784 318.128 355.256C319.192 362.608 320.92 377.384 320.92 377.384C324 379.176 328.184 377.688 328.184 377.688C328.184 377.688 329.264 358.4 328.44 352Z" fill="#8C50FF"/>
<path d="M324.184 254.656C321.968 254.768 320.312 255.336 320.032 254.656C319.8 253.509 319.632 252.35 319.528 251.184C319.784 250.544 320.008 249.856 320.008 249.856C322.792 248.136 323.704 245.128 324.008 241.624C324.632 235.624 321.392 230.424 315.4 229.784C309.76 229.2 305.624 233.16 304.52 238.584C303.92 241.272 302.736 246.336 304.344 250.76C305.232 253.224 306.392 255.192 307.544 255.56C308.661 255.529 309.775 255.432 310.88 255.272C310.88 255.272 311.184 256.936 311.384 258C311.584 259.064 311.512 259.6 309.384 260.96C307.256 262.32 312.584 264.96 316.088 264.704C319.592 264.448 323.488 262.304 324.592 260.072C325.816 257.552 325.712 254.584 324.184 254.656Z" fill="#FFCEA9"/>
<path d="M320.976 254.992C321.592 256.52 320.024 258.392 315.864 259.704C311.704 261.016 311.32 259.328 311.32 259.328C311.32 259.328 305.208 262.112 303.216 263.496C300.72 265.248 299.616 270.304 299.272 278.848C298.88 288.728 298.856 303.384 299.176 305.92C299.176 305.92 303.856 310.576 309.832 310.08C315.808 309.584 325.832 304.304 328.328 300.216C328.256 291.552 327.248 290.136 328.648 285.152C331.848 273.72 333.552 269.048 331.992 261.48C330.704 255.216 328.896 254.44 326.392 254.504C324.579 254.568 322.771 254.731 320.976 254.992Z" fill="#F4F4F4"/>
<path d="M289.904 288.672C294.816 289.912 295.96 286.816 296.616 284.232C298.216 278.032 299.016 272.4 300.176 268.912C301.544 264.752 302.984 264.112 304.976 263.312C307.376 262.368 309.416 264.368 308.592 269.656C307.664 275.904 306.432 280.304 304.096 287.696C303.488 289.632 302.12 293.064 300.096 294.72C297.568 296.768 293.76 296.68 287.984 295.248C285.52 294.632 282.808 293.168 278.168 290.992C276.92 290.408 275.952 290.024 273.552 288.904C271.144 287.824 269.033 286.177 267.4 284.104C266.136 282.28 265.976 281.424 266.232 281.008C266.488 280.592 267.12 280.6 267.832 281.376C268.806 282.665 270.003 283.768 271.368 284.632C271.368 284.632 269.816 283.032 268.968 281.992C268.214 281.071 267.59 280.051 267.112 278.96C266.664 277.904 267.576 276.464 268.272 277.216C268.968 277.968 269.304 278.744 270.576 280.264C271.228 281.064 271.975 281.781 272.8 282.4C272.013 281.332 271.312 280.203 270.704 279.024C270.177 278.097 269.919 277.041 269.96 275.976C269.96 275.424 270.76 274.76 271.56 275.816C272.36 276.872 272.648 278.216 274.2 279.816C275.312 280.984 276.272 281.648 276.296 281.328C276.32 281.008 275.616 280.368 275.216 279.016C274.816 277.664 275.216 276.224 275.96 276.056C276.704 275.888 276.568 275.936 277.168 277.208C277.768 278.48 278.688 279.432 279.384 281.264C279.762 282.569 280.454 283.761 281.4 284.736C282.544 286.072 285.208 287.496 289.904 288.672Z" fill="#FFCEA9"/>
<path d="M306.792 262.472C303.512 261.976 301.192 263.456 299.752 268.384C298.312 273.312 297.304 277.448 297.304 277.448C298.603 279.321 300.569 280.626 302.8 281.096C306.72 282.04 308.12 280.176 308.12 280.176C308.12 280.176 309.208 274.992 309.888 271.424C310.568 267.856 310.848 263.056 306.792 262.472Z" fill="#EDEDED"/>
<path d="M308.008 247.232L313.616 245.592L313.448 245.224L307.832 246.864L308.008 247.232Z" fill="white"/>
<path d="M308.456 249.888L308.416 250.288L313.096 250.2L313.136 249.8L308.456 249.888Z" fill="white"/>
<path d="M307.84 255.624C306.352 255.624 305.12 253.264 304.192 250.824C303.574 249.104 303.289 247.283 303.352 245.456C303.353 245.412 303.365 245.37 303.387 245.332C303.409 245.294 303.44 245.262 303.477 245.239C303.515 245.216 303.557 245.202 303.601 245.2C303.645 245.197 303.688 245.206 303.728 245.224C305.196 246.131 306.89 246.608 308.616 246.6L309.416 250.408C309.416 250.408 308 255.432 307.84 255.624Z" fill="#EDEDED"/>
<path d="M304.736 237.8C304.736 237.8 299.56 229.928 310.776 228.328C318.872 227.168 324.096 232.328 324.672 238.008C325.248 243.392 321.928 249 319.528 251.216C318.36 251.64 315.832 251.872 312.544 250.416C312.403 248.941 312.349 247.458 312.384 245.976C312.384 245.976 316.328 237.664 304.736 237.8Z" fill="#3A2C6D"/>
<path d="M331.256 272.688L299.2 302.576L297.328 360.048C297.328 360.048 306.32 364.44 316.528 362.064L318.4 340L321.232 360L320.896 360.608C325.738 358.439 329.889 354.979 332.896 350.608L331.256 272.688Z" fill="#F4F4F4"/>
<path d="M297.304 277.448L295.704 284.384C295.704 284.384 294.36 289.24 290.904 288.008C287.651 286.64 284.48 285.082 281.408 283.344L277.264 291.848L285.832 295.848C285.832 295.848 297.728 300.088 301.032 295.848C304.336 291.608 308.048 280.16 308.048 280.16L297.304 277.448Z" fill="#EDEDED"/>
</g>
<defs>
<clipPath id="clip0">
<rect width="338.88" height="400" fill="white"/>
</clipPath>
</defs>
</svg>
