<svg width="400" height="363" viewBox="0 0 400 363" fill="none" xmlns="http://www.w3.org/2000/svg">
<g clip-path="url(#clip0)">
<path opacity="0.4" d="M105.432 359.2L5.70402 301.6C-2.74398 296.72 -1.68798 288.2 8.10402 282.568L248.976 143.48C258.736 137.88 273.488 137.24 281.936 142.112L381.664 199.712C390.112 204.584 389.048 213.104 379.264 218.736L138.4 357.808C128.632 363.44 113.88 364.056 105.432 359.2Z" fill="#D6D8E5"/>
<path d="M118.064 351.592L18.336 293.992C9.88801 289.12 10.952 280.6 20.736 274.968L261.6 135.904C271.36 130.304 286.112 129.656 294.56 134.536L394.288 192.136C402.736 197.016 401.68 205.536 391.888 211.168L151.024 350.232C141.264 355.864 126.512 356.472 118.064 351.592Z" fill="#B1B4C4"/>
<path d="M12.6319 285.632V276.448L23.3999 280.512L12.6319 285.632Z" fill="#B1B4C4"/>
<path d="M400 200.064V191.232L391.432 196.752L400 200.064Z" fill="#B1B4C4"/>
<path d="M118.064 343.824L18.336 286.224C9.88801 281.344 10.952 272.824 20.736 267.192L261.6 128.128C271.36 122.528 286.112 121.888 294.56 126.76L394.288 184.36C402.736 189.232 401.68 197.752 391.888 203.384L151.024 342.456C141.264 348.088 126.512 348.704 118.064 343.824Z" fill="#616E84"/>
<path d="M30.3697 298.038C30.8824 297.742 30.8844 296.786 30.3741 295.902C29.8638 295.018 29.0344 294.542 28.5217 294.838C28.009 295.134 28.007 296.09 28.5173 296.974C29.0276 297.858 29.857 298.334 30.3697 298.038Z" fill="#757B89"/>
<path d="M35.1707 300.81C35.6834 300.514 35.6854 299.558 35.175 298.674C34.6647 297.79 33.8354 297.313 33.3227 297.61C32.8099 297.906 32.808 298.862 33.3183 299.746C33.8286 300.63 34.6579 301.106 35.1707 300.81Z" fill="#757B89"/>
<path d="M39.9756 303.583C40.4884 303.287 40.4903 302.331 39.98 301.447C39.4697 300.563 38.6404 300.086 38.1276 300.382C37.6149 300.678 37.6129 301.635 38.1233 302.519C38.6336 303.403 39.4629 303.879 39.9756 303.583Z" fill="#757B89"/>
<path d="M44.7764 306.355C45.2891 306.059 45.2911 305.103 44.7808 304.219C44.2705 303.335 43.4411 302.858 42.9284 303.154C42.4157 303.45 42.4137 304.407 42.924 305.291C43.4343 306.175 44.2637 306.651 44.7764 306.355Z" fill="#757B89"/>
<path d="M85.9905 330.152C86.5032 329.856 86.5051 328.9 85.9948 328.016C85.4845 327.132 84.6552 326.655 84.1425 326.951C83.6297 327.247 83.6278 328.204 84.1381 329.088C84.6484 329.972 85.4777 330.448 85.9905 330.152Z" fill="#757B89"/>
<path d="M90.7915 332.924C91.3042 332.628 91.3061 331.672 90.7958 330.788C90.2855 329.904 89.4562 329.427 88.9435 329.723C88.4307 330.019 88.4288 330.976 88.9391 331.86C89.4494 332.744 90.2787 333.22 90.7915 332.924Z" fill="#757B89"/>
<path d="M95.5884 335.697C96.1011 335.401 96.1031 334.445 95.5928 333.561C95.0825 332.677 94.2531 332.2 93.7404 332.496C93.2277 332.792 93.2257 333.749 93.736 334.633C94.2463 335.517 95.0757 335.993 95.5884 335.697Z" fill="#757B89"/>
<path d="M100.389 338.47C100.902 338.174 100.904 337.217 100.394 336.333C99.8834 335.449 99.0541 334.973 98.5414 335.269C98.0286 335.565 98.0267 336.521 98.537 337.405C99.0473 338.289 99.8766 338.766 100.389 338.47Z" fill="#757B89"/>
<path d="M71.0562 322.472L57.8722 314.856C57.4155 314.53 57.041 314.103 56.7786 313.607C56.5161 313.111 56.3729 312.561 56.3602 312C56.3602 310.888 57.0322 310.4 57.8722 310.856L71.0562 318.472C71.5172 318.801 71.8943 319.234 72.157 319.736C72.4196 320.237 72.5605 320.794 72.5682 321.36C72.5682 322.44 71.8962 322.952 71.0562 322.472Z" fill="#757B89"/>
<path d="M369.816 221.928L357.552 229.008C356.752 229.456 356.144 229.008 356.144 227.944C356.152 227.417 356.284 226.899 356.528 226.433C356.773 225.966 357.123 225.563 357.552 225.256L369.816 218.176C370.616 217.728 371.216 218.176 371.216 219.24C371.209 219.766 371.079 220.284 370.835 220.75C370.592 221.217 370.243 221.621 369.816 221.928Z" fill="#757B89"/>
<path d="M351.032 232.8L338.768 239.88C337.968 240.328 337.36 239.88 337.36 238.816C337.369 238.29 337.501 237.774 337.745 237.308C337.99 236.843 338.34 236.441 338.768 236.136L351.032 229.056C351.832 228.608 352.432 229.056 352.432 230.12C352.425 230.645 352.295 231.161 352.052 231.627C351.808 232.092 351.459 232.494 351.032 232.8Z" fill="#757B89"/>
<path d="M118.064 342.4L18.336 284.8C9.88801 279.928 10.952 271.408 20.736 265.776L261.6 126.72C271.36 121.12 286.112 120.472 294.56 125.352L394.288 182.952C402.736 187.832 401.68 196.352 391.888 201.984L151.024 341.048C141.264 346.68 126.512 347.288 118.064 342.4Z" fill="#20232D"/>
<path d="M378.792 187.624L339.856 165.144L339.76 165.2C335.16 167.856 327.704 167.856 323.104 165.2C318.504 162.544 318.504 158.24 323.104 155.6L323.2 155.544L284.264 133.064C278.352 129.648 268.76 129.648 262.848 133.064L28.216 268.512C22.304 271.928 22.304 277.464 28.216 280.872L122.736 335.448C128.656 338.864 138.24 338.864 144.152 335.448L378.792 200C384.704 196.576 384.704 191.04 378.792 187.624Z" fill="#F2F5F9"/>
<path d="M333.672 162.048C336.142 162.048 338.144 160.891 338.144 159.464C338.144 158.037 336.142 156.88 333.672 156.88C331.202 156.88 329.2 158.037 329.2 159.464C329.2 160.891 331.202 162.048 333.672 162.048Z" fill="#2B303F"/>
<path opacity="0.1" d="M332.352 160.232C332.189 160.182 332.046 160.08 331.945 159.943C331.844 159.805 331.789 159.639 331.789 159.468C331.789 159.297 331.844 159.131 331.945 158.994C332.046 158.856 332.189 158.755 332.352 158.704C332.762 158.495 333.216 158.386 333.676 158.386C334.136 158.386 334.59 158.495 335 158.704C335.163 158.755 335.306 158.856 335.407 158.994C335.508 159.131 335.563 159.297 335.563 159.468C335.563 159.639 335.508 159.805 335.407 159.943C335.306 160.08 335.163 160.182 335 160.232C334.59 160.441 334.136 160.551 333.676 160.551C333.216 160.551 332.762 160.441 332.352 160.232Z" fill="white"/>
<path d="M222 279.696L138.848 328.048L105.128 308.584L188.288 260.232L222 279.696Z" fill="#B9CC00"/>
<path d="M307.048 160.776L163.608 244.376L124.336 222.872L267.768 139.272L307.048 160.776Z" fill="#B9CC00"/>
<path d="M164.88 211.28H160.976V225.008C160.991 225.18 161.051 225.345 161.151 225.486C161.251 225.626 161.387 225.738 161.544 225.808C161.972 226.025 162.444 226.139 162.924 226.139C163.404 226.139 163.876 226.025 164.304 225.808C164.463 225.739 164.601 225.629 164.703 225.488C164.804 225.347 164.865 225.181 164.88 225.008V211.28Z" fill="#443D31"/>
<path d="M163.024 211.488C168.675 211.488 173.256 206.907 173.256 201.256C173.256 195.605 168.675 191.024 163.024 191.024C157.373 191.024 152.792 195.605 152.792 201.256C152.792 206.907 157.373 211.488 163.024 211.488Z" fill="#C6E800"/>
<path d="M188.8 197.552H184.896V211.272C184.911 211.445 184.972 211.611 185.074 211.752C185.175 211.893 185.313 212.003 185.472 212.072C185.9 212.289 186.372 212.403 186.852 212.403C187.332 212.403 187.804 212.289 188.232 212.072C188.389 212.002 188.525 211.89 188.625 211.75C188.725 211.609 188.785 211.444 188.8 211.272V197.552Z" fill="#443D31"/>
<path d="M186.944 197.76C192.595 197.76 197.176 193.179 197.176 187.528C197.176 181.877 192.595 177.296 186.944 177.296C181.293 177.296 176.712 181.877 176.712 187.528C176.712 193.179 181.293 197.76 186.944 197.76Z" fill="#C6E800"/>
<path d="M238.584 171.416H234.68V185.144C234.695 185.317 234.756 185.483 234.858 185.624C234.959 185.764 235.097 185.875 235.256 185.944C235.684 186.161 236.157 186.274 236.636 186.274C237.116 186.274 237.589 186.161 238.016 185.944C238.174 185.873 238.309 185.762 238.409 185.621C238.509 185.481 238.569 185.316 238.584 185.144V171.416Z" fill="#443D31"/>
<path d="M236.728 171.624C242.379 171.624 246.96 167.043 246.96 161.392C246.96 155.741 242.379 151.16 236.728 151.16C231.077 151.16 226.496 155.741 226.496 161.392C226.496 167.043 231.077 171.624 236.728 171.624Z" fill="#C6E800"/>
<path d="M312.6 176.712L94.2961 302.752L85.9841 297.952L304.288 171.912L312.6 176.712Z" fill="#FF6161"/>
<path d="M329.032 220.672L294.392 200.672V117.472L329.032 137.472V220.672Z" fill="#E4E7EF"/>
<path d="M329.032 137.472L294.392 117.472L329.032 97.4722L363.672 117.472L329.032 137.472Z" fill="#EDF1F9"/>
<path d="M322.8 154.672L300.632 141.872V130.672L322.8 143.472V154.672Z" fill="#6675FF"/>
<path d="M363.672 200.672L329.032 220.68V137.48L363.672 117.48V200.672Z" fill="#DADCE5"/>
<path d="M343.584 149.88L335.264 154.68V143.48L343.584 138.68V149.88Z" fill="#6675FF"/>
<path d="M357.44 141.88L349.12 146.68V135.48L357.44 130.68V141.88Z" fill="#6675FF"/>
<path d="M343.584 166.68L335.264 171.48V160.28L343.584 155.48V166.68Z" fill="#6675FF"/>
<path d="M357.44 158.68L349.12 163.48V152.28L357.44 147.48V158.68Z" fill="#6675FF"/>
<path d="M343.584 183.48L335.264 188.28V177.08L343.584 172.28V183.48Z" fill="#6675FF"/>
<path d="M357.44 175.48L349.12 180.28V169.08L357.44 164.28V175.48Z" fill="#6675FF"/>
<path d="M343.584 201.08L335.264 205.88V194.68L343.584 189.88V201.08Z" fill="#6675FF"/>
<path d="M357.44 193.08L349.12 197.88V186.68L357.44 181.88V193.08Z" fill="#6675FF"/>
<path d="M322.8 171.472L300.632 158.672V147.472L322.8 160.272V171.472Z" fill="#6675FF"/>
<path d="M322.8 188.272L300.632 175.472V164.272L322.8 177.072V188.272Z" fill="#6675FF"/>
<path d="M322.8 205.872L300.632 193.072V181.872L322.8 194.672V205.872Z" fill="#6675FF"/>
<path d="M329.032 128.68L309.048 117.144V113.568L329.032 125.112V128.68Z" fill="#E4E7EF"/>
<path d="M329.032 128.68L349.024 117.144V113.568L329.032 125.112V128.68Z" fill="#DADCE5"/>
<path d="M121.992 268.44L87.3521 248.44V117.248L121.992 137.248V268.44Z" fill="#E4E7EF"/>
<path d="M121.992 137.248L87.3521 117.248L121.992 97.248L156.632 117.248L121.992 137.248Z" fill="#EDF1F9"/>
<path d="M115.752 154.448L93.584 141.648V130.448L115.752 143.248V154.448Z" fill="#84A6F4"/>
<path d="M156.632 248.448L121.992 268.448V137.248L156.632 117.248V248.448Z" fill="#DADCE5"/>
<path d="M136.536 149.648L128.224 154.448V143.248L136.536 138.448V149.648Z" fill="#84A6F4"/>
<path d="M150.392 141.648L142.08 146.448V135.248L150.392 130.448V141.648Z" fill="#84A6F4"/>
<path d="M136.536 166.448L128.224 171.248V160.048L136.536 155.248V166.448Z" fill="#84A6F4"/>
<path d="M150.392 158.448L142.08 163.248V152.048L150.392 147.248V158.448Z" fill="#84A6F4"/>
<path d="M136.536 183.248L128.224 188.048V176.848L136.536 172.048V183.248Z" fill="#84A6F4"/>
<path d="M150.392 175.248L142.08 180.048V168.848L150.392 164.048V175.248Z" fill="#84A6F4"/>
<path d="M136.536 200.848L128.224 205.648V194.448L136.536 189.648V200.848Z" fill="#84A6F4"/>
<path d="M150.392 192.848L142.08 197.648V186.448L150.392 181.648V192.848Z" fill="#84A6F4"/>
<path d="M136.536 219.64L128.224 224.44V213.248L136.536 208.448V219.64Z" fill="#84A6F4"/>
<path d="M150.392 211.64L142.08 216.44V205.248L150.392 200.448V211.64Z" fill="#84A6F4"/>
<path d="M136.536 238.856L128.224 243.656V232.456L136.536 227.656V238.856Z" fill="#84A6F4"/>
<path d="M150.392 230.856L142.08 235.656V224.456L150.392 219.656V230.856Z" fill="#84A6F4"/>
<path d="M115.752 171.248L93.584 158.448V147.248L115.752 160.048V171.248Z" fill="#84A6F4"/>
<path d="M115.752 188.048L93.584 175.248V164.048L115.752 176.848V188.048Z" fill="#84A6F4"/>
<path d="M115.752 205.648L93.584 192.848V181.648L115.752 194.448V205.648Z" fill="#84A6F4"/>
<path d="M115.752 224.44L93.584 211.64V200.448L115.752 213.248V224.44Z" fill="#84A6F4"/>
<path d="M115.752 243.656L93.584 230.856V219.656L115.752 232.456V243.656Z" fill="#84A6F4"/>
<path d="M121.992 128.456L102 116.92V113.344L121.992 124.888V128.456Z" fill="#E4E7EF"/>
<path d="M121.992 128.456L141.984 116.92V113.344L121.992 124.888V128.456Z" fill="#DADCE5"/>
<path d="M121.992 268.44L87.3521 248.44V117.248L121.992 137.248V268.44Z" fill="#E4E7EF"/>
<path d="M121.992 137.248L87.3521 117.248L121.992 97.248L156.632 117.248L121.992 137.248Z" fill="#EDF1F9"/>
<path d="M115.76 154.448L93.584 141.648V130.448L115.76 143.248V154.448Z" fill="#6675FF"/>
<path d="M156.632 248.448L121.992 268.448V137.248L156.632 117.248V248.448Z" fill="#DADCE5"/>
<path d="M136.544 149.648L128.224 154.448V143.248L136.544 138.448V149.648Z" fill="#6675FF"/>
<path d="M150.4 141.648L142.08 146.448V135.248L150.4 130.448V141.648Z" fill="#6675FF"/>
<path d="M136.544 166.448L128.224 171.248V160.048L136.544 155.248V166.448Z" fill="#6675FF"/>
<path d="M150.4 158.448L142.08 163.248V152.048L150.4 147.248V158.448Z" fill="#6675FF"/>
<path d="M136.544 183.248L128.224 188.048V176.848L136.544 172.048V183.248Z" fill="#6675FF"/>
<path d="M150.4 175.248L142.08 180.048V168.848L150.4 164.048V175.248Z" fill="#6675FF"/>
<path d="M136.544 200.848L128.224 205.648V194.448L136.544 189.648V200.848Z" fill="#6675FF"/>
<path d="M150.4 192.848L142.08 197.648V186.448L150.4 181.648V192.848Z" fill="#6675FF"/>
<path d="M136.544 219.64L128.224 224.44V213.248L136.544 208.448V219.64Z" fill="#6675FF"/>
<path d="M150.4 211.64L142.08 216.44V205.248L150.4 200.448V211.64Z" fill="#6675FF"/>
<path d="M136.544 238.856L128.224 243.656V232.456L136.544 227.656V238.856Z" fill="#6675FF"/>
<path d="M150.4 230.856L142.08 235.656V224.456L150.4 219.656V230.856Z" fill="#6675FF"/>
<path d="M115.76 171.248L93.584 158.448V147.248L115.76 160.048V171.248Z" fill="#6675FF"/>
<path d="M115.76 188.048L93.584 175.248V164.048L115.76 176.848V188.048Z" fill="#6675FF"/>
<path d="M115.76 205.648L93.584 192.848V181.648L115.76 194.448V205.648Z" fill="#6675FF"/>
<path d="M115.76 224.44L93.584 211.64V200.448L115.76 213.248V224.44Z" fill="#6675FF"/>
<path d="M115.76 243.656L93.584 230.856V219.656L115.76 232.456V243.656Z" fill="#6675FF"/>
<path d="M121.992 128.456L102 116.92V113.344L121.992 124.888V128.456Z" fill="#E4E7EF"/>
<path d="M121.992 128.456L141.984 116.92V113.344L121.992 124.888V128.456Z" fill="#DADCE5"/>
<path d="M277.768 249.072L243.128 229.072V97.8721L277.768 117.872V249.072Z" fill="#E4E7EF"/>
<path d="M277.768 117.872L243.12 97.8721L277.76 77.8721L312.408 97.8721L277.768 117.872Z" fill="#EDF1F9"/>
<path d="M271.528 135.072L249.36 122.272V111.072L271.528 123.872V135.072Z" fill="#6675FF"/>
<path d="M312.408 229.08L277.76 249.08V117.88L312.408 97.8799V229.08Z" fill="#DADCE5"/>
<path d="M292.312 130.28L284 135.08V123.88L292.312 119.08V130.28Z" fill="#6675FF"/>
<path d="M306.168 122.28L297.856 127.08V115.88L306.168 111.08V122.28Z" fill="#6675FF"/>
<path d="M292.312 147.08L284 151.88V140.68L292.312 135.88V147.08Z" fill="#6675FF"/>
<path d="M306.168 139.08L297.856 143.88V132.68L306.168 127.88V139.08Z" fill="#6675FF"/>
<path d="M292.312 163.88L284 168.68V157.48L292.312 152.68V163.88Z" fill="#6675FF"/>
<path d="M306.168 155.88L297.856 160.68V149.48L306.168 144.68V155.88Z" fill="#6675FF"/>
<path d="M292.312 181.48L284 186.28V175.08L292.312 170.28V181.48Z" fill="#6675FF"/>
<path d="M306.168 173.48L297.856 178.28V167.08L306.168 162.28V173.48Z" fill="#6675FF"/>
<path d="M292.312 200.272L284 205.072V193.872L292.312 189.072V200.272Z" fill="#6675FF"/>
<path d="M306.168 192.272L297.856 197.072V185.872L306.168 181.072V192.272Z" fill="#6675FF"/>
<path d="M292.312 219.488L284 224.288V213.088L292.312 208.288V219.488Z" fill="#6675FF"/>
<path d="M306.168 211.488L297.856 216.288V205.088L306.168 200.28V211.488Z" fill="#6675FF"/>
<path d="M271.528 151.872L249.36 139.072V127.872L271.528 140.672V151.872Z" fill="#6675FF"/>
<path d="M271.528 168.672L249.36 155.872V144.672L271.528 157.472V168.672Z" fill="#6675FF"/>
<path d="M271.528 186.272L249.36 173.472V162.272L271.528 175.072V186.272Z" fill="#6675FF"/>
<path d="M271.528 205.072L249.36 192.272V181.072L271.528 193.872V205.072Z" fill="#6675FF"/>
<path d="M271.528 224.288L249.36 211.488V200.28L271.528 213.088V224.288Z" fill="#6675FF"/>
<path d="M277.768 109.088L257.776 97.5441V93.9761L277.768 105.512V109.088Z" fill="#E4E7EF"/>
<path d="M277.768 109.088L297.76 97.5441V93.9761L277.768 105.512V109.088Z" fill="#DADCE5"/>
<path d="M76.9601 294.048L42.3201 274.048V190.848L76.9601 210.848V294.048Z" fill="#E4E7EF"/>
<path d="M76.9601 210.848L42.3201 190.848L76.9521 170.848L111.6 190.848L76.9601 210.848Z" fill="#EDF1F9"/>
<path d="M70.7202 228.048L48.5522 215.248V204.048L70.7202 216.848V228.048Z" fill="#6675FF"/>
<path d="M111.6 274.048L76.9601 294.048V210.856L111.6 190.856V274.048Z" fill="#DADCE5"/>
<path d="M91.5042 223.256L83.1922 228.056V216.856L91.5042 212.056V223.256Z" fill="#6675FF"/>
<path d="M105.36 215.256L97.0479 220.056V208.856L105.36 204.056V215.256Z" fill="#6675FF"/>
<path d="M91.5042 240.056L83.1922 244.856V233.656L91.5042 228.856V240.056Z" fill="#6675FF"/>
<path d="M105.36 232.056L97.0479 236.856V225.656L105.36 220.856V232.056Z" fill="#6675FF"/>
<path d="M91.5042 256.856L83.1922 261.656V250.456L91.5042 245.656V256.856Z" fill="#6675FF"/>
<path d="M105.36 248.856L97.0479 253.656V242.456L105.36 237.656V248.856Z" fill="#6675FF"/>
<path d="M91.5042 274.448L83.1922 279.248V268.048L91.5042 263.248V274.448Z" fill="#6675FF"/>
<path d="M105.36 266.448L97.0479 271.248V260.048L105.36 255.248V266.448Z" fill="#6675FF"/>
<path d="M70.7202 244.848L48.5522 232.048V220.848L70.7202 233.648V244.848Z" fill="#6675FF"/>
<path d="M70.7202 261.648L48.5522 248.848V237.648L70.7202 250.448V261.648Z" fill="#6675FF"/>
<path d="M70.7202 279.248L48.5522 266.448V255.248L70.7202 268.048V279.248Z" fill="#6675FF"/>
<path d="M76.96 202.056L56.968 190.52V186.944L76.96 198.488V202.056Z" fill="#E4E7EF"/>
<path d="M76.9601 202.056L96.9521 190.52V186.944L76.9601 198.488V202.056Z" fill="#DADCE5"/>
<path d="M228.24 276.616L193.6 256.616V173.416L228.24 193.416V276.616Z" fill="#E4E7EF"/>
<path d="M228.24 193.416L193.592 173.416L228.232 153.416L262.88 173.416L228.24 193.416Z" fill="#EDF1F9"/>
<path d="M222 210.616L199.832 197.816V186.616L222 199.416V210.616Z" fill="#6675FF"/>
<path d="M262.88 256.616L228.24 276.616V193.424L262.88 173.424V256.616Z" fill="#DADCE5"/>
<path d="M242.784 205.824L234.472 210.624V199.424L242.784 194.624V205.824Z" fill="#6675FF"/>
<path d="M256.64 197.824L248.328 202.624V191.424L256.64 186.624V197.824Z" fill="#6675FF"/>
<path d="M242.784 222.624L234.472 227.424V216.224L242.784 211.424V222.624Z" fill="#6675FF"/>
<path d="M256.64 214.624L248.328 219.424V208.224L256.64 203.424V214.624Z" fill="#6675FF"/>
<path d="M242.784 239.416L234.472 244.216V233.016L242.784 228.216V239.416Z" fill="#6675FF"/>
<path d="M256.64 231.416L248.328 236.216V225.016L256.64 220.216V231.416Z" fill="#6675FF"/>
<path d="M242.784 257.016L234.472 261.816V250.616L242.784 245.816V257.016Z" fill="#6675FF"/>
<path d="M256.64 249.016L248.328 253.816V242.616L256.64 237.816V249.016Z" fill="#6675FF"/>
<path d="M222 227.416L199.832 214.616V203.416L222 216.216V227.416Z" fill="#6675FF"/>
<path d="M222 244.216L199.832 231.416V220.216L222 233.016V244.216Z" fill="#6675FF"/>
<path d="M222 261.816L199.832 249.016V237.816L222 250.616V261.816Z" fill="#6675FF"/>
<path d="M228.24 184.624L208.248 173.088V169.512L228.24 181.056V184.624Z" fill="#E4E7EF"/>
<path d="M228.24 184.624L248.232 173.088V169.512L228.24 181.056V184.624Z" fill="#DADCE5"/>
<path d="M189.344 269.728H185.44V283.456C185.456 283.628 185.518 283.793 185.62 283.934C185.721 284.075 185.858 284.186 186.016 284.256C186.444 284.473 186.916 284.586 187.396 284.586C187.876 284.586 188.348 284.473 188.776 284.256C188.932 284.184 189.067 284.072 189.167 283.932C189.266 283.791 189.328 283.627 189.344 283.456V269.728Z" fill="#443D31"/>
<path d="M187.488 269.936C193.139 269.936 197.72 265.355 197.72 259.704C197.72 254.053 193.139 249.472 187.488 249.472C181.837 249.472 177.256 254.053 177.256 259.704C177.256 265.355 181.837 269.936 187.488 269.936Z" fill="#C6E800"/>
<path d="M165.664 283.424H161.76V297.152C161.775 297.325 161.836 297.491 161.938 297.631C162.039 297.772 162.177 297.883 162.336 297.952C162.764 298.169 163.236 298.282 163.716 298.282C164.196 298.282 164.668 298.169 165.096 297.952C165.253 297.881 165.389 297.77 165.489 297.629C165.589 297.488 165.649 297.324 165.664 297.152V283.424Z" fill="#443D31"/>
<path d="M163.808 283.632C169.459 283.632 174.04 279.051 174.04 273.4C174.04 267.749 169.459 263.168 163.808 263.168C158.157 263.168 153.576 267.749 153.576 273.4C153.576 279.051 158.157 283.632 163.808 283.632Z" fill="#C6E800"/>
<path d="M140.328 298.072H136.424V311.792C136.44 311.963 136.5 312.128 136.6 312.268C136.7 312.409 136.835 312.52 136.992 312.592C137.421 312.809 137.895 312.922 138.376 312.922C138.857 312.922 139.331 312.809 139.76 312.592C139.917 312.52 140.052 312.409 140.152 312.268C140.252 312.128 140.312 311.963 140.328 311.792V298.072Z" fill="#443D31"/>
<path d="M138.472 298.28C144.123 298.28 148.704 293.699 148.704 288.048C148.704 282.397 144.123 277.816 138.472 277.816C132.821 277.816 128.24 282.397 128.24 288.048C128.24 293.699 132.821 298.28 138.472 298.28Z" fill="#C6E800"/>
<path d="M282.848 2.90405C277.424 -0.223955 272.448 -0.735955 268.704 0.944045C268.12 1.2049 267.563 1.52101 267.04 1.88804L259.44 6.18404C259.44 6.18404 260.888 7.17604 262.528 8.25604C261.817 10.5012 261.469 12.8452 261.496 15.2C261.507 17.6216 261.775 20.0352 262.296 22.4L260.096 22.568C260.096 22.792 263.576 41.136 263.976 41.872C264.376 42.608 270.888 50.44 271.056 50.376C271.448 49.8004 271.806 49.202 272.128 48.584C274.76 54.448 277.336 59.784 279.328 63.68L272.688 66.736L275.088 74.888L283.672 69.984C283.72 69.9649 283.765 69.9408 283.808 69.912C286.816 67.608 297.048 59.28 302.392 48.872C303.715 46.0667 304.353 42.9879 304.256 39.888C304.2 26.288 294.624 9.70404 282.848 2.90405ZM282.848 40.36C276.736 36.832 271.76 28.216 271.76 21.16C271.76 15.264 275.232 12.304 279.928 13.536L279 13.952C279.624 14.688 289.848 32.624 290.304 34.568C290.839 36.1887 291.651 37.7044 292.704 39.048C290.904 42.144 287.2 42.856 282.848 40.36Z" fill="#DB4949"/>
<path d="M274.28 7.8001C262.512 1.0001 252.936 6.5361 252.936 20.1281C252.975 23.9171 253.603 27.6769 254.8 31.2721C260.136 47.8401 270.4 68.0001 273.384 73.7681C273.586 74.1768 273.896 74.5226 274.28 74.7681C274.409 74.8652 274.564 74.9211 274.726 74.9282C274.887 74.9353 275.047 74.8935 275.184 74.8081C278.192 72.5041 288.432 64.1761 293.768 53.7681C295.088 50.9677 295.727 47.8946 295.632 44.8001C295.632 31.2001 286.056 14.6001 274.28 7.8001ZM274.28 45.2641C268.168 41.7281 263.192 33.1121 263.192 26.0641C263.192 19.0161 268.168 16.1361 274.28 19.6641C280.392 23.1921 285.376 31.8081 285.376 38.8641C285.376 45.9201 280.4 48.8001 274.28 45.2641Z" fill="#FF6161"/>
<path opacity="0.1" d="M277.768 99.2482C283.861 99.2482 288.8 96.3971 288.8 92.8802C288.8 89.3633 283.861 86.5122 277.768 86.5122C271.675 86.5122 266.736 89.3633 266.736 92.8802C266.736 96.3971 271.675 99.2482 277.768 99.2482Z" fill="black"/>
</g>
<defs>
<clipPath id="clip0">
<rect width="400" height="362.472" fill="white"/>
</clipPath>
</defs>
</svg>
