<svg width="400" height="376" viewBox="0 0 400 376" fill="none" xmlns="http://www.w3.org/2000/svg">
<g clip-path="url(#clip0)">
<path opacity="0.4" d="M291.648 221.208L121.968 319.176L0 248.76L169.936 150.944L291.648 221.208Z" fill="#D6D8E5"/>
<path d="M298.976 206.104L129.296 304.08L7.32797 233.664L177.264 135.84L298.976 206.104Z" fill="#41538C"/>
<path d="M298.976 216.936L129.296 314.904V304.08L298.976 206.112V216.936Z" fill="#263351"/>
<path d="M129.296 314.904L7.32797 244.496V233.672L129.296 304.08V314.904Z" fill="#314366"/>
<path d="M122.568 269.176L47.4 225.776L94.912 198.344L170.072 241.744L122.568 269.176Z" fill="#41538C"/>
<path d="M170.08 249.96L122.568 277.392V269.2L170.08 241.768V249.96Z" fill="#263351"/>
<path d="M122.568 277.392L47.4 233.992V225.808L122.568 269.2V277.392Z" fill="#314366"/>
<path d="M118.248 251.064L72.6 224.712L99.224 209.344L144.872 235.696L118.248 251.064Z" fill="#8DBBFF"/>
<path d="M118.248 254.304L72.6 227.952V224.656L118.248 251.008V254.304Z" fill="#7FAEDD"/>
<path d="M144.872 238.936L118.248 254.304V251.008L144.872 235.64V238.936Z" fill="#6F98C9"/>
<path opacity="0.2" d="M108.896 236.76C115.166 236.76 120.248 233.823 120.248 230.2C120.248 226.577 115.166 223.64 108.896 223.64C102.627 223.64 97.5441 226.577 97.5441 230.2C97.5441 233.823 102.627 236.76 108.896 236.76Z" fill="white"/>
<path d="M159.768 162.904C159.768 162.904 174.168 136.784 162.68 106.424C151.192 76.0638 175.584 79.0478 175.584 79.0478L201.536 103.24L205.536 172.176L186.04 192.408L159.44 182.456L159.768 162.904Z" fill="#314366"/>
<path d="M151.2 40.728C151.2 40.728 184.456 49.984 197.6 64.64C210.744 79.296 158.952 65.496 158.952 65.496L151.2 40.728Z" fill="#41538C"/>
<path d="M175.464 53.704L122.368 84.36L98.064 71.384L151.16 40.728L175.464 53.704Z" fill="#41538C"/>
<path d="M201.024 206.112C201.024 206.112 221.76 154.448 214.76 103.488C209.288 64.1199 184.576 55.3679 184.576 55.3679C184.576 55.3679 177.576 52.3039 172.112 52.0879L135.136 72.9919V124.192L172.112 102.856C172.112 102.856 193.76 112.912 184.576 150.536C181.004 167.88 176.539 185.028 171.2 201.912L201.024 206.112Z" fill="#263351"/>
<path d="M175.808 194.072L192.096 181.712L167.632 167.448L153.008 159.008C149.728 157.112 144.112 163.008 144.112 168.4V208.184L172.52 224.728L196.04 199.928L175.808 194.072Z" fill="#314366"/>
<path d="M219.56 197.6L172.52 224.8V184.936C172.52 179.576 178.12 173.648 181.416 175.544L196.04 184L219.56 197.6Z" fill="#263351"/>
<path d="M192.108 203.465C195.477 197.63 195.479 191.324 192.111 189.38C188.744 187.436 183.284 190.59 179.915 196.425C176.546 202.26 176.544 208.567 179.911 210.511C183.279 212.455 188.739 209.3 192.108 203.465Z" fill="#ACBAD1"/>
<path d="M189.06 201.706C190.743 198.79 190.743 195.638 189.06 194.666C187.376 193.694 184.647 195.27 182.963 198.186C181.28 201.101 181.28 204.253 182.964 205.225C184.647 206.197 187.377 204.621 189.06 201.706Z" fill="#99A9BF"/>
<path d="M154.82 95.8378C158.189 90.0026 158.191 83.6963 154.823 81.7523C151.456 79.8082 145.996 82.9626 142.627 88.7978C139.258 94.6329 139.256 100.939 142.623 102.883C145.991 104.827 151.451 101.673 154.82 95.8378Z" fill="#ACBAD1"/>
<path d="M151.772 94.0776C153.455 91.1619 153.455 88.0104 151.771 87.0383C150.088 86.0663 147.358 87.6419 145.675 90.5576C143.992 93.4733 143.992 96.6249 145.675 97.5969C147.359 98.5689 150.088 96.9933 151.772 94.0776Z" fill="#99A9BF"/>
<path d="M116.744 177.832V158.4H101.032V178.088C101.088 179.2 101.832 180.304 103.32 181.16C105.044 182.032 106.948 182.486 108.88 182.486C110.812 182.486 112.716 182.032 114.44 181.16C116 180.216 116.8 179.024 116.744 177.832Z" fill="#314366"/>
<path d="M108.888 162.744C113.231 162.744 116.752 160.71 116.752 158.2C116.752 155.691 113.231 153.656 108.888 153.656C104.545 153.656 101.024 155.691 101.024 158.2C101.024 160.71 104.545 162.744 108.888 162.744Z" fill="#BCC0CE"/>
<path d="M124.608 161.104V122.184C124.768 119.784 123.248 117.28 120.032 115.424C113.888 111.872 103.928 111.872 97.792 115.424C94.592 117.28 93.056 119.744 93.208 122.184V161.136C93.1998 161.229 93.1998 161.323 93.208 161.416V161.552C93.328 163.784 94.808 165.992 97.792 167.696C103.936 171.24 113.888 171.24 120.032 167.696C123.2 165.88 124.688 163.488 124.608 161.104Z" fill="#263351"/>
<path d="M135.136 136.84V45.6398L82.664 45.1758V136.856C82.664 140.736 85.224 144.616 90.352 147.576C100.6 153.488 117.216 153.488 127.472 147.576C132.576 144.6 135.136 140.72 135.136 136.84Z" fill="#314366"/>
<path d="M108.896 60.3118C123.392 60.3118 135.144 53.528 135.144 45.1598C135.144 36.7916 123.392 30.0078 108.896 30.0078C94.3997 30.0078 82.6481 36.7916 82.6481 45.1598C82.6481 53.528 94.3997 60.3118 108.896 60.3118Z" fill="#41538C"/>
<path d="M121.672 44.5761V12.9521H96.136V44.9521C96.224 46.7601 97.456 48.5601 99.856 49.9441C104.848 52.8241 112.936 52.8241 117.92 49.9441C120.496 48.4481 121.736 46.5041 121.672 44.5761Z" fill="#263351"/>
<path d="M108.904 20.0562C115.96 20.0562 121.68 16.7539 121.68 12.6802C121.68 8.60655 115.96 5.3042 108.904 5.3042C101.848 5.3042 96.128 8.60655 96.128 12.6802C96.128 16.7539 101.848 20.0562 108.904 20.0562Z" fill="#8DBBFF"/>
<path d="M126.216 10.0001L125.112 10.6561C124.402 9.59111 123.502 8.66629 122.456 7.92814C122.037 7.61805 121.599 7.33482 121.144 7.08014C120.407 6.65382 119.64 6.28215 118.848 5.96814C112.435 3.54447 105.357 3.54447 98.944 5.96814C98.1573 6.28706 97.3929 6.65856 96.656 7.08014C96.304 7.28814 95.968 7.48814 95.656 7.70414C94.4058 8.5189 93.3491 9.59748 92.56 10.8641L91.576 9.98414V14.1441C91.596 15.5009 92.0378 16.8178 92.8401 17.9121C93.8588 19.2758 95.1606 20.4029 96.656 21.2161C103.416 25.1281 114.384 25.1281 121.144 21.2161C124.528 19.2641 126.224 16.7041 126.224 14.1441V10.0001H126.216ZM100.312 9.20014C105.056 6.46414 112.744 6.46414 117.48 9.20014C118.733 9.85832 119.777 10.8529 120.496 12.0721V12.1521C120.768 12.6552 120.934 13.2087 120.983 13.7783C121.033 14.3479 120.965 14.9217 120.784 15.4641L110.216 17.9761C110.216 17.9761 103.408 17.4801 102.464 17.3601C100.612 16.8778 98.7854 16.301 96.992 15.6321C96.7769 15.0545 96.6897 14.4369 96.7367 13.8222C96.7837 13.2076 96.9636 12.6104 97.2641 12.0721C97.9935 10.8523 99.0492 9.86036 100.312 9.20814V9.20014Z" fill="#314366"/>
<path d="M122.68 5.83173L122.456 7.94373L122.016 12.0797L120.536 12.1597H120.44C120.462 12.1329 120.481 12.1033 120.496 12.0717C119.777 10.8525 118.733 9.85791 117.48 9.19973C112.744 6.46373 105.056 6.46373 100.312 9.19973C99.0679 9.85698 98.0296 10.8454 97.312 12.0557L95.44 11.2557L95.672 7.73573L95.776 6.13573L99.288 3.73573C99.288 3.73573 104.472 1.55973 104.752 1.51173C105.032 1.46373 115.232 2.31173 115.232 2.31173L122.68 5.83173Z" fill="#263351"/>
<path d="M121.144 2.928C114.384 -0.976 103.416 -0.976 96.656 2.928C93.264 4.88 91.576 7.44 91.576 10C91.576 12.56 93.264 15.112 96.656 17.064C103.416 20.976 114.384 20.976 121.144 17.064C124.528 15.112 126.216 12.576 126.216 10.016C126.216 7.44 124.528 4.88 121.144 2.928ZM97.304 12.08C96.224 10.056 96.7761 7.808 98.9521 6.008C99.378 5.65418 99.836 5.34082 100.32 5.072C105.064 2.328 112.752 2.328 117.488 5.072C117.971 5.34279 118.429 5.65602 118.856 6.008C121.048 7.808 121.592 10.072 120.504 12.104C120.489 12.1356 120.47 12.1651 120.448 12.192C119.728 13.3679 118.706 14.3293 117.488 14.976C112.752 17.72 105.064 17.72 100.32 14.976C99.0632 14.3123 98.0182 13.3089 97.304 12.08Z" fill="#41538C"/>
<path opacity="0.2" d="M105.168 13.48C107.408 13.48 109.224 12.4305 109.224 11.136C109.224 9.84144 107.408 8.79199 105.168 8.79199C102.928 8.79199 101.112 9.84144 101.112 11.136C101.112 12.4305 102.928 13.48 105.168 13.48Z" fill="white"/>
<path opacity="0.2" d="M114.08 14.3599C115.428 14.3599 116.52 13.7296 116.52 12.9519C116.52 12.1743 115.428 11.5439 114.08 11.5439C112.732 11.5439 111.64 12.1743 111.64 12.9519C111.64 13.7296 112.732 14.3599 114.08 14.3599Z" fill="white"/>
<path opacity="0.4" d="M51.088 375.84C70.4666 375.84 86.176 366.771 86.176 355.584C86.176 344.397 70.4666 335.328 51.088 335.328C31.7094 335.328 16 344.397 16 355.584C16 366.771 31.7094 375.84 51.088 375.84Z" fill="#D6D8E5"/>
<path d="M90.6239 280.984H20.4559C20.4559 280.984 20.6959 340.48 20.5119 351.768C20.4666 352.276 20.4533 352.786 20.4719 353.296C20.4776 353.376 20.4776 353.456 20.4719 353.536C20.7519 358.496 24.1679 363.408 30.7279 367.2C44.4239 375.112 66.6399 375.112 80.3279 367.2C86.8879 363.408 90.2959 358.496 90.5759 353.536L90.6239 280.984Z" fill="#8C50FF"/>
<path d="M55.5439 300.576C74.9225 300.576 90.6319 291.507 90.6319 280.32C90.6319 269.133 74.9225 260.064 55.5439 260.064C36.1654 260.064 20.4559 269.133 20.4559 280.32C20.4559 291.507 36.1654 300.576 55.5439 300.576Z" fill="#8C50FF"/>
<path d="M92.344 283.032C91.9771 284.001 91.5106 284.928 90.952 285.8C89.8498 287.515 88.5022 289.06 86.952 290.384C86.488 290.792 85.992 291.184 85.472 291.576C84.4386 292.354 83.3564 293.065 82.232 293.704C81.992 293.848 81.752 293.984 81.504 294.112C81.008 294.392 80.488 294.656 79.968 294.912C78.704 295.528 77.384 296.096 76.024 296.6C75.52 296.792 75.016 296.976 74.496 297.144C73.192 297.584 71.848 297.944 70.496 298.312C70.04 298.432 69.568 298.536 69.104 298.64C67.76 298.936 66.4 299.192 65.024 299.392C64.56 299.464 64.088 299.528 63.624 299.584C62.272 299.752 60.912 299.88 59.544 299.96C59.08 299.96 58.616 300.016 58.144 300.024C56.792 300.088 55.432 300.096 54.072 300.064L52.616 300C51.2507 299.936 49.8907 299.832 48.536 299.688C48.064 299.632 47.6 299.584 47.136 299.512C45.76 299.336 44.4 299.112 43.064 298.84L41.664 298.544C40.272 298.224 38.912 297.856 37.584 297.44L36.184 296.984C34.784 296.496 33.416 295.952 32.104 295.344C31.6293 295.131 31.1653 294.907 30.712 294.672C30.088 294.363 29.48 294.035 28.888 293.688C28.088 293.224 27.344 292.752 26.632 292.264C26.144 291.936 25.68 291.592 25.232 291.24C23.7124 290.08 22.342 288.736 21.152 287.24C20.6408 286.585 20.1757 285.896 19.76 285.176C15.424 277.608 18.464 268.944 28.888 262.928C43.608 254.432 67.472 254.432 82.192 262.928C86.336 265.328 89.304 268.12 91.12 271.112C91.603 271.902 92.0127 272.735 92.344 273.6C93.5279 276.633 93.5279 280 92.344 283.032Z" fill="#EF990F"/>
<path d="M17.8481 278.32C17.8481 278.12 17.8481 267.48 17.8481 267.48L30.4001 272.896L17.8481 278.32Z" fill="#EF990F"/>
<path d="M93.2399 266.904L93.2239 277.8L86.3999 283.616L82.2239 273.624L93.2399 266.904Z" fill="#EF990F"/>
<path d="M21.152 273.288V287.24C20.6408 286.585 20.1757 285.895 19.7599 285.176V273.288H21.152Z" fill="#DD8910"/>
<path d="M26.632 277.6V292.272C26.144 291.944 25.68 291.6 25.232 291.248V277.6H26.632Z" fill="#DD8910"/>
<path d="M32.1041 281.408V295.36C31.6294 295.147 31.1654 294.923 30.7121 294.688V281.408H32.1041Z" fill="#DD8910"/>
<path d="M37.6 283.096V297.456L36.2 297V283.096H37.6Z" fill="#DD8910"/>
<path d="M43.064 284.976V298.856L41.664 298.56V284.96L43.064 284.976Z" fill="#DD8910"/>
<path d="M48.536 286.4V299.736C48.064 299.68 47.6 299.632 47.136 299.56V286.4H48.536Z" fill="#DD8910"/>
<path d="M54.0161 286.4V300.096L52.6161 300V286.4H54.0161Z" fill="#DD8910"/>
<path d="M59.4879 286.4V300C59.0239 300 58.5599 300.056 58.0879 300.064V286.4H59.4879Z" fill="#DD8910"/>
<path d="M64.968 285.856V299.392C64.504 299.464 64.032 299.528 63.568 299.584V285.856H64.968Z" fill="#DD8910"/>
<path d="M70.4401 284.392V298.312C69.9841 298.432 69.5121 298.536 69.0481 298.64V284.392H70.4401Z" fill="#DD8910"/>
<path d="M76 282.4V296.584C75.496 296.776 74.992 296.96 74.472 297.128V282.4H76Z" fill="#DD8910"/>
<path d="M81.464 279.344V294.112C80.968 294.392 80.448 294.656 79.928 294.912V279.344H81.464Z" fill="#DD8910"/>
<path d="M86.912 276V290.4C86.448 290.808 85.952 291.2 85.432 291.592V276H86.912Z" fill="#DD8910"/>
<path d="M92.3439 271.112V283.032C91.977 284 91.5105 284.928 90.9519 285.8V271.112H92.3439Z" fill="#DD8910"/>
<path d="M55.5441 288.664C76.363 288.664 93.2401 278.922 93.2401 266.904C93.2401 254.886 76.363 245.144 55.5441 245.144C34.7252 245.144 17.8481 254.886 17.8481 266.904C17.8481 278.922 34.7252 288.664 55.5441 288.664Z" fill="#FCA70D"/>
<path d="M80.352 306.608C66.648 314.52 44.432 314.52 30.752 306.608L30.112 306.224L29.976 306.304V334.032L30.776 334.488C44.472 342.4 66.688 342.4 80.376 334.488L81.176 334.024V306.312L81.04 306.232L80.352 306.608Z" fill="#ECE8F9"/>
<path d="M77.1039 314.272C64.4639 319.976 46.6239 319.976 33.9839 314.272V317.784C46.6239 323.488 64.4639 323.488 77.1039 317.784V314.272Z" fill="#8C50FF"/>
<path d="M61.5199 331.52C52.0079 332.464 41.9599 331.136 33.9839 327.52V331.024C41.9839 334.624 52.0079 335.952 61.5199 335.024V331.52Z" fill="#8C50FF"/>
<path d="M70.3039 323.312C58.5839 326.448 44.4959 325.664 33.9839 320.912V324.424C44.4959 329.16 58.5839 329.944 70.3039 326.824V323.312Z" fill="#8C50FF"/>
<path opacity="0.4" d="M328.44 304.664C366.83 304.664 397.952 286.695 397.952 264.528C397.952 242.362 366.83 224.392 328.44 224.392C290.05 224.392 258.928 242.362 258.928 264.528C258.928 286.695 290.05 304.664 328.44 304.664Z" fill="#D6D8E5"/>
<path d="M399.48 255.392L399.44 255.28C398.959 253.097 398.195 250.986 397.168 249L355.888 135.032H356.048V79.48H308V135.032L266.912 249.088C265.906 251.047 265.159 253.129 264.688 255.28L264.648 255.392C262.168 266.976 268.608 279.08 284.016 287.976C310.544 303.296 353.568 303.296 380.104 287.976C395.52 279.08 401.968 266.976 399.48 255.392Z" fill="#E1EAFF"/>
<path d="M332.072 285.72C361.674 285.72 385.672 271.866 385.672 254.776C385.672 237.686 361.674 223.832 332.072 223.832C302.47 223.832 278.472 237.686 278.472 254.776C278.472 271.866 302.47 285.72 332.072 285.72Z" fill="#FCA70D"/>
<path d="M278.72 251.792L297.824 195.56H366.016L385.424 251.792H278.72Z" fill="#FCA70D"/>
<path d="M331.92 217.224C350.835 217.224 366.168 208.37 366.168 197.448C366.168 186.526 350.835 177.672 331.92 177.672C313.005 177.672 297.672 186.526 297.672 197.448C297.672 208.37 313.005 217.224 331.92 217.224Z" fill="#EF990F"/>
<path opacity="0.2" d="M331.8 134.704V264.528C317.096 264.528 302.4 261.272 291.176 254.792C277.888 247.12 272.464 236.624 274.896 226.648L276.496 222.264L284.656 199.768L285.016 198.752L308 135.032V81.6001L331.752 92.1281L331.8 134.704Z" fill="white"/>
<path d="M332.072 92.0959C345.915 92.0959 357.136 85.6165 357.136 77.6239C357.136 69.6312 345.915 63.1519 332.072 63.1519C318.23 63.1519 307.008 69.6312 307.008 77.6239C307.008 85.6165 318.23 92.0959 332.072 92.0959Z" fill="#D6DFF2"/>
<path d="M332.072 84.4478C341.191 84.4478 348.584 81.3926 348.584 77.6238C348.584 73.855 341.191 70.7998 332.072 70.7998C322.953 70.7998 315.56 73.855 315.56 77.6238C315.56 81.3926 322.953 84.4478 332.072 84.4478Z" fill="#ACBAD1"/>
<path d="M327.704 66.3841C331.407 66.3841 334.408 63.3826 334.408 59.6801C334.408 55.9776 331.407 52.9761 327.704 52.9761C324.001 52.9761 321 55.9776 321 59.6801C321 63.3826 324.001 66.3841 327.704 66.3841Z" fill="#FCA70D"/>
<path opacity="0.2" d="M326.456 61.4079C328.259 61.4079 329.72 59.9465 329.72 58.1439C329.72 56.3412 328.259 54.8799 326.456 54.8799C324.653 54.8799 323.192 56.3412 323.192 58.1439C323.192 59.9465 324.653 61.4079 326.456 61.4079Z" fill="white"/>
<path opacity="0.2" d="M329.976 64.112C330.692 64.112 331.272 63.5318 331.272 62.816C331.272 62.1003 330.692 61.52 329.976 61.52C329.26 61.52 328.68 62.1003 328.68 62.816C328.68 63.5318 329.26 64.112 329.976 64.112Z" fill="white"/>
<path d="M351.24 48.0401C356.798 48.0401 361.304 43.5343 361.304 37.9761C361.304 32.4179 356.798 27.9121 351.24 27.9121C345.682 27.9121 341.176 32.4179 341.176 37.9761C341.176 43.5343 345.682 48.0401 351.24 48.0401Z" fill="#FCA70D"/>
<path opacity="0.2" d="M349.368 40.5679C352.072 40.5679 354.264 38.3759 354.264 35.6719C354.264 32.9679 352.072 30.7759 349.368 30.7759C346.664 30.7759 344.472 32.9679 344.472 35.6719C344.472 38.3759 346.664 40.5679 349.368 40.5679Z" fill="white"/>
<path opacity="0.2" d="M354.656 44.6321C355.73 44.6321 356.6 43.7618 356.6 42.6881C356.6 41.6145 355.73 40.7441 354.656 40.7441C353.582 40.7441 352.712 41.6145 352.712 42.6881C352.712 43.7618 353.582 44.6321 354.656 44.6321Z" fill="white"/>
<path d="M322.264 26.0562C329.422 26.0562 335.224 20.2538 335.224 13.0962C335.224 5.93862 329.422 0.13623 322.264 0.13623C315.106 0.13623 309.304 5.93862 309.304 13.0962C309.304 20.2538 315.106 26.0562 322.264 26.0562Z" fill="#FCA70D"/>
<path opacity="0.2" d="M319.848 16.44C323.33 16.44 326.152 13.6176 326.152 10.136C326.152 6.65443 323.33 3.83203 319.848 3.83203C316.366 3.83203 313.544 6.65443 313.544 10.136C313.544 13.6176 316.366 16.44 319.848 16.44Z" fill="white"/>
<path opacity="0.2" d="M326.656 21.6561C328.034 21.6561 329.152 20.5386 329.152 19.1601C329.152 17.7816 328.034 16.6641 326.656 16.6641C325.277 16.6641 324.16 17.7816 324.16 19.1601C324.16 20.5386 325.277 21.6561 326.656 21.6561Z" fill="white"/>
<path opacity="0.4" d="M347.824 373.52C363.915 373.52 376.96 365.988 376.96 356.696C376.96 347.404 363.915 339.872 347.824 339.872C331.733 339.872 318.688 347.404 318.688 356.696C318.688 365.988 331.733 373.52 347.824 373.52Z" fill="#D6D8E5"/>
<path d="M371.912 228.56C372.248 231.464 375.72 244.024 374.976 248.328C374.232 252.632 362.4 259.824 362.4 259.824L360.8 252.456L367.368 246.056L365.592 233.856L371.912 228.56Z" fill="#FFCEA9"/>
<path d="M362.736 216.184C363.89 215.649 365.201 215.556 366.419 215.923C367.637 216.29 368.678 217.092 369.344 218.176C371.088 221.072 372.904 230.976 373.064 232.68C373.064 232.68 370.616 236.064 366.944 235.496L362.736 216.184Z" fill="#EDEDED"/>
<path d="M349.192 356.184C346.609 356.896 343.851 356.563 341.512 355.256C339.664 355.312 329.624 351.016 328.256 354.624C327.064 357.824 331.408 360.712 333.736 361.272C338.808 362.504 342.536 365.032 344.592 365.456C346.112 365.776 348.072 365.992 349.288 364.8C350.736 363.368 350.608 358.072 349.192 356.184Z" fill="#38226D"/>
<path d="M344.592 364.584C342.56 364.152 338.808 361.624 333.736 360.4C331.792 359.928 328.432 357.792 328.096 355.256C327.648 358.168 331.568 360.752 333.736 361.272C338.808 362.504 342.536 365.032 344.592 365.456C346.112 365.776 348.072 365.992 349.288 364.8C349.599 364.45 349.826 364.034 349.952 363.584C349.198 364.156 348.321 364.544 347.39 364.717C346.46 364.891 345.502 364.845 344.592 364.584Z" fill="#9C73FF"/>
<path d="M365.472 348.872C362.89 349.588 360.129 349.255 357.792 347.944C355.944 348 345.904 343.704 344.544 347.312C343.344 350.472 347.696 353.4 350.016 353.96C355.088 355.192 358.816 357.72 360.872 358.152C362.392 358.472 364.36 358.68 365.568 357.488C367.016 356.056 366.888 350.76 365.472 348.872Z" fill="#38226D"/>
<path d="M360.872 357.272C358.84 356.84 355.088 354.312 350.016 353.088C348.072 352.616 344.712 350.488 344.416 347.944C343.968 350.856 347.888 353.44 350.016 353.96C355.088 355.192 358.816 357.72 360.872 358.152C362.392 358.472 364.36 358.68 365.568 357.488C365.879 357.138 366.106 356.722 366.232 356.272C365.478 356.844 364.601 357.232 363.67 357.405C362.74 357.579 361.782 357.533 360.872 357.272Z" fill="#9C73FF"/>
<path d="M365.672 321.6C365.241 317.872 364.464 314.192 363.352 310.608C363.352 310.608 364.048 301.12 364.392 292.12C364.784 281.912 368.328 272.92 365.528 264.784L334.032 271.784C334.032 271.784 335.936 312.488 336.36 317.384C336.591 321.218 337.064 325.033 337.776 328.808C339.208 336.712 341.544 355.504 341.544 355.504C344.88 357.44 349.248 356.368 349.248 356.368C349.248 356.368 349.008 332.6 348.792 326.904C348.536 319.952 348.32 320.504 348.32 320.504L349.36 303.2L350.04 294.592C350.04 294.592 350.912 300.912 351.48 306.592C351.976 311.512 353.168 315.968 354.496 325.128C355.648 333.08 357.512 349.056 357.512 349.056C360.848 350.992 365.368 349.384 365.368 349.384C365.368 349.384 366.568 328.496 365.672 321.6Z" fill="#8C50FF"/>
<path d="M361.072 216.352C358.672 216.472 356.888 217.088 356.584 216.352C356.327 215.113 356.146 213.86 356.04 212.6C356.312 211.904 356.552 211.16 356.552 211.16C359.568 209.304 360.552 206.048 360.912 202.256C361.592 195.776 358.088 190.104 351.608 189.456C345.512 188.824 341.032 193.104 339.84 198.984C339.192 201.888 337.912 207.368 339.648 212.144C340.616 214.816 341.864 216.944 343.112 217.344C344.32 217.314 345.525 217.21 346.72 217.032C346.72 217.032 347.048 218.832 347.264 219.984C347.48 221.136 347.4 221.752 345.104 223.184C342.808 224.616 348.576 227.512 352.352 227.232C356.128 226.952 360.352 224.664 361.544 222.224C362.832 219.48 362.72 216.272 361.072 216.352Z" fill="#FFCEA9"/>
<path d="M357.6 216.712C358.264 218.368 356.576 220.392 352.072 221.808C347.568 223.224 347.16 221.408 347.16 221.408C347.16 221.408 340.552 224.416 338.4 225.912C335.696 227.808 334.504 233.272 334.136 242.512C333.712 253.2 333.68 269.048 334.032 271.784C334.032 271.784 339.088 276.824 345.552 276.288C352.016 275.752 362.896 270.04 365.552 265.616C365.472 256.248 364.384 254.72 365.896 249.328C369.368 236.968 371.2 231.912 369.512 223.728C368.12 216.96 366.168 216.12 363.496 216.184C361.523 216.253 359.554 216.429 357.6 216.712Z" fill="#F4F4F4"/>
<path d="M324 253.136C329.312 254.472 330.552 251.128 331.256 248.336C332.944 241.632 333.848 235.536 335.112 231.768C336.592 227.272 338.144 226.56 340.328 225.68C342.888 224.656 345.128 226.824 344.24 232.536C343.232 239.296 341.904 244.048 339.376 252.048C338.72 254.136 337.24 257.848 335.016 259.64C332.28 261.856 328.16 261.76 321.92 260.208C319.256 259.544 316.32 257.96 311.304 255.608C309.952 254.976 308.904 254.56 306.312 253.352C303.708 252.182 301.424 250.401 299.656 248.16C298.296 246.192 298.12 245.264 298.392 244.816C298.664 244.368 299.36 244.376 300.08 245.208C301.134 246.603 302.429 247.798 303.904 248.736C303.904 248.736 302.224 247.008 301.32 245.88C300.503 244.884 299.828 243.78 299.312 242.6C298.832 241.456 299.816 239.896 300.568 240.712C301.32 241.528 301.68 242.368 303.056 244.008C303.777 244.888 304.602 245.677 305.512 246.36C304.662 245.206 303.905 243.986 303.248 242.712C302.674 241.711 302.397 240.568 302.448 239.416C302.448 238.816 303.336 238.104 304.128 239.24C304.92 240.376 305.312 241.864 306.984 243.592C308.192 244.856 309.224 245.576 309.256 245.232C309.288 244.888 308.52 244.192 308.088 242.728C307.656 241.264 308.088 239.712 308.888 239.528C309.688 239.344 309.544 239.4 310.192 240.776C310.84 242.152 311.84 243.176 312.592 245.16C313 246.57 313.747 247.858 314.768 248.912C316.04 250.328 318.92 251.864 324 253.136Z" fill="#FFCEA9"/>
<path d="M342.264 224.8C338.72 224.272 336.216 225.872 334.648 231.2C333.08 236.528 332 241 332 241C333.406 243.025 335.532 244.435 337.944 244.944C342.184 245.968 343.704 243.944 343.704 243.944C343.704 243.944 344.88 238.344 345.616 234.488C346.352 230.632 346.648 225.432 342.264 224.8Z" fill="#EDEDED"/>
<path d="M340.04 198.128C340.04 198.128 334.44 189.616 346.576 187.88C355.328 186.632 360.976 192.248 361.6 198.352C362.224 204.176 358.632 210.232 356.04 212.632C354.776 213.088 352.04 213.344 348.48 211.72C348.332 210.124 348.276 208.522 348.312 206.92C348.312 206.92 352.576 197.976 340.04 198.128Z" fill="#3A2C6D"/>
<path d="M368.72 235.848L334.032 268.168L332 330.32C332 330.32 341.728 335.064 352.8 332.496L354.8 308.592L357.88 330.288L357.512 330.952C362.753 328.607 367.247 324.865 370.504 320.136L368.72 235.848Z" fill="#F4F4F4"/>
<path d="M332 241L330.296 248.496C330.296 248.496 328.848 253.752 325.152 252.416C321.632 250.938 318.203 249.255 314.88 247.376L310.4 256.568L319.672 260.912C319.672 260.912 332.536 265.496 336.112 260.912C339.688 256.328 343.704 243.944 343.704 243.944L332 241Z" fill="#EDEDED"/>
<path d="M373.064 232.68L374.568 239.832C374.568 239.832 375.296 245.216 375.368 246.232C375.44 247.248 375.872 249.072 372.904 252.024C369.936 254.976 369.144 255.872 369.144 255.872L368.736 239.072L369.592 235.2L372.08 232.064L373.064 232.68Z" fill="#EDEDED"/>
</g>
<defs>
<clipPath id="clip0">
<rect width="400" height="375.84" fill="white"/>
</clipPath>
</defs>
</svg>
