<svg width="31" height="40" viewBox="0 0 31 40" fill="none" xmlns="http://www.w3.org/2000/svg">
<path fill-rule="evenodd" clip-rule="evenodd" d="M27.4983 6.78457C24.6482 2.47764 20.1303 0.00585938 15.1047 0.00585938C10.0789 0.00585938 5.56208 2.47764 2.71137 6.78457C-0.125311 11.0735 -0.780379 16.5011 0.955399 21.2958C1.4199 22.6065 2.15834 23.8782 3.14404 25.0702L14.1108 38.524C14.3593 38.8288 14.7223 39.0049 15.1047 39.0049C15.4874 39.0049 15.8507 38.8288 16.0987 38.524L27.0618 25.0738C28.0524 23.8755 28.7901 22.6038 29.2507 21.3054C30.9893 16.5011 30.3345 11.0735 27.4983 6.78457ZM26.8052 20.3498C26.4508 21.3512 25.8711 22.3431 25.0834 23.2963C25.0814 23.2987 25.079 23.3005 25.0772 23.3041L15.1047 35.5388L5.12632 23.2963C4.3392 22.344 3.7595 21.3537 3.40088 20.3411C1.96572 16.3752 2.51022 11.8885 4.85884 8.33769C7.21499 4.77482 10.9496 2.73234 15.1047 2.73234C19.2596 2.73234 22.9945 4.77482 25.3504 8.33769C27.6995 11.8885 28.2448 16.3752 26.8052 20.3498ZM15.1047 8.09609C11.0737 8.09609 7.79393 11.5224 7.79393 15.7328C7.79393 19.9423 11.0734 23.3679 15.1047 23.3679C19.1369 23.3679 22.4161 19.9423 22.4161 15.7328C22.4161 11.5224 19.1358 8.09609 15.1047 8.09609ZM15.1049 20.6412C12.5134 20.6412 10.4052 18.4396 10.4052 15.7332C10.4052 13.0258 12.5134 10.8236 15.1049 10.8236C17.6958 10.8236 19.8055 13.0258 19.8055 15.7332C19.8055 18.4396 17.6958 20.6412 15.1049 20.6412Z" fill="#5D6678"/>
</svg>
